SplineFontDB: 3.0
FontName: Format_1452
FullName: Format_1452
FamilyName: Format_1452
Weight: Medium
Copyright: Created by Frank ADEBIAYE with FontForge 2.0 (http://fontforge.sf.net)
UComments: "2010-9-18: Created." 
Version: 001.000
ItalicAngle: 0
UnderlinePosition: -100
UnderlineWidth: 50
Ascent: 800
Descent: 200
LayerCount: 2
Layer: 0 0 "Back"  1
Layer: 1 0 "Fore"  0
NeedsXUIDChange: 1
XUID: [1021 32 261939104 15372877]
FSType: 0
OS2Version: 0
OS2_WeightWidthSlopeOnly: 0
OS2_UseTypoMetrics: 1
CreationTime: 1284800854
ModificationTime: 1285268587
OS2TypoAscent: 0
OS2TypoAOffset: 1
OS2TypoDescent: 0
OS2TypoDOffset: 1
OS2TypoLinegap: 90
OS2WinAscent: 0
OS2WinAOffset: 1
OS2WinDescent: 0
OS2WinDOffset: 1
HheadAscent: 0
HheadAOffset: 1
HheadDescent: 0
HheadDOffset: 1
OS2Vendor: 'PfEd'
DEI: 91125
Encoding: UnicodeBmp
UnicodeInterp: none
NameList: Adobe Glyph List
DisplaySize: -24
AntiAlias: 1
FitToEm: 1
WinInfo: 0 75 21
Grid
-1000 484 m 0
 2000 484 l 0
  Named: "x-height" 
-1000 646 m 0
 2000 646 l 0
-1000 724 m 0
 2000 724 l 0
  Named: "hcaps" 
EndSplineSet
BeginChars: 65536 655

StartChar: zero
Encoding: 48 48 0
Width: 500
VWidth: 0
Flags: W
HStem: 0 85.5<183.112 316.023> 637.875 85.5<184.418 317.839> 701.688 20G<359.044 370.375>
VStem: 48.0625 85.5<0 2.8125 197.145 585.867> 367.562 84.375<137.079 527.453 721.688 723.375>
LayerCount: 2
Fore
SplineSet
250 723.375 m 4xd8
 288.654 723.375 324.839 712.397 355.469 693.562 c 5
 367.844 721.688 l 5xb8
 370.375 720.562 l 5
 370.375 723.375 l 5
 449.125 723.375 l 5
 449.125 720.562 l 5
 451.656 719.438 l 5
 415.375 637.312 l 5
 438.473 604.45 451.938 564.346 451.938 521.438 c 6
 451.938 201.938 l 6
 451.938 90.1758 361.762 0 250 0 c 4
 211.671 0 176.172 10.4854 145.656 28.9688 c 5
 133.562 1.6875 l 5
 130.75 2.8125 l 5
 130.75 0 l 5
 50.875 0 l 5
 50.875 2.8125 l 5
 48.3438 3.9375 l 5
 84.625 85.5 l 5
 61.9404 117.686 48.6426 156.832 48.0625 199.125 c 6
 48.0625 201.938 l 5
 48.0625 521.438 l 6
 48.0625 632.092 138.221 723.375 250 723.375 c 4xd8
250 637.875 m 4xd8
 187.246 637.875 135.101 586.67 133.562 524.25 c 6
 133.562 521.438 l 5
 133.562 201.938 l 6
 133.562 199.811 133.729 197.842 133.844 195.75 c 6
 320.312 614.531 l 5
 300.722 629.121 276.341 637.875 250 637.875 c 4xd8
367.281 529.031 m 6
 180.812 108.562 l 5
 200.315 94.1484 224.143 85.5 250 85.5 c 4
 313.914 85.5 366.033 135.633 367.562 199.125 c 6
 367.562 201.938 l 5
 367.562 521.438 l 6
 367.562 523.995 367.448 526.509 367.281 529.031 c 6
EndSplineSet
Validated: 1
EndChar

StartChar: A
Encoding: 65 65 1
Width: 500
VWidth: 0
Flags: W
HStem: 1 21G<50.3125 130.188 369.812 449.688> 239.5 85.5<204.719 295.281> 704.375 20G<210.062 289.938> 704.375 20G<202.799 210.062 210.062 289.938 290.219 297.201>
VStem: 369.812 79.875<1 23.5264>
LayerCount: 2
Fore
SplineSet
210.062 724.375 m 5xe8
 289.938 724.375 l 5
 289.938 721.562 l 5
 290.219 721.281 l 5
 292.75 722.125 l 5
 452.5 4.375 l 5
 449.688 3.8125 l 5
 449.688 1 l 5
 369.812 1 l 5
 369.812 3.8125 l 5
 367 3.25 l 5
 314.406 239.5 l 5
 185.594 239.5 l 5
 133 3.25 l 5
 130.188 3.8125 l 5
 130.188 1 l 5
 50.3125 1 l 5
 50.3125 3.8125 l 5
 47.5 4.375 l 5
 207.25 722.125 l 5
 210.062 721.562 l 5
 210.062 724.375 l 5xe8
250 528.625 m 5
 204.719 325 l 5
 295.281 325 l 5
 250 528.625 l 5
EndSplineSet
Validated: 1
EndChar

StartChar: P
Encoding: 80 80 2
Width: 500
VWidth: 0
Flags: W
HStem: -2.8125 21G<48.0625 132.438> 235.688 85.5<132.438 283.797> 635.062 85.5<132.438 287.406>
VStem: 48.0625 84.375<-2.8125 235.688 321.188 635.062> 366.438 85.5<401.069 555.814>
LayerCount: 2
Fore
SplineSet
90.25 0 m 1,0,-1
48.0625 720.562 m 1,1,-1
 50.875 720.562 l 1,2,-1
 129.625 720.562 l 1,3,-1
 209.5 720.562 l 2,4,-1
 343.779 720.562 451.938 611.271 451.938 478.125 c 0,7,-1
 451.938 345.92 345.265 237.226 212.312 235.688 c 0,10,-1
 211.363 235.679 210.449 235.688 209.5 235.688 c 2,13,-1
 170.125 235.688 l 1,14,-1
 132.438 235.688 l 1,15,-1
 132.438 0 l 1,16,-1
 132.438 -2.8125 l 1,17,-1
 129.625 -2.8125 l 1,18,-1
 90.25 -2.8125 l 1,19,-1
 50.875 -2.8125 l 1,20,-1
 48.0625 -2.8125 l 1,21,-1
 48.0625 0 l 1,22,-1
 48.0625 717.75 l 1,23,-1
 48.0625 720.562 l 1,1,-1
132.438 635.062 m 1,24,-1
 132.438 321.188 l 1,25,-1
 209.5 321.188 l 2,26,-1
 210.44 321.188 211.372 321.161 212.312 321.188 c 0,29,-1
 297.241 322.717 366.438 392.854 366.438 478.125 c 0,32,-1
 366.438 564.337 295.712 635.062 209.5 635.062 c 2,35,-1
 170.125 635.062 l 1,36,-1
 132.438 635.062 l 1,24,-1
EndSplineSet
Validated: 1
EndChar

StartChar: r
Encoding: 114 114 3
Width: 400
VWidth: 0
Flags: W
HStem: 0 21G<57.6875 143.188> 398.25 85.5<192.932 342.312>
VStem: 57.6875 85.5005<0 348.648 446.906 483.75>
LayerCount: 2
Fore
SplineSet
57.6875 483.75 m 5
 60.5 483.75 l 5
 140.375 483.75 l 5
 143.188 483.75 l 5
 143.188 480.938 l 5
 143.188 446.906 l 5
 175.338 469.591 214.467 483.17 256.812 483.75 c 6
 259.625 483.75 l 5
 339.5 483.75 l 5
 342.312 483.75 l 5
 342.312 480.938 l 5
 342.312 401.062 l 5
 342.312 398.25 l 5
 339.5 398.25 l 5
 300.125 398.25 l 5
 259.625 398.25 l 5
 256.812 398.25 l 6
 193.259 396.782 143.188 345.753 143.188 281.812 c 6
 143.188 2.8125 l 5
 143.188 0 l 5
 140.375 0 l 5
 99.875 0 l 5
 60.5 0 l 5
 57.6875 0 l 5
 57.6875 2.8125 l 5
 57.6875 480.938 l 5
 57.6875 483.75 l 5
EndSplineSet
Validated: 1
EndChar

StartChar: V
Encoding: 86 86 4
Width: 500
VWidth: 0
Flags: W
HStem: 0.75 21G<210.625 290.5> 704.125 20G<50.875 130.75 369.25 449.125> 704.125 20G<50.875 130.75 130.75 138.001 362.02 369.25 369.25 449.125>
LayerCount: 2
Fore
SplineSet
50.875 724.125 m 5xc0
 130.75 724.125 l 5
 130.75 721.312 l 5
 133.562 721.875 l 5
 250.281 195.938 l 5
 366.438 721.875 l 5
 369.25 721.031 l 5
 369.25 724.125 l 5
 449.125 724.125 l 5
 449.125 721.312 l 5
 451.938 720.469 l 5
 293.031 3 l 5
 290.5 3.5625 l 5
 290.5 0.75 l 5
 210.625 0.75 l 5
 210.625 3.5625 l 5
 208.094 3 l 5
 48.0625 720.469 l 5
 50.875 721.312 l 5
 50.875 724.125 l 5xc0
EndSplineSet
Validated: 1
EndChar

StartChar: W
Encoding: 87 87 5
Width: 825
VWidth: 0
Flags: W
LayerCount: 2
Fore
SplineSet
212.953 0 m 5
 292.828 0 l 5
 292.828 2.8125 l 5
 295.359 2.25 l 5
 412.641 527.906 l 5
 529.641 2.25 l 5
 532.453 2.8125 l 5
 532.453 0 l 5
 612.328 0 l 5
 612.328 2.8125 l 5
 615.141 2.25 l 5
 773.484 719.719 l 5
 770.953 720.281 l 5
 770.953 723.375 l 5
 692.203 723.375 l 5
 692.203 720.281 l 5
 689.391 721.125 l 5
 572.391 195.469 l 5
 455.391 721.125 l 5
 452.578 720.562 l 5
 452.578 723.375 l 5
 372.703 723.375 l 5
 372.703 720.562 l 5
 369.891 721.125 l 5
 252.891 194.625 l 5
 135.891 721.125 l 5
 133.078 720.562 l 5
 133.078 723.375 l 5
 54.3281 723.375 l 5
 54.3281 720.562 l 5
 51.5156 719.719 l 5
 210.422 2.25 l 5
 212.953 2.8125 l 5
 212.953 0 l 5
EndSplineSet
Validated: 9
EndChar

StartChar: n
Encoding: 110 110 6
Width: 500
VWidth: 0
Flags: W
HStem: 0 21G<48.1016 133.602 367.602 451.977> 398.25 85.5<182.649 315.795>
VStem: 48.1016 85.5004<0 349.451 446.906 483.75> 367.602 84.375<0 348.489>
LayerCount: 2
Fore
SplineSet
48.1016 483.75 m 5
 50.9141 483.75 l 5
 130.789 483.75 l 5
 133.602 483.75 l 5
 133.602 480.938 l 5
 133.602 446.906 l 5
 166.525 470.092 206.604 483.75 250.039 483.75 c 4
 360.86 483.75 450.474 395.077 451.977 284.625 c 4
 451.985 283.685 451.977 282.753 451.977 281.812 c 6
 451.977 2.8125 l 5
 451.977 0 l 5
 449.164 0 l 5
 409.789 0 l 5
 370.414 0 l 5
 367.602 0 l 5
 367.602 2.8125 l 5
 367.602 281.812 l 6
 367.602 282.753 367.626 283.693 367.602 284.625 c 4
 365.954 348.14 313.979 398.25 250.039 398.25 c 4
 186.31 398.25 133.602 346.658 133.602 281.812 c 6
 133.602 2.8125 l 5
 133.602 0 l 5
 130.789 0 l 5
 91.4141 0 l 5
 50.9141 0 l 5
 48.1016 0 l 5
 48.1016 2.8125 l 5
 48.1016 281.812 l 6
 48.1016 285.302 47.9258 288.773 48.1016 292.219 c 6
 48.1016 480.938 l 5
 48.1016 483.75 l 5
EndSplineSet
Validated: 1
EndChar

StartChar: I
Encoding: 73 73 7
Width: 200
VWidth: 0
Flags: W
HStem: 0.1875 21G<57.25 142.75> 703.562 20G<57.25 142.75> 703.562 20G<57.25 142.75>
VStem: 57.25 85.5<0.1875 723.562>
LayerCount: 2
Fore
SplineSet
60.0625 3 m 5,0,-1
57.25 723.562 m 5,1,-1
 60.0625 723.562 l 5,2,-1
 139.938 723.562 l 5,3,-1
 142.75 723.562 l 5,4,-1
 142.75 720.75 l 5,5,-1
 142.75 3 l 5,6,-1
 142.75 0.1875 l 5,7,-1
 139.938 0.1875 l 5,8,-1
 99.4375 0.1875 l 5,9,-1
 60.0625 0.1875 l 5,10,-1
 57.25 0.1875 l 5,11,-1
 57.25 3 l 5,12,-1
 57.25 720.75 l 5,13,-1
 57.25 723.562 l 5,1,-1
EndSplineSet
Validated: 1
EndChar

StartChar: J
Encoding: 74 74 8
Width: 500
VWidth: 0
Flags: W
HStem: 0 85.5<183.553 315.791> 703.375 20G<366.438 451.938> 703.375 20G<366.438 451.938>
VStem: 50.875 78.75<141.8 204.75> 366.438 85.5<137.073 723.375>
LayerCount: 2
Fore
SplineSet
366.438 723.375 m 5xd8
 369.25 723.375 l 5
 449.125 723.375 l 5
 451.938 723.375 l 5
 451.938 720.562 l 5
 451.938 201.938 l 6
 451.938 90.1582 360.654 0 250 0 c 4
 138.238 0 48.0625 90.1758 48.0625 201.938 c 5
 50.875 201.938 l 5
 50.875 204.75 l 5
 129.625 204.75 l 5
 129.625 201.938 l 5
 132.438 201.938 l 5
 132.438 137.092 185.119 85.5 250 85.5 c 4
 313.729 85.5 366.438 137.092 366.438 201.938 c 6
 366.438 720.562 l 5
 366.438 723.375 l 5xd8
EndSplineSet
Validated: 1
EndChar

StartChar: k
Encoding: 107 107 9
Width: 475
VWidth: 0
Flags: W
HStem: -0.1875 21G<55.3906 140.891 337.203 417.078> 463.562 20G<297.828 377.703> 703.188 20G<55.3906 140.891>
VStem: 55.3906 85.5004<-0.1875 2.625 173.906 723.188>
LayerCount: 2
Fore
SplineSet
55.3906 723.188 m 5
 58.2031 723.188 l 5
 138.078 723.188 l 5
 140.891 723.188 l 5
 140.891 720.375 l 5
 140.891 173.906 l 5
 295.016 481.875 l 5
 297.828 480.75 l 5
 297.828 483.562 l 5
 377.703 483.562 l 5
 377.703 480.75 l 5
 380.234 479.625 l 5
 281.234 282.469 l 5
 419.609 3.75 l 5
 417.078 2.625 l 5
 417.078 -0.1875 l 5
 337.203 -0.1875 l 5
 337.203 2.625 l 5
 334.391 1.5 l 5
 237.922 195.668 l 5
 140.891 2.625 l 5
 140.891 -0.1875 l 5
 138.078 -0.1875 l 5
 98.7031 -0.1875 l 5
 58.2031 -0.1875 l 5
 55.3906 -0.1875 l 5
 55.3906 2.625 l 5
 55.3906 720.375 l 5
 55.3906 723.188 l 5
EndSplineSet
Validated: 1
EndChar

StartChar: L
Encoding: 76 76 10
Width: 500
VWidth: 0
Flags: W
HStem: 0 85.5<133.562 451.938> 703.375 20G<48.0625 133.562> 703.375 20G<48.0625 133.562>
VStem: 48.0625 85.5<85.5 723.375>
LayerCount: 2
Fore
SplineSet
50.875 720.562 m 1,0,-1
48.0625 723.375 m 1,1,-1
 50.875 723.375 l 1,2,-1
 130.75 723.375 l 1,3,-1
 133.562 723.375 l 1,4,-1
 133.562 720.562 l 1,5,-1
 133.562 85.5 l 1,6,-1
 449.125 85.5 l 1,7,-1
 451.938 85.5 l 1,8,-1
 451.938 82.6875 l 1,9,-1
 451.938 2.8125 l 1,10,-1
 451.938 0 l 1,11,-1
 449.125 0 l 1,12,-1
 250 0 l 1,13,-1
 133.562 0 l 1,14,-1
 90.25 0 l 1,15,-1
 50.875 0 l 1,16,-1
 48.0625 0 l 1,17,-1
 48.0625 2.8125 l 1,18,-1
 48.0625 82.6875 l 1,19,-1
 48.0625 85.5 l 1,20,-1
 48.0625 720.562 l 1,21,-1
 48.0625 723.375 l 1,1,-1
EndSplineSet
Validated: 1
EndChar

StartChar: S
Encoding: 83 83 11
Width: 500
VWidth: 0
Flags: W
HStem: 0 85.5<47.5 316.434> 319.5 85.5<185.008 314.423> 637.875 85.5<183.227 452.5>
VStem: 47.5 85.5<455.186 587.016> 367 85.5<136.824 268.44>
LayerCount: 2
Fore
SplineSet
246.625 723.375 m 1
 249.438 723.375 l 1
 449.688 723.375 l 1
 452.5 723.375 l 1
 452.5 720.562 l 1
 452.5 640.688 l 1
 452.5 637.875 l 1
 449.688 637.875 l 1
 349.562 637.875 l 1
 249.438 637.875 l 1
 246.625 637.875 l 2
 184.17 636.381 133 585.325 133 521.438 c 0
 133 456.592 185.708 405 249.438 405 c 0
 361.217 405 452.5 313.717 452.5 201.938 c 0
 452.5 92.1973 362.737 1.52051 252.25 0 c 0
 251.31 -0.00878906 250.378 0 249.438 0 c 2
 150.438 0 l 1
 50.3125 0 l 1
 47.5 0 l 1
 47.5 2.8125 l 1
 47.5 82.6875 l 1
 47.5 85.5 l 1
 50.3125 85.5 l 1
 249.438 85.5 l 2
 250.404 85.5 251.292 85.4736 252.25 85.5 c 0
 315.777 87.0293 367 139.184 367 201.938 c 0
 367 266.783 314.283 319.5 249.438 319.5 c 0
 138.783 319.5 47.5 409.658 47.5 521.438 c 0
 47.5 632.276 137.236 721.872 246.625 723.375 c 1
EndSplineSet
Validated: 1
EndChar

StartChar: T
Encoding: 84 84 12
Width: 500
VWidth: 0
Flags: W
HStem: 0 21G<207.25 292.75> 637.875 85.5<47.5 207.25 292.75 452.5>
VStem: 207.25 85.5<0 637.875>
LayerCount: 2
Fore
SplineSet
47.5 723.375 m 5
 50.3125 723.375 l 5
 207.25 723.375 l 5
 292.75 723.375 l 5
 449.688 723.375 l 5
 452.5 723.375 l 5
 452.5 720.562 l 5
 452.5 640.688 l 5
 452.5 637.875 l 5
 449.688 637.875 l 5
 292.75 637.875 l 5
 292.75 2.8125 l 5
 292.75 0 l 5
 289.938 0 l 5
 250.562 0 l 5
 210.062 0 l 5
 207.25 0 l 5
 207.25 2.8125 l 5
 207.25 637.875 l 5
 50.3125 637.875 l 5
 47.5 637.875 l 5
 47.5 640.688 l 5
 47.5 720.562 l 5
 47.5 723.375 l 5
EndSplineSet
Validated: 1
EndChar

StartChar: U
Encoding: 85 85 13
Width: 500
VWidth: 0
Flags: W
HStem: 0 85.5<183.814 315.745> 703.375 20G<48.0625 132.438 366.438 451.938> 703.375 20G<48.0625 132.438 366.438 451.938>
VStem: 48.0625 84.375<135.486 723.375> 366.438 85.5<135.486 723.375>
LayerCount: 2
Fore
SplineSet
48.0625 723.375 m 5xd8
 50.875 723.375 l 5
 129.625 723.375 l 5
 132.438 723.375 l 5
 132.438 720.562 l 5
 132.438 201.938 l 6
 132.438 138.243 185.154 85.5 250 85.5 c 4
 313.694 85.5 366.438 138.243 366.438 201.938 c 6
 366.438 720.562 l 5
 366.438 723.375 l 5
 369.25 723.375 l 5
 449.125 723.375 l 5
 451.938 723.375 l 5
 451.938 720.562 l 5
 451.938 201.938 l 6
 451.938 201.006 451.946 200.057 451.938 199.125 c 4
 450.435 89.7363 360.839 0 250 0 c 4
 139.161 0 49.5742 89.7363 48.0625 199.125 c 6
 48.0625 201.938 l 5
 48.0625 720.562 l 5
 48.0625 723.375 l 5xd8
EndSplineSet
Validated: 1
EndChar

StartChar: B
Encoding: 66 66 14
Width: 500
VWidth: 0
Flags: W
HStem: 0 85.5<113.875 336.557> 319.5 85.5<113.875 296.212> 637.875 85.5<113.875 295.171>
VStem: 28.375 85.5<85.5 319.5 405 637.875> 346.75 85.5<453.605 587.686> 387.25 84.375<136.818 269.211>
LayerCount: 2
Fore
SplineSet
28.375 723.375 m 5xf4
 31.1875 723.375 l 5
 111.062 723.375 l 5
 230.312 723.375 l 6
 342.074 723.375 432.25 633.199 432.25 521.438 c 4xf8
 432.25 464.827 409.1 413.736 371.781 377.156 c 5
 431.573 341.78 471.625 276.442 471.625 201.938 c 4
 471.625 92.2148 382.97 1.52051 272.5 0 c 4
 271.56 -0.00878906 270.628 0 269.688 0 c 6
 189.812 0 l 5
 113.875 0 l 5
 111.062 0 l 5
 108.25 0 l 5
 70.5625 0 l 5
 31.1875 0 l 5
 28.375 0 l 5
 28.375 2.8125 l 5
 28.375 720.562 l 5
 28.375 723.375 l 5xf4
113.875 637.875 m 5
 113.875 405 l 5
 230.312 405 l 6
 294.042 405 346.75 456.592 346.75 521.438 c 4
 346.75 586.283 294.042 637.875 230.312 637.875 c 6
 170.688 637.875 l 5
 113.875 637.875 l 5
269.688 319.5 m 6
 230.312 319.5 l 5
 170.688 319.5 l 5
 113.875 319.5 l 5
 113.875 85.5 l 5
 269.688 85.5 l 6
 270.628 85.5 271.568 85.4824 272.5 85.5 c 4
 336.054 86.9941 387.25 139.166 387.25 201.938 c 4xf4
 387.25 266.783 334.533 319.5 269.688 319.5 c 6
EndSplineSet
Validated: 1
EndChar

StartChar: C
Encoding: 67 67 15
Width: 500
VWidth: 0
Flags: W
HStem: 0 85.5<185.647 451.938> 637.875 85.5<183.648 451.938>
VStem: 48.0625 85.5<135.486 587.79>
LayerCount: 2
Fore
SplineSet
247.188 723.375 m 4
 250 723.375 l 5
 449.125 723.375 l 5
 451.938 723.375 l 5
 451.938 720.562 l 5
 451.938 640.688 l 5
 451.938 637.875 l 5
 449.125 637.875 l 5
 350.125 637.875 l 5
 250 637.875 l 5
 247.188 637.875 l 6
 184.574 636.434 135.004 586.863 133.562 524.25 c 6
 133.562 521.438 l 5
 133.562 201.938 l 6
 133.562 138.208 185.154 85.5 250 85.5 c 6
 349 85.5 l 5
 449.125 85.5 l 5
 451.938 85.5 l 5
 451.938 82.6875 l 5
 451.938 2.8125 l 5
 451.938 0 l 5
 449.125 0 l 5
 250 0 l 6
 139.161 0 49.5654 89.7363 48.0625 199.125 c 6
 48.0625 201.938 l 5
 48.0625 521.438 l 5
 48.0625 524.25 l 6
 49.5479 633.762 137.676 721.89 247.188 723.375 c 4
EndSplineSet
Validated: 1
EndChar

StartChar: D
Encoding: 68 68 16
Width: 500
VWidth: 0
Flags: W
HStem: 0 85.5<133.562 314.353> 637.875 85.5<133.562 316.352>
VStem: 48.0625 85.5<85.5 637.875> 366.438 85.5<135.727 587.79>
LayerCount: 2
Fore
SplineSet
48.0625 723.375 m 5
 50.875 723.375 l 5
 250 723.375 l 5
 252.812 723.375 l 6
 362.324 721.89 450.452 633.762 451.938 524.25 c 4
 451.946 523.31 451.938 522.378 451.938 521.438 c 6
 451.938 201.938 l 6
 451.938 201.006 451.946 200.057 451.938 199.125 c 4
 450.435 89.7363 360.839 0 250 0 c 6
 50.875 0 l 5
 48.0625 0 l 5
 48.0625 2.8125 l 5
 48.0625 79.875 l 5
 48.0625 82.6875 l 5
 48.0625 637.875 l 5
 48.0625 640.688 l 5
 48.0625 643.5 l 5
 48.0625 720.562 l 5
 48.0625 723.375 l 5
133.562 637.875 m 5
 133.562 85.5 l 5
 149.875 85.5 l 5
 250 85.5 l 6
 313.888 85.5 364.935 136.67 366.438 199.125 c 6
 366.438 201.938 l 5
 366.438 521.438 l 6
 366.438 522.378 366.464 523.318 366.438 524.25 c 4
 364.996 586.863 315.426 636.434 252.812 637.875 c 6
 250 637.875 l 5
 151 637.875 l 5
 133.562 637.875 l 5
EndSplineSet
Validated: 1
EndChar

StartChar: E
Encoding: 69 69 17
Width: 500
VWidth: 0
Flags: W
HStem: 0 85.5<133.562 451.938> 319.5 85.5<133.562 373.188> 637.875 85.5<133.562 451.938>
VStem: 48.0625 85.5<85.5 319.5 405 637.875>
LayerCount: 2
Fore
SplineSet
48.0625 723.375 m 5
 50.875 723.375 l 5
 127.938 723.375 l 5
 130.75 723.375 l 5
 133.562 723.375 l 5
 449.125 723.375 l 5
 451.938 723.375 l 5
 451.938 720.562 l 5
 451.938 640.688 l 5
 451.938 637.875 l 5
 449.125 637.875 l 5
 290.5 637.875 l 5
 133.562 637.875 l 5
 133.562 405 l 5
 370.375 405 l 5
 373.188 405 l 5
 373.188 402.188 l 5
 373.188 322.312 l 5
 373.188 319.5 l 5
 370.375 319.5 l 5
 250 319.5 l 5
 133.562 319.5 l 5
 133.562 85.5 l 5
 449.125 85.5 l 5
 451.938 85.5 l 5
 451.938 82.6875 l 5
 451.938 2.8125 l 5
 451.938 0 l 5
 449.125 0 l 5
 290.5 0 l 5
 130.75 0 l 5
 91.375 0 l 5
 50.875 0 l 5
 48.0625 0 l 5
 48.0625 2.8125 l 5
 48.0625 720.562 l 5
 48.0625 723.375 l 5
EndSplineSet
Validated: 1
EndChar

StartChar: F
Encoding: 70 70 18
Width: 500
VWidth: 0
Flags: W
HStem: 0 21G<47.5 133> 319.5 85.5<133 372.625> 637.875 85.5<133 452.5>
VStem: 47.5 85.5<0 319.5 405 637.875>
LayerCount: 2
Fore
SplineSet
47.5 723.375 m 5
 50.3125 723.375 l 5
 127.375 723.375 l 5
 130.188 723.375 l 5
 133 723.375 l 5
 449.688 723.375 l 5
 452.5 723.375 l 5
 452.5 720.562 l 5
 452.5 640.688 l 5
 452.5 637.875 l 5
 449.688 637.875 l 5
 289.938 637.875 l 5
 133 637.875 l 5
 133 405 l 5
 369.812 405 l 5
 372.625 405 l 5
 372.625 402.188 l 5
 372.625 322.312 l 5
 372.625 319.5 l 5
 369.812 319.5 l 5
 249.438 319.5 l 5
 133 319.5 l 5
 133 2.8125 l 5
 133 0 l 5
 130.188 0 l 5
 90.8125 0 l 5
 50.3125 0 l 5
 47.5 0 l 5
 47.5 2.8125 l 5
 47.5 720.562 l 5
 47.5 723.375 l 5
EndSplineSet
Validated: 1
EndChar

StartChar: G
Encoding: 71 71 19
Width: 500
VWidth: 0
Flags: W
HStem: 0.1875 85.5<185.647 366.438> 319.688 85.5<206.688 366.438> 638.062 85.5<183.648 451.938>
VStem: 48.0625 84.375<135.674 587.513> 366.438 85.5<85.6875 319.688>
LayerCount: 2
Fore
SplineSet
247.188 723.562 m 5
 250 723.562 l 5
 449.125 723.562 l 5
 451.938 723.562 l 5
 451.938 720.75 l 5
 451.938 640.875 l 5
 451.938 638.062 l 5
 449.125 638.062 l 5
 349 638.062 l 5
 250 638.062 l 5
 247.188 638.062 l 6
 184.548 636.621 133.905 587.024 132.438 524.438 c 6
 132.438 521.625 l 5
 132.438 202.125 l 6
 132.438 138.422 185.154 85.6875 250 85.6875 c 6
 349 85.6875 l 5
 366.438 85.6875 l 5
 366.438 319.688 l 5
 329.875 319.688 l 5
 209.5 319.688 l 5
 206.688 319.688 l 5
 206.688 322.5 l 5
 206.688 402.375 l 5
 206.688 405.188 l 5
 209.5 405.188 l 5
 366.438 405.188 l 5
 449.125 405.188 l 5
 451.938 405.188 l 5
 451.938 402.375 l 5
 451.938 322.5 l 5
 451.938 319.688 l 5
 451.938 85.6875 l 5
 451.938 82.875 l 5
 451.938 3 l 5
 451.938 0.1875 l 5
 449.125 0.1875 l 5
 250 0.1875 l 6
 139.161 0.1875 49.5654 89.9238 48.0625 199.312 c 6
 48.0625 202.125 l 5
 48.0625 521.625 l 5
 48.0625 524.438 l 6
 49.5479 633.949 137.676 722.077 247.188 723.562 c 5
EndSplineSet
Validated: 1
EndChar

StartChar: H
Encoding: 72 72 20
Width: 500
VWidth: 0
Flags: W
HStem: 0 21G<48.0625 132.438 366.438 451.938> 319.5 85.5<132.438 366.438> 703.375 20G<48.0625 132.438 366.438 451.938> 703.375 20G<48.0625 132.438 366.438 451.938>
VStem: 48.0625 84.375<0 319.5 405 723.375> 366.438 85.5<0 319.5 405 723.375>
LayerCount: 2
Fore
SplineSet
48.0625 723.375 m 5xec
 50.875 723.375 l 5
 129.625 723.375 l 5
 132.438 723.375 l 5
 132.438 720.562 l 5
 132.438 405 l 5
 366.438 405 l 5
 366.438 720.562 l 5
 366.438 723.375 l 5
 369.25 723.375 l 5
 449.125 723.375 l 5
 451.938 723.375 l 5
 451.938 720.562 l 6
 451.938 481.315 451.938 242.06 451.938 2.8125 c 6
 451.938 0 l 5
 449.125 0 l 5
 408.625 0 l 5
 369.25 0 l 5
 366.438 0 l 5
 366.438 2.8125 l 5
 366.438 319.5 l 5
 289.375 319.5 l 5
 132.438 319.5 l 5
 132.438 2.8125 l 5
 132.438 0 l 5
 129.625 0 l 5
 90.25 0 l 5
 50.875 0 l 5
 48.0625 0 l 5
 48.0625 2.8125 l 5
 48.0625 720.562 l 5
 48.0625 723.375 l 5xec
EndSplineSet
Validated: 1
EndChar

StartChar: m
Encoding: 109 109 21
Width: 825
VWidth: 0
Flags: W
HStem: 0 21G<50.8125 136.312 370.312 455.812 688.688 774.188> 399.375 84.375<185.741 320.449 505.591 637.821>
VStem: 50.8125 85.4995<0 349.832 446.344 483.75> 370.312 85.5<0 348.866> 688.688 85.5<0 348.675>
LayerCount: 2
Fore
SplineSet
50.8125 483.75 m 5
 53.625 483.75 l 5
 133.5 483.75 l 5
 136.312 483.75 l 5
 136.312 480.938 l 5
 136.312 446.344 l 5
 169.588 469.951 210.079 483.75 253.875 483.75 c 4
 318.053 483.75 375.7 453.48 412.781 406.125 c 5
 449.66 453.48 507.422 483.75 572.25 483.75 c 4
 683.062 483.75 772.676 395.077 774.188 284.625 c 4
 774.196 283.685 774.188 282.753 774.188 281.812 c 6
 774.188 2.8125 l 5
 774.188 0 l 5
 771.375 0 l 5
 732 0 l 5
 691.5 0 l 5
 688.688 0 l 5
 688.688 2.8125 l 5
 688.688 281.812 l 6
 688.688 282.779 688.705 283.667 688.688 284.625 c 4
 687.176 348.188 636.138 399.375 572.25 399.375 c 4
 508.362 399.375 457.307 348.188 455.812 284.625 c 4
 455.821 283.685 455.812 282.753 455.812 281.812 c 6
 455.812 2.8125 l 5
 455.812 0 l 5
 453 0 l 5
 412.5 0 l 5
 373.125 0 l 5
 370.312 0 l 5
 370.312 2.8125 l 5
 370.312 281.812 l 6
 370.312 346.658 317.569 399.375 253.875 399.375 c 4
 189.029 399.375 136.312 346.658 136.312 281.812 c 6
 136.312 2.8125 l 5
 136.312 0 l 5
 133.5 0 l 5
 94.125 0 l 5
 53.625 0 l 5
 50.8125 0 l 5
 50.8125 2.8125 l 5
 50.8125 480.938 l 5
 50.8125 483.75 l 5
EndSplineSet
Validated: 1
EndChar

StartChar: x
Encoding: 120 120 22
Width: 425
VWidth: 0
Flags: W
HStem: 0.3125 21G<53.3125 133.188 291.812 371.688> 464.062 20G<53.3125 133.188 133.188 145.963 279.037 291.812 291.812 371.688>
VStem: 53.3125 318.375
LayerCount: 2
Fore
SplineSet
53.3125 484.062 m 5
 133.188 484.062 l 5
 133.188 481.25 l 5
 136 482.656 l 5
 212.5 329.094 l 5
 289 482.656 l 5
 291.812 481.25 l 5
 291.812 484.062 l 5
 371.688 484.062 l 5
 371.688 481.531 l 5
 374.219 480.125 l 5
 255.812 242.469 l 5
 374.219 4.53125 l 5
 371.688 3.125 l 5
 371.688 0.3125 l 5
 291.812 0.3125 l 5
 291.812 3.40625 l 5
 289 2 l 5
 212.5 155.562 l 5
 136 2 l 5
 133.188 3.40625 l 5
 133.188 0.3125 l 5
 53.3125 0.3125 l 5
 53.3125 3.125 l 5
 50.7812 4.53125 l 5
 169.188 242.188 l 5
 50.7812 480.125 l 5
 53.3125 481.531 l 5
 53.3125 484.062 l 5
EndSplineSet
Validated: 1
EndChar

StartChar: y
Encoding: 121 121 23
Width: 500
VWidth: 0
Flags: W
HStem: 464.188 20G<50.875 130.75 130.75 143.055 359.338 370.375 370.375 449.125>
LayerCount: 2
Fore
SplineSet
50.875 484.188 m 5
 130.75 484.188 l 5
 130.75 481.656 l 5
 133 482.781 l 5
 262.094 226 l 5
 367.562 482.5 l 5
 370.375 481.375 l 5
 370.375 484.188 l 5
 449.125 484.188 l 5
 449.125 481.375 l 5
 451.656 480.25 l 5
 172.938 -197 l 5
 170.125 -195.875 l 5
 170.125 -198.688 l 5
 91.375 -198.688 l 5
 91.375 -195.875 l 5
 88.8438 -194.75 l 5
 223 130.938 l 5
 48.3438 480.25 l 5
 50.875 481.375 l 5
 50.875 484.188 l 5
EndSplineSet
Validated: 1
EndChar

StartChar: X
Encoding: 88 88 24
Width: 500
VWidth: 0
Flags: W
HStem: 0.3125 21G<50.1719 130.047 369.672 449.547> 702.562 20G<50.1719 130.047 369.672 449.547> 702.562 20G<50.1719 130.047 369.672 449.547>
LayerCount: 2
Fore
SplineSet
50.1719 722.562 m 5xc0
 130.047 722.562 l 5
 130.047 719.75 l 5
 132.578 720.875 l 5
 249.859 457.906 l 5
 367.141 720.875 l 5
 369.672 719.75 l 5
 369.672 722.562 l 5
 449.547 722.562 l 5
 449.547 719.75 l 5
 452.359 718.625 l 5
 292.891 361.438 l 5
 452.359 4.25 l 5
 449.547 3.125 l 5
 449.547 0.3125 l 5
 369.672 0.3125 l 5
 369.672 3.125 l 5
 367.141 2 l 5
 249.859 264.969 l 5
 132.578 2 l 5
 130.047 3.125 l 5
 130.047 0.3125 l 5
 50.1719 0.3125 l 5
 50.1719 3.125 l 5
 47.6406 4.25 l 5
 206.828 361.438 l 5
 47.6406 718.625 l 5
 50.1719 719.75 l 5
 50.1719 722.562 l 5xc0
EndSplineSet
Validated: 1
EndChar

StartChar: Y
Encoding: 89 89 25
Width: 500
VWidth: 0
Flags: W
HStem: 0 21G<206.688 292.188> 702.25 20G<50.875 129.625 369.25 449.125>
VStem: 206.688 85.5<0 359.438>
LayerCount: 2
Fore
SplineSet
50.875 722.25 m 5
 129.625 722.25 l 5
 129.625 719.438 l 5
 132.156 720.562 l 5
 249.438 457.312 l 5
 366.719 720.562 l 5
 369.25 719.438 l 5
 369.25 722.25 l 5
 449.125 722.25 l 5
 449.125 719.438 l 5
 451.938 718.312 l 5
 292.188 360 l 5
 292.188 2.8125 l 5
 292.188 0 l 5
 289.375 0 l 5
 250 0 l 5
 209.5 0 l 5
 206.688 0 l 5
 206.688 2.8125 l 5
 206.688 359.438 l 5
 48.0625 718.312 l 5
 50.875 719.438 l 5
 50.875 722.25 l 5
EndSplineSet
Validated: 1
EndChar

StartChar: v
Encoding: 118 118 26
Width: 600
VWidth: 0
Flags: W
HStem: 0.3125 21G<259.922 339.797> 464.062 20G<60.7969 140.672 140.672 151.807 448.178 459.047 459.047 538.922>
LayerCount: 2
Fore
SplineSet
60.7969 484.062 m 5
 140.672 484.062 l 5
 140.672 481.25 l 5
 143.484 482.375 l 5
 299.859 106.625 l 5
 456.516 482.375 l 5
 459.047 481.25 l 5
 459.047 484.062 l 5
 538.922 484.062 l 5
 538.922 481.25 l 5
 541.734 480.125 l 5
 342.328 2 l 5
 339.797 3.125 l 5
 339.797 0.3125 l 5
 259.922 0.3125 l 5
 259.922 3.125 l 5
 257.109 2 l 5
 58.2656 480.125 l 5
 60.7969 481.25 l 5
 60.7969 484.062 l 5
EndSplineSet
Validated: 1
EndChar

StartChar: Z
Encoding: 90 90 27
Width: 500
VWidth: 0
Flags: W
HStem: 0.1875 84.375<170.125 451.938> 636.938 85.5<48.0625 329.312>
LayerCount: 2
Fore
SplineSet
48.0625 722.438 m 5
 50.875 722.438 l 6
 183.625 722.438 316.375 722.438 449.125 722.438 c 5
 449.125 719.625 l 5
 451.938 718.5 l 5
 170.125 84.5625 l 5
 449.125 84.5625 l 5
 451.938 84.5625 l 5
 451.938 81.75 l 5
 451.938 3 l 5
 451.938 0.1875 l 5
 449.125 0.1875 l 6
 316.375 0.1875 183.625 0.1875 50.875 0.1875 c 5
 50.875 3 l 5
 48.0625 4.125 l 5
 329.312 636.938 l 5
 210.625 636.938 l 5
 50.875 636.938 l 5
 48.0625 636.938 l 5
 48.0625 639.75 l 5
 48.0625 719.625 l 5
 48.0625 722.438 l 5
EndSplineSet
Validated: 1
EndChar

StartChar: K
Encoding: 75 75 28
Width: 500
VWidth: 0
Flags: W
HStem: 0 21G<48.0625 133.562 369.25 449.125> 702.25 20G<48.0625 133.562 369.25 449.125>
VStem: 48.0625 85.5<0 2.25 196.312 722.25>
LayerCount: 2
Fore
SplineSet
48.0625 722.25 m 1
 50.875 722.25 l 1
 130.75 722.25 l 1
 133.562 722.25 l 1
 133.562 719.438 l 1
 133.562 196.312 l 1
 366.719 720.562 l 1
 369.25 719.438 l 1
 369.25 722.25 l 1
 449.125 722.25 l 1
 449.125 719.438 l 1
 451.938 718.312 l 1
 292.75 360 l 1
 451.938 3.9375 l 1
 449.125 2.8125 l 1
 449.125 0 l 1
 369.25 0 l 1
 369.25 2.8125 l 1
 366.719 1.6875 l 1
 249.719 263.25 l 1
 133.562 2.25 l 1
 133.562 0 l 1
 130.75 0 l 1
 90.25 0 l 1
 50.875 0 l 1
 48.0625 0 l 1
 48.0625 2.8125 l 1
 48.0625 719.438 l 1
 48.0625 722.25 l 1
EndSplineSet
Validated: 1
EndChar

StartChar: O
Encoding: 79 79 29
Width: 500
VWidth: 0
Flags: W
HStem: 0 84.375<184.258 316.183> 636.75 85.5<183.687 314.858>
VStem: 48.0625 85.5<135.075 586.979> 367.562 84.375<135.075 585.171>
LayerCount: 2
Fore
SplineSet
239.594 722.25 m 4
 243.039 722.426 246.511 722.25 250 722.25 c 4
 361.762 722.25 451.938 632.074 451.938 520.312 c 6
 451.938 201.938 l 6
 451.938 200.997 451.946 200.065 451.938 199.125 c 4
 450.435 88.6729 360.821 0 250 0 c 4
 139.179 0 49.5654 88.6729 48.0625 199.125 c 6
 48.0625 201.938 l 5
 48.0625 520.312 l 6
 48.0625 628.585 132.701 716.845 239.594 722.25 c 4
250 636.75 m 4
 187.22 636.75 135.092 586.617 133.562 523.125 c 6
 133.562 520.312 l 5
 133.562 201.938 l 6
 133.562 137.092 186.306 84.375 250 84.375 c 4
 314.846 84.375 367.562 137.092 367.562 201.938 c 6
 367.562 520.312 l 6
 367.562 585.158 314.881 636.75 250 636.75 c 4
EndSplineSet
Validated: 1
EndChar

StartChar: Q
Encoding: 81 81 30
Width: 500
VWidth: 0
Flags: W
HStem: 0 84.375<183.909 316.757> 636.75 85.5<183.124 313.901>
VStem: 47.5 85.5<135.068 585.307> 367 85.5<0 1.6875 197.89 587.182>
LayerCount: 2
Fore
SplineSet
239.031 722.25 m 4
 242.45 722.426 245.983 722.25 249.438 722.25 c 4
 360.259 722.25 450.971 633.595 452.5 523.125 c 6
 452.5 520.312 l 5
 452.5 201.938 l 6
 452.5 158.66 438.938 118.635 415.656 85.7812 c 5
 452.219 3.9375 l 5
 449.688 2.8125 l 5
 449.688 0 l 5
 369.812 0 l 5
 369.812 2.8125 l 5
 367.281 1.6875 l 5
 354.906 29.5312 l 5
 324.109 10.8457 287.995 0 249.438 0 c 4
 139.715 0 49.0205 88.6553 47.5 199.125 c 6
 47.5 201.938 l 5
 47.5 520.312 l 5
 47.5 523.125 l 6
 48.9766 630.114 134.011 716.889 239.031 722.25 c 4
249.438 636.75 m 4
 186.657 636.75 134.529 586.617 133 523.125 c 6
 133 520.312 l 5
 133 201.938 l 6
 133 137.092 185.743 84.375 249.438 84.375 c 4
 275.849 84.375 300.133 93.208 319.75 108 c 5
 207.531 359.438 l 5
 210.062 360.562 l 5
 210.062 363.375 l 5
 289.938 363.375 l 5
 289.938 360.562 l 5
 292.75 361.688 l 5
 366.719 196.031 l 6
 366.824 198.026 367 199.916 367 201.938 c 6
 367 520.312 l 6
 367 585.158 314.318 636.75 249.438 636.75 c 4
EndSplineSet
Validated: 1
EndChar

StartChar: N
Encoding: 78 78 31
Width: 500
VWidth: 0
Flags: W
HStem: 0 21G<48.0625 132.438 366.438 451.938> 702.25 20G<48.0625 132.438 366.438 451.938>
VStem: 48.0625 84.375<0 528.469 720 722.25> 366.438 85.5<0 2.25 195.188 722.25>
LayerCount: 2
Fore
SplineSet
48.0625 722.25 m 1
 50.875 722.25 l 1
 129.625 722.25 l 1
 132.438 722.25 l 1
 132.438 720 l 1
 366.438 195.188 l 1
 366.438 719.438 l 1
 366.438 722.25 l 1
 369.25 722.25 l 1
 449.125 722.25 l 1
 451.938 722.25 l 1
 451.938 719.438 l 1
 451.938 2.8125 l 1
 451.938 0 l 1
 449.125 0 l 1
 408.625 0 l 1
 369.25 0 l 1
 366.438 0 l 1
 366.438 2.25 l 1
 132.438 528.469 l 1
 132.438 2.8125 l 1
 132.438 0 l 1
 129.625 0 l 1
 90.25 0 l 1
 50.875 0 l 1
 48.0625 0 l 1
 48.0625 2.8125 l 1
 48.0625 719.438 l 1
 48.0625 722.25 l 1
EndSplineSet
Validated: 1
EndChar

StartChar: M
Encoding: 77 77 32
Width: 825
VWidth: 0
Flags: W
HStem: 0.75 21G<54.3281 133.078 372.703 452.578 692.203 770.953> 704.125 20G<212.953 292.828 532.453 612.328> 704.125 20G<205.992 212.953 212.953 292.828 292.828 299.822 525.189 532.453 532.453 612.328 612.328 619.555>
VStem: 692.203 78.75<0.75 24.9835>
LayerCount: 2
Fore
SplineSet
212.953 724.125 m 5xd0
 292.828 724.125 l 5
 292.828 721.312 l 5
 295.359 721.875 l 5
 412.641 196.219 l 5
 529.641 721.875 l 5
 532.453 721.312 l 5
 532.453 724.125 l 5
 612.328 724.125 l 5
 612.328 721.312 l 5
 615.141 721.875 l 5
 773.484 4.40625 l 5
 770.953 3.84375 l 5
 770.953 0.75 l 5
 692.203 0.75 l 5
 692.203 3.84375 l 5
 689.391 3 l 5
 572.391 528.656 l 5
 455.391 3 l 5
 452.578 3.5625 l 5
 452.578 0.75 l 5
 372.703 0.75 l 5
 372.703 3.5625 l 5
 369.891 3 l 5
 252.891 529.5 l 5
 135.891 3 l 5
 133.078 3.5625 l 5
 133.078 0.75 l 5
 54.3281 0.75 l 5
 54.3281 3.5625 l 5
 51.5156 4.40625 l 5
 210.422 721.875 l 5
 212.953 721.312 l 5
 212.953 724.125 l 5xd0
EndSplineSet
Validated: 1
EndChar

StartChar: R
Encoding: 82 82 33
Width: 500
VWidth: 0
Flags: W
HStem: 0 21G<47.5 133 369.812 449.688> 238.5 85.5<133 223.281> 636.75 85.5<170.125 287.529>
VStem: 47.5 85.5<0 238.5 324 527.062> 369.812 79.875<0 1.6875 407.645 553.967>
LayerCount: 2
Fore
SplineSet
47.5 722.25 m 5
 50.3125 722.25 l 5
 130.188 722.25 l 5
 210.062 722.25 l 6
 343.208 722.25 452.5 614.101 452.5 480.938 c 4
 452.5 391.729 404.327 314.007 332.969 271.969 c 5
 452.5 3.9375 l 5
 449.688 2.8125 l 5
 449.688 0 l 5
 369.812 0 l 5
 369.812 2.8125 l 5
 367.281 1.6875 l 5
 259.281 243.844 l 5
 243.373 240.548 226.92 238.5 210.062 238.5 c 6
 170.688 238.5 l 5
 133 238.5 l 5
 133 2.8125 l 5
 133 0 l 5
 130.188 0 l 5
 90.8125 0 l 5
 50.3125 0 l 5
 47.5 0 l 5
 47.5 2.8125 l 5
 47.5 719.438 l 5
 47.5 722.25 l 5
170.125 636.75 m 5
 297.531 351 l 5
 339.262 379.257 367 427.052 367 480.938 c 4
 367 567.149 296.301 636.75 210.062 636.75 c 6
 170.688 636.75 l 5
 170.125 636.75 l 5
133 527.062 m 5
 133 324 l 5
 210.062 324 l 6
 214.501 324 218.931 324.193 223.281 324.562 c 6
 133 527.062 l 5
EndSplineSet
Validated: 1
EndChar

StartChar: one
Encoding: 49 49 34
Width: 350
VWidth: 0
Flags: W
HStem: 0 21G<211.984 297.484> 703.375 20G<211.984 297.484> 703.375 20G<211.984 297.484>
VStem: 211.984 85.5<0 570.094 721.125 723.375>
LayerCount: 2
Fore
SplineSet
211.984 723.375 m 1xd0
 214.797 723.375 l 1
 294.672 723.375 l 1
 297.484 723.375 l 1
 297.484 720.562 l 1
 297.484 2.8125 l 1
 297.484 0 l 1
 294.672 0 l 1
 254.172 0 l 1
 214.797 0 l 1
 211.984 0 l 1
 211.984 2.8125 l 1
 211.984 570.094 l 1
 137.453 439.875 l 1
 134.922 441.281 l 1
 134.922 438.75 l 1
 55.0469 438.75 l 1
 55.0469 441.281 l 1
 52.5156 442.688 l 1
 211.984 721.125 l 1
 211.984 723.375 l 1xd0
EndSplineSet
Validated: 1
EndChar

StartChar: two
Encoding: 50 50 35
Width: 500
VWidth: 0
Flags: W
HStem: 0 85.5<184.469 452.5> 637.875 85.5<184.06 316.18>
VStem: 50.3125 79.8755<518.625 581.17> 367 85.5<522.562 585.874>
LayerCount: 2
Fore
SplineSet
451.938 519.75 m 1
 184.469 85.5 l 1
 449.688 85.5 l 1
 452.5 85.5 l 1
 452.5 82.6875 l 1
 452.5 2.8125 l 1
 452.5 0 l 1
 449.688 0 l 1
 289.938 0 l 1
 130.188 0 l 1
 127.375 0 l 1
 50.3125 0 l 1
 50.3125 2.8125 l 1
 47.7812 4.5 l 1
 367 522.562 l 1
 366.376 585.747 313.879 637.875 250.562 637.875 c 0
 185.717 637.875 133 585.132 133 521.438 c 1
 130.188 521.438 l 1
 130.188 518.625 l 1
 50.3125 518.625 l 1
 50.3125 521.438 l 1
 47.5 521.438 l 1
 47.5 632.109 138.783 723.375 250.562 723.375 c 0
 361.234 723.375 452.5 632.109 452.5 521.438 c 1
 451.938 519.75 l 1
EndSplineSet
Validated: 1
EndChar

StartChar: three
Encoding: 51 51 36
Width: 500
VWidth: 0
Flags: W
HStem: 0 85.5<183.994 316.435> 318.375 85.5<167.312 168.719 255.062 315.505> 637.875 85.5<88.5625 315.25>
VStem: 50.875 79.875<141.801 204.75> 367.492 84.446<135.689 269.801>
LayerCount: 2
Fore
SplineSet
88.5625 720.562 m 5
 88.5625 723.375 l 5
 91.375 723.375 l 5
 370.305 723.375 l 5
 373.117 723.375 l 5
 449.125 723.375 l 5
 449.125 720.562 l 5
 451.375 719.156 l 5
 255.062 403.875 l 5
 257.312 403.875 l 6
 365.655 399.762 451.938 311.247 451.938 201.938 c 4
 451.938 90.1758 361.762 0 250 0 c 4
 138.238 0 48.0625 90.1758 48.0625 201.938 c 5
 50.875 201.938 l 5
 50.875 204.75 l 5
 130.75 204.75 l 5
 130.75 201.938 l 5
 133.562 201.938 l 5
 133.562 137.092 186.271 85.5 250 85.5 c 4
 314.881 85.5 367.492 137.092 367.492 201.938 c 4
 367.492 266.792 314.881 318.375 250 318.375 c 6
 230.734 318.375 l 5
 170.125 318.375 l 5
 167.312 318.375 l 5
 167.312 321.188 l 5
 167.312 401.062 l 5
 167.312 403.875 l 5
 168.719 403.875 l 5
 315.25 637.875 l 5
 230.734 637.875 l 5
 91.375 637.875 l 5
 88.5625 637.875 l 5
 88.5625 640.758 l 5
 88.5625 720.562 l 5
EndSplineSet
Validated: 1
EndChar

StartChar: four
Encoding: 52 52 37
Width: 500
VWidth: 0
Flags: W
HStem: 0 21G<327.484 412.984> 238.5 85.5<126.672 327.484 412.984 491.734> 703.375 20G<327.484 412.984> 703.375 20G<327.484 412.984>
VStem: 327.484 85.5<0 238.5 324 723.375>
LayerCount: 2
Fore
SplineSet
327.484 723.375 m 1xe8
 330.297 723.375 l 1
 410.172 723.375 l 1
 412.984 723.375 l 1
 412.984 720.562 l 1
 412.984 324 l 1
 488.922 324 l 1
 491.734 324 l 1
 491.734 321.188 l 1
 491.734 241.312 l 1
 491.734 238.5 l 1
 488.922 238.5 l 1
 412.984 238.5 l 1
 412.984 2.8125 l 1
 412.984 0 l 1
 410.172 0 l 1
 369.672 0 l 1
 330.297 0 l 1
 327.484 0 l 1
 327.484 2.8125 l 1
 327.484 238.5 l 1
 289.797 238.5 l 1
 90.6719 238.5 l 1
 87.8594 238.5 l 1
 10.7969 238.5 l 1
 10.7969 241.312 l 1
 8.26562 242.438 l 1
 167.734 641.812 l 1
 170.547 640.688 l 1
 170.547 643.5 l 1
 250.422 643.5 l 1
 250.422 640.688 l 1
 252.953 639.562 l 1
 126.672 324 l 1
 327.484 324 l 1
 327.484 720.562 l 1
 327.484 723.375 l 1xe8
EndSplineSet
Validated: 1
EndChar

StartChar: five
Encoding: 53 53 38
Width: 500
VWidth: 0
Flags: W
HStem: 0 85.5<184.056 316.354> 318.375 85.5<173.5 316.773> 637.875 85.5<173.5 412>
VStem: 50.3125 79.875<141.794 204.75> 88 85.5<403.875 637.875> 367 85.5<135.686 267.51>
LayerCount: 2
Fore
SplineSet
88 723.375 m 5xec
 90.8125 723.375 l 5
 409.188 723.375 l 5
 412 723.375 l 5
 412 720.562 l 5
 412 640.688 l 5
 412 637.875 l 5
 409.188 637.875 l 5
 250.562 637.875 l 5
 173.5 637.875 l 5
 173.5 403.875 l 5xec
 250.562 403.875 l 5
 253.375 403.875 l 6
 362.729 402.337 452.5 312.75 452.5 201.938 c 4
 452.5 90.1582 361.217 0 250.562 0 c 4
 138.801 0 47.5 90.1582 47.5 201.938 c 5
 50.3125 201.938 l 5
 50.3125 204.75 l 5
 130.188 204.75 l 5
 130.188 201.938 l 5xf4
 133 201.938 l 5
 133 137.092 185.682 85.5 250.562 85.5 c 4
 314.292 85.5 367 137.092 367 201.938 c 4
 367 265.825 315.83 316.881 253.375 318.375 c 6
 250.562 318.375 l 5
 173.5 318.375 l 5xec
 170.688 318.375 l 5
 130.188 318.375 l 5xf4
 90.8125 318.375 l 5
 88 318.375 l 5
 88 321.188 l 5
 88 401.062 l 5
 88 403.875 l 5
 88 637.875 l 5
 88 640.688 l 5
 88 720.562 l 5
 88 723.375 l 5xec
EndSplineSet
Validated: 1
EndChar

StartChar: six
Encoding: 54 54 39
Width: 500
VWidth: 0
Flags: W
HStem: 0 85.5<184 316.256> 358.875 85.5<182.354 315.995> 637.875 85.5<184.422 316.252>
VStem: 48.0625 85.5<135.075 309.347 406.969 587.648> 366.438 85.5<137.079 308.303 518.625 585.867>
LayerCount: 2
Fore
SplineSet
250 723.375 m 4
 361.779 723.375 451.938 632.092 451.938 521.438 c 5
 449.125 521.438 l 5
 449.125 518.625 l 5
 369.25 518.625 l 5
 369.25 521.438 l 5
 366.438 521.438 l 5
 366.438 585.167 314.846 637.875 250 637.875 c 4
 186.112 637.875 135.065 586.705 133.562 524.25 c 6
 133.562 521.438 l 5
 133.562 406.969 l 5
 166.425 430.348 206.564 444.375 250 444.375 c 4
 360.839 444.375 450.426 354.595 451.938 244.125 c 6
 451.938 241.312 l 5
 451.938 201.938 l 6
 451.938 90.1758 361.762 0 250 0 c 4
 139.179 0 49.5654 88.6729 48.0625 199.125 c 6
 48.0625 201.938 l 5
 48.0625 521.438 l 5
 48.0625 524.25 l 6
 49.5654 633.639 139.161 723.375 250 723.375 c 4
250 358.875 m 4
 185.154 358.875 133.562 306.193 133.562 241.312 c 6
 133.562 201.938 l 6
 133.562 137.057 185.119 85.5 250 85.5 c 4
 314.881 85.5 366.438 137.057 366.438 201.938 c 6
 366.438 241.312 l 6
 366.438 306.193 314.846 358.875 250 358.875 c 4
EndSplineSet
Validated: 1
EndChar

StartChar: seven
Encoding: 55 55 40
Width: 500
VWidth: 0
Flags: W
HStem: 0.3125 21G<50.4531 130.328> 638.188 85.5<47.6406 329.734>
LayerCount: 2
Fore
SplineSet
47.6406 723.688 m 5
 50.4531 723.688 l 5
 369.953 723.688 l 5
 372.766 723.688 l 5
 449.828 723.688 l 5
 449.828 720.875 l 5
 452.359 719.75 l 5
 132.859 2 l 5
 130.328 3.125 l 5
 130.328 0.3125 l 5
 50.4531 0.3125 l 5
 50.4531 3.125 l 5
 47.6406 4.25 l 5
 329.734 638.188 l 5
 210.203 638.188 l 5
 50.4531 638.188 l 5
 47.6406 638.188 l 5
 47.6406 641 l 5
 47.6406 720.875 l 5
 47.6406 723.688 l 5
EndSplineSet
Validated: 1
EndChar

StartChar: eight
Encoding: 56 56 41
Width: 500
VWidth: 0
Flags: W
HStem: 0 85.5<184.056 316.354> 318.375 85.5<182.543 317.7> 637.875 85.5<184.06 316.35>
VStem: 47.5 85.5<135.686 269.041 454.117 587.225> 367 85.5<135.686 269.041 454.117 587.225>
LayerCount: 2
Fore
SplineSet
250.562 723.375 m 4
 361.234 723.375 452.5 632.109 452.5 521.438 c 4
 452.5 456.521 421.58 398.672 374.031 361.406 c 5
 421.615 324.545 452.5 266.88 452.5 201.938 c 4
 452.5 90.1582 361.217 0 250.562 0 c 4
 138.801 0 47.5 90.1582 47.5 201.938 c 4
 47.5 266.88 78.2793 324.545 125.969 361.406 c 5
 78.3145 398.672 47.5 456.521 47.5 521.438 c 4
 47.5 632.109 138.783 723.375 250.562 723.375 c 4
250.562 637.875 m 4
 185.717 637.875 133 585.132 133 521.438 c 4
 133 456.592 185.717 403.875 250.562 403.875 c 4
 314.257 403.875 367 456.592 367 521.438 c 4
 367 585.132 314.257 637.875 250.562 637.875 c 4
250.562 318.375 m 4
 185.682 318.375 133 266.783 133 201.938 c 4
 133 137.092 185.682 85.5 250.562 85.5 c 4
 314.292 85.5 367 137.092 367 201.938 c 4
 367 266.783 314.292 318.375 250.562 318.375 c 4
EndSplineSet
Validated: 1
EndChar

StartChar: nine
Encoding: 57 57 42
Width: 500
VWidth: 0
Flags: W
HStem: 0 85.5<183.553 315.585> 279 85.5<183.802 317.391> 637.875 85.5<184.236 315.745>
VStem: 48.0625 84.375<137.079 204.75 414.061 587.632> 366.438 85.5<137.079 315.844 413.299 587.889>
LayerCount: 2
Fore
SplineSet
250 723.375 m 0
 360.839 723.375 450.426 633.639 451.938 524.25 c 0
 451.946 523.318 451.938 522.369 451.938 521.438 c 2
 451.938 201.938 l 2
 451.938 90.1758 361.762 0 250 0 c 0
 138.238 0 48.0625 90.1758 48.0625 201.938 c 1
 50.875 201.938 l 1
 50.875 204.75 l 1
 129.625 204.75 l 1
 129.625 201.938 l 1
 132.438 201.938 l 1
 132.438 137.092 185.119 85.5 250 85.5 c 0
 312.78 85.5 364.899 135.633 366.438 199.125 c 2
 366.438 201.938 l 1
 366.438 315.844 l 1
 333.514 292.658 293.436 279 250 279 c 0
 139.152 279 49.5215 367.638 48.0625 478.125 c 2
 48.0625 480.938 l 1
 48.0625 521.438 l 1
 48.0625 524.25 l 2
 49.5654 633.639 139.161 723.375 250 723.375 c 0
250 637.875 m 0
 186.112 637.875 133.967 586.67 132.438 524.25 c 2
 132.438 521.438 l 1
 132.438 480.938 l 2
 132.438 416.092 185.119 364.5 250 364.5 c 0
 313.729 364.5 366.438 416.092 366.438 480.938 c 2
 366.438 521.438 l 2
 366.438 585.132 313.694 637.875 250 637.875 c 0
126.812 518.625 m 1
53.6875 518.625 m 1
EndSplineSet
Validated: 1
EndChar

StartChar: period
Encoding: 46 46 43
Width: 500
VWidth: 0
Flags: W
HStem: 0 79.875<180.914 318.671> 324 79.875<180.914 318.668>
VStem: 47.5 79.875<132.941 270.936> 372.625 79.875<132.941 270.936>
LayerCount: 2
Fore
SplineSet
249.438 403.875 m 4
 361.19 403.875 452.5 313.717 452.5 201.938 c 4
 452.5 90.1582 361.199 0 249.438 0 c 4
 138.783 0 47.5 90.1582 47.5 201.938 c 4
 47.5 313.717 138.783 403.875 249.438 403.875 c 4
249.438 324 m 4
 182.667 324 127.375 269.842 127.375 201.938 c 4
 127.375 134.042 182.667 79.875 249.438 79.875 c 4
 317.307 79.875 372.625 134.042 372.625 201.938 c 4
 372.625 269.842 317.298 324 249.438 324 c 4
EndSplineSet
Validated: 1
EndChar

StartChar: f
Encoding: 102 102 44
Width: 400
VWidth: 0
Flags: W
HStem: -0.1875 21G<57.6875 143.188> 278.812 85.5<143.188 302.938> 637.688 85.5<193.272 342.312>
VStem: 57.6875 85.5005<-0.1875 278.812 364.312 587.601>
LayerCount: 2
Fore
SplineSet
256.812 723.188 m 5
 259.625 723.188 l 5
 339.5 723.188 l 5
 342.312 723.188 l 5
 342.312 720.375 l 5
 342.312 640.5 l 5
 342.312 637.688 l 5
 339.5 637.688 l 5
 300.125 637.688 l 5
 259.625 637.688 l 5
 256.812 637.688 l 6
 195.28 636.211 144.664 586.623 143.188 524.062 c 6
 143.188 521.25 l 5
 143.188 364.312 l 5
 300.125 364.312 l 5
 302.938 364.312 l 5
 302.938 361.5 l 5
 302.938 281.625 l 5
 302.938 278.812 l 5
 300.125 278.812 l 5
 220.25 278.812 l 5
 143.188 278.812 l 5
 143.188 2.625 l 5
 143.188 -0.1875 l 5
 140.375 -0.1875 l 5
 101 -0.1875 l 5
 60.5 -0.1875 l 5
 57.6875 -0.1875 l 5
 57.6875 2.625 l 5
 57.6875 521.25 l 5
 57.6875 524.062 l 6
 59.1729 633.574 147.301 721.693 256.812 723.188 c 5
EndSplineSet
Validated: 1
EndChar

StartChar: degree
Encoding: 176 176 45
Width: 500
VWidth: 0
Flags: W
HStem: 0 79.875<180.914 318.671> 324 79.875<180.914 318.668>
VStem: 47.5 79.875<132.941 270.936> 372.625 79.875<132.941 270.936>
LayerCount: 2
Fore
SplineSet
249.438 403.875 m 4
 361.19 403.875 452.5 313.717 452.5 201.938 c 4
 452.5 90.1582 361.199 0 249.438 0 c 4
 138.783 0 47.5 90.1582 47.5 201.938 c 4
 47.5 313.717 138.783 403.875 249.438 403.875 c 4
249.438 324 m 4
 182.667 324 127.375 269.842 127.375 201.938 c 4
 127.375 134.042 182.667 79.875 249.438 79.875 c 4
 317.307 79.875 372.625 134.042 372.625 201.938 c 4
 372.625 269.842 317.298 324 249.438 324 c 4
EndSplineSet
Validated: 1
EndChar

StartChar: a
Encoding: 97 97 46
Width: 500
VWidth: 0
Flags: W
HStem: 0 85.5<184.257 318.199> 399.375 84.375<182.864 318.022>
VStem: 48.0645 85.4995<135.486 346.8> 367.564 84.375<0 37.9688 134.8 349.832 446.344 483.75>
LayerCount: 2
Fore
SplineSet
250.002 399.375 m 4
 186.308 399.375 133.564 346.658 133.564 281.812 c 6
 133.564 201.938 l 6
 133.564 138.243 186.308 85.5 250.002 85.5 c 4
 314.848 85.5 367.564 138.243 367.564 201.938 c 6
 367.564 281.812 l 6
 367.564 346.658 314.848 399.375 250.002 399.375 c 4
239.596 483.75 m 4
 243.041 483.75 246.513 483.75 250.002 483.75 c 4
 293.886 483.75 334.518 470.039 367.564 446.344 c 5
 367.564 480.938 l 5
 367.564 483.75 l 5
 370.377 483.75 l 5
 449.127 483.75 l 5
 451.939 483.75 l 5
 451.939 480.938 l 5
 451.939 2.8125 l 5
 451.939 0 l 5
 449.127 0 l 5
 409.752 0 l 5
 370.377 0 l 5
 367.564 0 l 5
 367.564 2.8125 l 5
 367.564 37.9688 l 5
 334.518 14.2031 293.895 0 250.002 0 c 4
 139.163 0 49.5762 89.7363 48.0645 199.125 c 6
 48.0645 201.938 l 5
 48.0645 281.812 l 6
 48.0645 282.753 48.0557 283.685 48.0645 284.625 c 4
 49.5234 391.597 133.617 478.389 239.596 483.75 c 4
EndSplineSet
Validated: 1
EndChar

StartChar: b
Encoding: 98 98 47
Width: 500
VWidth: 0
Flags: W
HStem: 0 85.5<182.156 315.557> 399.375 84.375<182.158 315.976> 703.375 20G<47.5391 133.039>
VStem: 47.5391 85.4999<0 37.6875 134.8 349.832 446.625 723.375> 367.039 85.5<137.501 346.677>
LayerCount: 2
Fore
SplineSet
47.5391 723.375 m 5
 50.3516 723.375 l 5
 130.227 723.375 l 5
 133.039 723.375 l 5
 133.039 720.562 l 5
 133.039 446.625 l 5
 166.104 470.092 206.252 483.75 249.477 483.75 c 4
 361.238 483.75 452.539 393.592 452.539 281.812 c 6
 452.539 201.938 l 6
 452.539 91.2656 361.256 0 249.477 0 c 4
 206.243 0 166.104 14.1416 133.039 37.6875 c 5
 133.039 2.8125 l 5
 133.039 0 l 5
 130.227 0 l 5
 90.8516 0 l 5
 50.3516 0 l 5
 47.5391 0 l 5
 47.5391 2.8125 l 5
 47.5391 191.531 l 6
 47.3633 194.95 47.5391 198.475 47.5391 201.938 c 6
 47.5391 281.812 l 6
 47.5391 285.302 47.3633 288.773 47.5391 292.219 c 6
 47.5391 720.562 l 5
 47.5391 723.375 l 5
249.477 399.375 m 4
 185.782 399.375 133.039 346.658 133.039 281.812 c 6
 133.039 201.938 l 6
 133.039 138.243 185.782 85.5 249.477 85.5 c 4
 313.364 85.5 365.51 136.705 367.039 199.125 c 6
 367.039 201.938 l 5
 367.039 281.812 l 6
 367.039 346.658 314.322 399.375 249.477 399.375 c 4
EndSplineSet
Validated: 1
EndChar

StartChar: c
Encoding: 99 99 48
Width: 500
VWidth: 0
Flags: W
HStem: 0 85.5<183.814 315.787> 399.375 84.375<182.696 314.429>
VStem: 48.0625 84.3755<135.486 346.8> 369.25 79.875<142.205 204.75 279 341.956>
LayerCount: 2
Fore
SplineSet
239.594 483.75 m 4
 243.039 483.926 246.511 483.75 250 483.75 c 4
 360.654 483.75 451.938 393.592 451.938 281.812 c 5
 449.125 281.812 l 5
 449.125 279 l 5
 369.25 279 l 5
 369.25 281.812 l 5
 366.438 281.812 l 5
 366.438 346.658 313.694 399.375 250 399.375 c 4
 185.154 399.375 132.438 346.658 132.438 281.812 c 6
 132.438 201.938 l 6
 132.438 138.234 185.154 85.5 250 85.5 c 4
 313.694 85.5 366.438 138.234 366.438 201.938 c 5
 369.25 201.938 l 5
 369.25 204.75 l 5
 449.125 204.75 l 5
 449.125 201.938 l 5
 451.938 201.938 l 5
 451.938 91.2656 360.672 0 250 0 c 4
 139.161 0 49.5654 89.7363 48.0625 199.125 c 6
 48.0625 201.938 l 5
 48.0625 281.812 l 5
 48.0625 284.625 l 6
 49.5215 391.597 133.633 478.389 239.594 483.75 c 4
EndSplineSet
Validated: 1
EndChar

StartChar: d
Encoding: 100 100 49
Width: 500
VWidth: 0
Flags: W
HStem: -0.1875 85.5<184.422 317.648> 399.188 84.374<184.426 317.646> 703.188 20G<366.438 451.938>
VStem: 48.0625 85.4995<135.54 348.488> 366.438 85.5<-0.1875 37.2188 134.597 349.66 446.719 723.188>
LayerCount: 2
Fore
SplineSet
366.438 723.188 m 5
 369.25 723.188 l 5
 449.125 723.188 l 5
 451.938 723.188 l 5
 451.938 720.375 l 5
 451.938 281.625 l 5
 451.938 201.75 l 5
 451.938 2.625 l 5
 451.938 -0.1875 l 5
 449.125 -0.1875 l 5
 409.75 -0.1875 l 5
 369.25 -0.1875 l 5
 366.438 -0.1875 l 5
 366.438 2.625 l 5
 366.438 37.2188 l 5
 333.575 13.8926 293.444 -0.1875 250 -0.1875 c 4
 139.161 -0.1875 49.5654 89.5488 48.0625 198.938 c 6
 48.0625 201.75 l 5
 48.0625 281.625 l 5
 48.0625 284.438 l 6
 49.5654 394.89 139.179 483.562 250 483.562 c 4
 293.436 483.562 333.575 469.966 366.438 446.719 c 5
 366.438 720.375 l 5
 366.438 723.188 l 5
250 399.188 m 4
 186.112 399.188 135.065 348 133.562 284.438 c 6
 133.562 281.625 l 5
 133.562 201.75 l 5
 133.562 198.938 l 6
 135.065 136.482 186.112 85.3125 250 85.3125 c 4
 314.846 85.3125 366.438 138.021 366.438 201.75 c 6
 366.438 281.625 l 6
 366.438 346.506 314.846 399.188 250 399.188 c 4
EndSplineSet
Validated: 1
EndChar

StartChar: e
Encoding: 101 101 50
Width: 500
VWidth: 0
Flags: W
HStem: 0 85.5<184.135 451.938> 199.125 85.5<133.562 366.438> 399.375 84.375<183.197 314.858>
VStem: 48.0625 85.4995<135.996 199.125 284.625 346.8> 366.438 85.5<284.625 346.67>
LayerCount: 2
Fore
SplineSet
250 399.375 m 4
 186.112 399.375 135.065 348.188 133.562 284.625 c 5
 366.438 284.625 l 5
 364.935 348.188 313.888 399.375 250 399.375 c 4
239.594 483.75 m 4
 243.039 483.75 246.511 483.75 250 483.75 c 4
 361.762 483.75 451.938 393.574 451.938 281.812 c 6
 451.938 201.938 l 5
 451.938 199.125 l 5
 449.125 199.125 l 5
 250 199.125 l 5
 133.562 199.125 l 5
 135.039 137.593 184.631 87.123 247.188 85.5 c 4
 248.119 85.4756 249.06 85.5 250 85.5 c 6
 449.125 85.5 l 5
 451.938 85.5 l 5
 451.938 82.6875 l 5
 451.938 2.8125 l 5
 451.938 0 l 5
 449.125 0 l 5
 350.125 0 l 5
 250 0 l 6
 249.06 0 248.128 -0.00878906 247.188 0 c 4
 137.658 1.51172 49.5479 90.668 48.0625 199.125 c 6
 48.0625 201.938 l 5
 48.0625 281.812 l 5
 48.0625 284.625 l 6
 49.5215 391.597 133.633 478.389 239.594 483.75 c 4
EndSplineSet
Validated: 1
EndChar

StartChar: g
Encoding: 103 103 51
Width: 500
VWidth: 0
Flags: W
HStem: -200 85.5<183.558 315.583> 1 85.5<183.814 316.488> 400.375 84.375<182.826 315.838>
VStem: 48.0625 84.3755<-62.4921 4.75 136.486 349.85> 366.438 85.5<-62.4921 38.4062 135.8 350.832 447.906 484.75>
LayerCount: 2
Fore
SplineSet
239.594 484.75 m 0
 243.039 484.75 246.511 484.75 250 484.75 c 0
 293.436 484.75 333.575 471.153 366.438 447.906 c 1
 366.438 481.938 l 1
 366.438 484.75 l 1
 369.25 484.75 l 1
 408.625 484.75 l 1
 449.125 484.75 l 1
 451.938 484.75 l 1
 451.938 481.938 l 1
 451.938 1.9375 l 2
 451.938 -108.717 361.779 -200 250 -200 c 0
 138.221 -200 48.0625 -108.717 48.0625 1.9375 c 1
 50.875 1.9375 l 1
 50.875 4.75 l 1
 129.625 4.75 l 1
 129.625 1.9375 l 1
 132.438 1.9375 l 1
 132.438 -61.7568 185.154 -114.5 250 -114.5 c 0
 312.754 -114.5 364.908 -63.2949 366.438 -0.875 c 2
 366.438 1.9375 l 1
 366.438 38.4062 l 1
 333.575 15.0801 293.436 1 250 1 c 0
 139.161 1 49.5742 90.7363 48.0625 200.125 c 2
 48.0625 202.938 l 1
 48.0625 282.812 l 2
 48.0625 391.085 132.684 479.345 239.594 484.75 c 0
250 400.375 m 0
 186.112 400.375 133.976 349.152 132.438 285.625 c 2
 132.438 282.812 l 1
 132.438 202.938 l 2
 132.438 139.243 185.154 86.5 250 86.5 c 0
 313.694 86.5 366.438 139.243 366.438 202.938 c 2
 366.438 282.812 l 2
 366.438 347.658 313.694 400.375 250 400.375 c 0
EndSplineSet
Validated: 1
EndChar

StartChar: h
Encoding: 104 104 52
Width: 500
VWidth: 0
Flags: W
HStem: -0.1875 21G<48.1016 133.602 366.477 451.977> 399.188 84.374<182.406 315.597> 703.188 20G<48.1016 133.602>
VStem: 48.1016 85.5004<-0.1875 349.66 446.719 723.188> 366.477 85.5<-0.1875 348.488>
LayerCount: 2
Fore
SplineSet
48.1016 723.188 m 5
 50.9141 723.188 l 5
 130.789 723.188 l 5
 133.602 723.188 l 5
 133.602 720.375 l 5
 133.602 446.719 l 5
 166.525 469.966 206.604 483.562 250.039 483.562 c 4
 360.86 483.562 450.474 394.89 451.977 284.438 c 4
 451.985 283.497 451.977 282.565 451.977 281.625 c 6
 451.977 2.625 l 5
 451.977 -0.1875 l 5
 449.164 -0.1875 l 5
 409.789 -0.1875 l 5
 369.289 -0.1875 l 5
 366.477 -0.1875 l 5
 366.477 2.625 l 5
 366.477 281.625 l 6
 366.477 282.592 366.501 283.479 366.477 284.438 c 4
 364.855 347.996 313.927 399.188 250.039 399.188 c 4
 185.193 399.188 133.602 346.506 133.602 281.625 c 6
 133.602 2.625 l 5
 133.602 -0.1875 l 5
 130.789 -0.1875 l 5
 90.2891 -0.1875 l 5
 50.9141 -0.1875 l 5
 48.1016 -0.1875 l 5
 48.1016 2.625 l 5
 48.1016 281.625 l 6
 48.1016 285.114 47.9258 288.586 48.1016 292.031 c 6
 48.1016 720.375 l 5
 48.1016 723.188 l 5
EndSplineSet
Validated: 1
EndChar

StartChar: i
Encoding: 105 105 53
Width: 200
VWidth: 0
Flags: W
HStem: 0 21G<57.25 142.75> 463.75 20G<57.25 142.75> 558 85.5<57.25 142.75>
VStem: 57.25 85.5<0 483.75 558 643.5>
LayerCount: 2
Fore
SplineSet
57.25 483.75 m 5
 60.0625 483.75 l 5
 139.938 483.75 l 5
 142.75 483.75 l 5
 142.75 480.938 l 5
 142.75 2.8125 l 5
 142.75 0 l 5
 139.938 0 l 5
 99.4375 0 l 5
 60.0625 0 l 5
 57.25 0 l 5
 57.25 2.8125 l 5
 57.25 480.938 l 5
 57.25 483.75 l 5
57.25 643.5 m 5
 60.0625 643.5 l 5
 139.938 643.5 l 5
 142.75 643.5 l 5
 142.75 640.688 l 5
 142.75 560.812 l 5
 142.75 558 l 5
 139.938 558 l 5
 99.4375 558 l 5
 60.0625 558 l 5
 57.25 558 l 5
 57.25 560.812 l 5
 57.25 640.688 l 5
 57.25 643.5 l 5
EndSplineSet
Validated: 1
EndChar

StartChar: j
Encoding: 106 106 54
Width: 300
VWidth: 0
Flags: W
HStem: -274.188 79.876<47.0625 110.122> 560 85.5<167.438 252.938>
VStem: 167.438 85.5<-139.499 485.75 560 645.5>
LayerCount: 2
Fore
SplineSet
167.438 485.75 m 1
 170.25 485.75 l 1
 209.625 485.75 l 1
 250.125 485.75 l 1
 252.938 485.75 l 1
 252.938 482.938 l 1
 252.938 -75.0625 l 2
 252.938 -185.734 161.654 -277 49.875 -277 c 1
 49.875 -274.188 l 1
 47.0625 -274.188 l 1
 47.0625 -194.312 l 1
 49.875 -194.312 l 1
 49.875 -191.5 l 1
 113.763 -191.5 165.899 -140.295 167.438 -77.875 c 2
 167.438 -75.0625 l 1
 167.438 482.938 l 1
 167.438 485.75 l 1
167.438 645.5 m 1
 170.25 645.5 l 1
 250.125 645.5 l 1
 252.938 645.5 l 1
 252.938 642.688 l 1
 252.938 562.812 l 1
 252.938 560 l 1
 250.125 560 l 1
 209.625 560 l 1
 170.25 560 l 1
 167.438 560 l 1
 167.438 562.812 l 1
 167.438 642.688 l 1
 167.438 645.5 l 1
EndSplineSet
Validated: 1
EndChar

StartChar: l
Encoding: 108 108 55
Width: 200
VWidth: 0
Flags: W
HStem: -0.1875 21G<57.25 142.75> 703.188 20G<57.25 142.75>
VStem: 57.25 85.5<-0.1875 723.188>
LayerCount: 2
Fore
SplineSet
57.25 723.188 m 5
 60.0625 723.188 l 5
 139.938 723.188 l 5
 142.75 723.188 l 5
 142.75 720.375 l 5
 142.75 2.625 l 5
 142.75 -0.1875 l 5
 139.938 -0.1875 l 5
 99.4375 -0.1875 l 5
 60.0625 -0.1875 l 5
 57.25 -0.1875 l 5
 57.25 2.625 l 5
 57.25 720.375 l 5
 57.25 723.188 l 5
EndSplineSet
Validated: 1
EndChar

StartChar: o
Encoding: 111 111 56
Width: 500
VWidth: 0
Flags: W
HStem: 0 85.5<183.911 315.248> 398.25 85.5<183.646 315.944>
VStem: 47.5 85.5<135.068 346.677> 367 85.5<135.751 346.677>
LayerCount: 2
Fore
SplineSet
249.438 398.25 m 0
 185.708 398.25 133 346.658 133 281.812 c 2
 133 201.938 l 2
 133 138.243 185.743 85.5 249.438 85.5 c 0
 313.299 85.5 365.436 136.723 367 199.125 c 2
 367 201.938 l 1
 367 281.812 l 2
 367 346.658 314.318 398.25 249.438 398.25 c 0
249.438 483.75 m 0
 361.199 483.75 452.5 393.592 452.5 281.812 c 2
 452.5 201.938 l 2
 452.5 200.997 452.509 200.065 452.5 199.125 c 0
 450.979 88.6553 360.259 0 249.438 0 c 0
 139.724 0 49.0293 88.6553 47.5 199.125 c 2
 47.5 201.938 l 1
 47.5 281.812 l 2
 47.5 393.592 138.783 483.75 249.438 483.75 c 0
EndSplineSet
Validated: 1
EndChar

StartChar: p
Encoding: 112 112 57
Width: 500
VWidth: 0
Flags: W
HStem: -200.5 21G<48.0625 132.438> 0 85.5<181.805 315.355> 398.25 85.5<181.797 315.791>
VStem: 48.0625 84.3755<-200.5 37.4062 134.8 349.451 446.344 483.75> 366.438 85.5<137.073 346.677>
LayerCount: 2
Fore
SplineSet
250 398.25 m 0
 185.119 398.25 132.438 346.658 132.438 281.812 c 2
 132.438 201.938 l 2
 132.438 138.243 185.154 85.5 250 85.5 c 0
 312.728 85.5 364.873 136.723 366.438 199.125 c 2
 366.438 201.938 l 1
 366.438 281.812 l 2
 366.438 346.658 313.729 398.25 250 398.25 c 0
48.0625 483.75 m 1
 50.875 483.75 l 1
 90.25 483.75 l 1
 129.625 483.75 l 1
 132.438 483.75 l 1
 132.438 480.938 l 1
 132.438 446.344 l 1
 165.484 469.969 206.116 483.75 250 483.75 c 0
 360.654 483.75 451.938 393.592 451.938 281.812 c 2
 451.938 201.938 l 2
 451.938 90.1582 360.654 0 250 0 c 0
 206.116 0 165.484 13.7109 132.438 37.4062 c 1
 132.438 -197.688 l 5
 132.438 -200.5 l 5
 129.625 -200.5 l 5
 50.875 -200.5 l 5
 48.0625 -200.5 l 5
 48.0625 -197.688 l 5
 48.0625 201.938 l 1
 48.0625 281.812 l 1
 48.0625 480.938 l 1
 48.0625 483.75 l 1
EndSplineSet
Validated: 1
EndChar

StartChar: q
Encoding: 113 113 58
Width: 500
VWidth: 0
Flags: W
HStem: -199.5 21G<366.438 451.938> 0 85.5<184.008 317.646> 398.25 85.5<184.153 317.654>
VStem: 48.0625 85.4995<135.075 346.67> 366.438 85.5<-199.5 36.8438 134.785 349.466 446.906 483.75>
LayerCount: 2
Fore
SplineSet
250 398.25 m 0
 186.06 398.25 135.03 348.17 133.562 284.625 c 2
 133.562 281.812 l 1
 133.562 201.938 l 2
 133.562 138.208 185.154 85.5 250 85.5 c 0
 314.846 85.5 366.438 138.208 366.438 201.938 c 2
 366.438 281.812 l 2
 366.438 346.693 314.881 398.25 250 398.25 c 0
250 483.75 m 0
 293.436 483.75 333.575 470.092 366.438 446.906 c 1
 366.438 480.938 l 1
 366.438 483.75 l 1
 369.25 483.75 l 1
 409.75 483.75 l 1
 449.125 483.75 l 1
 451.938 483.75 l 1
 451.938 480.938 l 1
 451.938 281.812 l 1
 451.938 201.938 l 1
 451.938 -196.688 l 5
 451.938 -199.5 l 5
 449.125 -199.5 l 5
 369.25 -199.5 l 5
 366.438 -199.5 l 5
 366.438 -196.688 l 5
 366.438 36.8438 l 1
 333.575 13.5967 293.436 0 250 0 c 0
 139.179 0 49.5654 88.6729 48.0625 199.125 c 2
 48.0625 201.938 l 1
 48.0625 281.812 l 2
 48.0625 393.574 138.238 483.75 250 483.75 c 0
EndSplineSet
Validated: 1
EndChar

StartChar: s
Encoding: 115 115 59
Width: 500
VWidth: 0
Flags: W
HStem: 0 85.5<47.5 315.646> 199.125 85.5<133.281 367> 398.25 85.5<183 452.5>
VStem: 47.5 85.781<284.625 346.15> 367 85.5<137.586 199.125>
CounterMasks: 1 e0
LayerCount: 2
Fore
SplineSet
246.625 483.75 m 5
 249.438 483.75 l 5
 449.688 483.75 l 5
 452.5 483.75 l 5
 452.5 480.938 l 5
 452.5 401.062 l 5
 452.5 398.25 l 5
 449.688 398.25 l 5
 349.562 398.25 l 5
 249.438 398.25 l 5
 246.625 398.25 l 6
 185.102 396.773 134.758 347.186 133.281 284.625 c 5
 449.688 284.625 l 5
 452.5 284.625 l 5
 452.5 281.812 l 5
 452.5 201.938 l 6
 452.5 91.0986 362.72 1.51172 252.25 0 c 4
 251.31 -0.00878906 250.378 0 249.438 0 c 6
 150.438 0 l 5
 50.3125 0 l 5
 47.5 0 l 5
 47.5 2.8125 l 5
 47.5 82.6875 l 5
 47.5 85.5 l 5
 50.3125 85.5 l 5
 249.438 85.5 l 6
 250.378 85.5 251.318 85.4756 252.25 85.5 c 4
 314.815 87.1328 365.462 137.646 367 199.125 c 5
 249.438 199.125 l 5
 50.3125 199.125 l 5
 47.5 199.125 l 5
 47.5 201.938 l 5
 47.5 281.812 l 6
 47.5 392.625 137.271 482.203 246.625 483.75 c 5
EndSplineSet
Validated: 1
EndChar

StartChar: t
Encoding: 116 116 60
Width: 400
VWidth: 0
Flags: W
HStem: 0.1875 85.5<194.273 342.312> 398.438 85.5<143.188 302.938> 703.562 20G<57.6875 143.188>
VStem: 57.6875 85.5005<135.849 398.438 483.938 723.562>
LayerCount: 2
Fore
SplineSet
57.6875 723.562 m 5
 60.5 723.562 l 5
 101 723.562 l 5
 140.375 723.562 l 5
 143.188 723.562 l 5
 143.188 720.75 l 5
 143.188 483.938 l 5
 220.25 483.938 l 5
 300.125 483.938 l 5
 302.938 483.938 l 5
 302.938 481.125 l 5
 302.938 401.25 l 5
 302.938 398.438 l 5
 300.125 398.438 l 5
 143.188 398.438 l 5
 143.188 202.125 l 6
 143.188 139.354 194.388 87.3379 257.938 85.6875 c 4
 258.869 85.6631 259.81 85.6875 260.75 85.6875 c 6
 300.125 85.6875 l 5
 339.5 85.6875 l 5
 342.312 85.6875 l 5
 342.312 82.875 l 5
 342.312 3 l 5
 342.312 0.1875 l 5
 339.5 0.1875 l 5
 260.75 0.1875 l 6
 259.81 0.1875 258.878 0.178711 257.938 0.1875 c 4
 148.408 1.68164 59.1992 89.7832 57.6875 199.312 c 6
 57.6875 202.125 l 5
 57.6875 720.75 l 5
 57.6875 723.562 l 5
EndSplineSet
Validated: 1
EndChar

StartChar: u
Encoding: 117 117 61
Width: 500
VWidth: 0
Flags: W
HStem: 0 85.5<184.008 315.992> 463.75 20G<48.0625 133.562 366.438 451.938>
VStem: 48.0625 85.4995<135.075 483.75> 366.438 85.5<135.075 483.75>
LayerCount: 2
Fore
SplineSet
48.0625 483.75 m 5
 50.875 483.75 l 5
 130.75 483.75 l 5
 133.562 483.75 l 5
 133.562 480.938 l 5
 133.562 201.938 l 6
 133.562 138.208 185.154 85.5 250 85.5 c 4
 314.846 85.5 366.438 138.208 366.438 201.938 c 6
 366.438 480.938 l 5
 366.438 483.75 l 5
 369.25 483.75 l 5
 449.125 483.75 l 5
 451.938 483.75 l 5
 451.938 480.938 l 5
 451.938 201.938 l 6
 451.938 200.997 451.946 200.065 451.938 199.125 c 4
 450.435 88.6729 360.821 0 250 0 c 4
 139.179 0 49.5742 88.6729 48.0625 199.125 c 6
 48.0625 201.938 l 5
 48.0625 480.938 l 5
 48.0625 483.75 l 5
EndSplineSet
Validated: 1
EndChar

StartChar: z
Encoding: 122 122 62
Width: 425
VWidth: 0
Flags: W
HStem: -0.6875 85.5<177.344 375.062> 397.562 85.5<49.9375 247.938>
VStem: 49.9375 322.312
LayerCount: 2
Fore
SplineSet
49.9375 483.062 m 5
 52.75 483.062 l 5
 173.125 483.062 l 5
 292.375 483.062 l 5
 295.188 483.062 l 5
 372.25 483.062 l 5
 372.25 480.25 l 5
 374.781 479.125 l 5
 177.344 84.8125 l 5
 251.875 84.8125 l 5
 372.25 84.8125 l 5
 375.062 84.8125 l 5
 375.062 82 l 5
 375.062 2.125 l 5
 375.062 -0.6875 l 5
 372.25 -0.6875 l 5
 132.625 -0.6875 l 5
 129.812 -0.6875 l 5
 52.75 -0.6875 l 5
 52.75 2.125 l 5
 50.2188 3.53125 l 5
 247.938 397.562 l 5
 52.75 397.562 l 5
 49.9375 397.562 l 5
 49.9375 400.375 l 5
 49.9375 480.25 l 5
 49.9375 483.062 l 5
EndSplineSet
Validated: 1
EndChar

StartChar: w
Encoding: 119 119 63
Width: 800
VWidth: 0
Flags: W
HStem: -0.6875 22.6875G<248.807 259.938 259.938 339.812 339.812 350.681 448.194 459.062 459.062 538.938 538.938 550.115> 463.062 20G<60.8125 140.688 259.938 339.812 459.062 538.938 659.312 739.188>
LayerCount: 2
Fore
SplineSet
60.8125 483.062 m 5
 140.688 483.062 l 5
 140.688 480.25 l 5
 143.219 481.375 l 5
 299.875 105.344 l 5
 356.406 241.188 l 5
 257.125 479.125 l 5
 259.938 480.25 l 5
 259.938 483.062 l 5
 339.812 483.062 l 5
 339.812 480.25 l 5
 342.344 481.375 l 5
 399.438 344.406 l 5
 456.531 481.375 l 5
 459.062 480.25 l 5
 459.062 483.062 l 5
 538.938 483.062 l 5
 538.938 480.25 l 5
 541.75 479.125 l 5
 442.469 241.188 l 5
 499.281 105.344 l 5
 656.5 481.375 l 5
 659.312 480.25 l 5
 659.312 483.062 l 5
 739.188 483.062 l 5
 739.188 480.25 l 5
 741.719 479.125 l 5
 541.75 1 l 5
 538.938 2.125 l 5
 538.938 -0.6875 l 5
 459.062 -0.6875 l 5
 459.062 2.125 l 5
 456.531 1 l 5
 399.438 137.969 l 5
 342.344 1 l 5
 339.812 2.125 l 5
 339.812 -0.6875 l 5
 259.938 -0.6875 l 5
 259.938 2.125 l 5
 257.125 1 l 5
 58.2812 479.125 l 5
 60.8125 480.25 l 5
 60.8125 483.062 l 5
EndSplineSet
Validated: 1
EndChar

StartChar: exclam
Encoding: 33 33 64
Width: 500
VWidth: 0
Flags: W
HStem: 0 79.875<180.914 318.671> 324 79.875<180.914 318.668>
VStem: 47.5 79.875<132.941 270.936> 372.625 79.875<132.941 270.936>
LayerCount: 2
Fore
SplineSet
249.438 403.875 m 4
 361.19 403.875 452.5 313.717 452.5 201.938 c 4
 452.5 90.1582 361.199 0 249.438 0 c 4
 138.783 0 47.5 90.1582 47.5 201.938 c 4
 47.5 313.717 138.783 403.875 249.438 403.875 c 4
249.438 324 m 4
 182.667 324 127.375 269.842 127.375 201.938 c 4
 127.375 134.042 182.667 79.875 249.438 79.875 c 4
 317.307 79.875 372.625 134.042 372.625 201.938 c 4
 372.625 269.842 317.298 324 249.438 324 c 4
EndSplineSet
Validated: 1
EndChar

StartChar: quotedbl
Encoding: 34 34 65
Width: 500
VWidth: 0
Flags: W
HStem: 0 79.875<180.914 318.671> 324 79.875<180.914 318.668>
VStem: 47.5 79.875<132.941 270.936> 372.625 79.875<132.941 270.936>
LayerCount: 2
Fore
SplineSet
249.438 403.875 m 4
 361.19 403.875 452.5 313.717 452.5 201.938 c 4
 452.5 90.1582 361.199 0 249.438 0 c 4
 138.783 0 47.5 90.1582 47.5 201.938 c 4
 47.5 313.717 138.783 403.875 249.438 403.875 c 4
249.438 324 m 4
 182.667 324 127.375 269.842 127.375 201.938 c 4
 127.375 134.042 182.667 79.875 249.438 79.875 c 4
 317.307 79.875 372.625 134.042 372.625 201.938 c 4
 372.625 269.842 317.298 324 249.438 324 c 4
EndSplineSet
Validated: 1
EndChar

StartChar: numbersign
Encoding: 35 35 66
Width: 500
VWidth: 0
Flags: W
HStem: 0 79.875<180.914 318.671> 324 79.875<180.914 318.668>
VStem: 47.5 79.875<132.941 270.936> 372.625 79.875<132.941 270.936>
LayerCount: 2
Fore
SplineSet
249.438 403.875 m 4
 361.19 403.875 452.5 313.717 452.5 201.938 c 4
 452.5 90.1582 361.199 0 249.438 0 c 4
 138.783 0 47.5 90.1582 47.5 201.938 c 4
 47.5 313.717 138.783 403.875 249.438 403.875 c 4
249.438 324 m 4
 182.667 324 127.375 269.842 127.375 201.938 c 4
 127.375 134.042 182.667 79.875 249.438 79.875 c 4
 317.307 79.875 372.625 134.042 372.625 201.938 c 4
 372.625 269.842 317.298 324 249.438 324 c 4
EndSplineSet
Validated: 1
EndChar

StartChar: dollar
Encoding: 36 36 67
Width: 500
VWidth: 0
Flags: W
HStem: 0 79.875<180.914 318.671> 324 79.875<180.914 318.668>
VStem: 47.5 79.875<132.941 270.936> 372.625 79.875<132.941 270.936>
LayerCount: 2
Fore
SplineSet
249.438 403.875 m 4
 361.19 403.875 452.5 313.717 452.5 201.938 c 4
 452.5 90.1582 361.199 0 249.438 0 c 4
 138.783 0 47.5 90.1582 47.5 201.938 c 4
 47.5 313.717 138.783 403.875 249.438 403.875 c 4
249.438 324 m 4
 182.667 324 127.375 269.842 127.375 201.938 c 4
 127.375 134.042 182.667 79.875 249.438 79.875 c 4
 317.307 79.875 372.625 134.042 372.625 201.938 c 4
 372.625 269.842 317.298 324 249.438 324 c 4
EndSplineSet
Validated: 1
EndChar

StartChar: percent
Encoding: 37 37 68
Width: 500
VWidth: 0
Flags: W
HStem: 0 79.875<180.914 318.671> 324 79.875<180.914 318.668>
VStem: 47.5 79.875<132.941 270.936> 372.625 79.875<132.941 270.936>
LayerCount: 2
Fore
SplineSet
249.438 403.875 m 4
 361.19 403.875 452.5 313.717 452.5 201.938 c 4
 452.5 90.1582 361.199 0 249.438 0 c 4
 138.783 0 47.5 90.1582 47.5 201.938 c 4
 47.5 313.717 138.783 403.875 249.438 403.875 c 4
249.438 324 m 4
 182.667 324 127.375 269.842 127.375 201.938 c 4
 127.375 134.042 182.667 79.875 249.438 79.875 c 4
 317.307 79.875 372.625 134.042 372.625 201.938 c 4
 372.625 269.842 317.298 324 249.438 324 c 4
EndSplineSet
Validated: 1
EndChar

StartChar: ampersand
Encoding: 38 38 69
Width: 500
VWidth: 0
Flags: W
HStem: 0 79.875<180.914 318.671> 324 79.875<180.914 318.668>
VStem: 47.5 79.875<132.941 270.936> 372.625 79.875<132.941 270.936>
LayerCount: 2
Fore
SplineSet
249.438 403.875 m 4
 361.19 403.875 452.5 313.717 452.5 201.938 c 4
 452.5 90.1582 361.199 0 249.438 0 c 4
 138.783 0 47.5 90.1582 47.5 201.938 c 4
 47.5 313.717 138.783 403.875 249.438 403.875 c 4
249.438 324 m 4
 182.667 324 127.375 269.842 127.375 201.938 c 4
 127.375 134.042 182.667 79.875 249.438 79.875 c 4
 317.307 79.875 372.625 134.042 372.625 201.938 c 4
 372.625 269.842 317.298 324 249.438 324 c 4
EndSplineSet
Validated: 1
EndChar

StartChar: quotesingle
Encoding: 39 39 70
Width: 300
VWidth: 0
Flags: W
HStem: 483.812 79.875<47.625 110.575>
VStem: 169.688 79.875<622.8 685.75>
LayerCount: 2
Fore
SplineSet
169.688 685.75 m 1
 249.562 685.75 l 1
 249.562 682.938 l 1
 252.375 682.938 l 1
 252.375 571.176 162.199 481 50.4375 481 c 1
 50.4375 483.812 l 1
 47.625 483.812 l 1
 47.625 563.688 l 1
 50.4375 563.688 l 1
 50.4375 566.5 l 1
 115.283 566.5 166.875 619.208 166.875 682.938 c 1
 169.688 682.938 l 1
 169.688 685.75 l 1
EndSplineSet
Validated: 1
EndChar

StartChar: parenleft
Encoding: 40 40 71
Width: 500
VWidth: 0
Flags: W
HStem: 0 79.875<180.914 318.671> 324 79.875<180.914 318.668>
VStem: 47.5 79.875<132.941 270.936> 372.625 79.875<132.941 270.936>
LayerCount: 2
Fore
SplineSet
249.438 403.875 m 4
 361.19 403.875 452.5 313.717 452.5 201.938 c 4
 452.5 90.1582 361.199 0 249.438 0 c 4
 138.783 0 47.5 90.1582 47.5 201.938 c 4
 47.5 313.717 138.783 403.875 249.438 403.875 c 4
249.438 324 m 4
 182.667 324 127.375 269.842 127.375 201.938 c 4
 127.375 134.042 182.667 79.875 249.438 79.875 c 4
 317.307 79.875 372.625 134.042 372.625 201.938 c 4
 372.625 269.842 317.298 324 249.438 324 c 4
EndSplineSet
Validated: 1
EndChar

StartChar: parenright
Encoding: 41 41 72
Width: 500
VWidth: 0
Flags: W
HStem: 0 79.875<180.914 318.671> 324 79.875<180.914 318.668>
VStem: 47.5 79.875<132.941 270.936> 372.625 79.875<132.941 270.936>
LayerCount: 2
Fore
SplineSet
249.438 403.875 m 4
 361.19 403.875 452.5 313.717 452.5 201.938 c 4
 452.5 90.1582 361.199 0 249.438 0 c 4
 138.783 0 47.5 90.1582 47.5 201.938 c 4
 47.5 313.717 138.783 403.875 249.438 403.875 c 4
249.438 324 m 4
 182.667 324 127.375 269.842 127.375 201.938 c 4
 127.375 134.042 182.667 79.875 249.438 79.875 c 4
 317.307 79.875 372.625 134.042 372.625 201.938 c 4
 372.625 269.842 317.298 324 249.438 324 c 4
EndSplineSet
Validated: 1
EndChar

StartChar: asterisk
Encoding: 42 42 73
Width: 500
VWidth: 0
Flags: W
HStem: 0 79.875<180.914 318.671> 324 79.875<180.914 318.668>
VStem: 47.5 79.875<132.941 270.936> 372.625 79.875<132.941 270.936>
LayerCount: 2
Fore
SplineSet
249.438 403.875 m 4
 361.19 403.875 452.5 313.717 452.5 201.938 c 4
 452.5 90.1582 361.199 0 249.438 0 c 4
 138.783 0 47.5 90.1582 47.5 201.938 c 4
 47.5 313.717 138.783 403.875 249.438 403.875 c 4
249.438 324 m 4
 182.667 324 127.375 269.842 127.375 201.938 c 4
 127.375 134.042 182.667 79.875 249.438 79.875 c 4
 317.307 79.875 372.625 134.042 372.625 201.938 c 4
 372.625 269.842 317.298 324 249.438 324 c 4
EndSplineSet
Validated: 1
EndChar

StartChar: plus
Encoding: 43 43 74
Width: 500
VWidth: 0
Flags: W
HStem: 0 79.875<180.914 318.671> 324 79.875<180.914 318.668>
VStem: 47.5 79.875<132.941 270.936> 372.625 79.875<132.941 270.936>
LayerCount: 2
Fore
SplineSet
249.438 403.875 m 4
 361.19 403.875 452.5 313.717 452.5 201.938 c 4
 452.5 90.1582 361.199 0 249.438 0 c 4
 138.783 0 47.5 90.1582 47.5 201.938 c 4
 47.5 313.717 138.783 403.875 249.438 403.875 c 4
249.438 324 m 4
 182.667 324 127.375 269.842 127.375 201.938 c 4
 127.375 134.042 182.667 79.875 249.438 79.875 c 4
 317.307 79.875 372.625 134.042 372.625 201.938 c 4
 372.625 269.842 317.298 324 249.438 324 c 4
EndSplineSet
Validated: 1
EndChar

StartChar: comma
Encoding: 44 44 75
Width: 500
VWidth: 0
Flags: W
HStem: 0 79.875<180.914 318.671> 324 79.875<180.914 318.668>
VStem: 47.5 79.875<132.941 270.936> 372.625 79.875<132.941 270.936>
LayerCount: 2
Fore
SplineSet
249.438 403.875 m 4
 361.19 403.875 452.5 313.717 452.5 201.938 c 4
 452.5 90.1582 361.199 0 249.438 0 c 4
 138.783 0 47.5 90.1582 47.5 201.938 c 4
 47.5 313.717 138.783 403.875 249.438 403.875 c 4
249.438 324 m 4
 182.667 324 127.375 269.842 127.375 201.938 c 4
 127.375 134.042 182.667 79.875 249.438 79.875 c 4
 317.307 79.875 372.625 134.042 372.625 201.938 c 4
 372.625 269.842 317.298 324 249.438 324 c 4
EndSplineSet
Validated: 1
EndChar

StartChar: hyphen
Encoding: 45 45 76
Width: 500
VWidth: 0
Flags: W
HStem: 0 79.875<180.914 318.671> 324 79.875<180.914 318.668>
VStem: 47.5 79.875<132.941 270.936> 372.625 79.875<132.941 270.936>
LayerCount: 2
Fore
SplineSet
249.438 403.875 m 4
 361.19 403.875 452.5 313.717 452.5 201.938 c 4
 452.5 90.1582 361.199 0 249.438 0 c 4
 138.783 0 47.5 90.1582 47.5 201.938 c 4
 47.5 313.717 138.783 403.875 249.438 403.875 c 4
249.438 324 m 4
 182.667 324 127.375 269.842 127.375 201.938 c 4
 127.375 134.042 182.667 79.875 249.438 79.875 c 4
 317.307 79.875 372.625 134.042 372.625 201.938 c 4
 372.625 269.842 317.298 324 249.438 324 c 4
EndSplineSet
Validated: 1
EndChar

StartChar: slash
Encoding: 47 47 77
Width: 500
VWidth: 0
Flags: W
HStem: 0 79.875<180.914 318.671> 324 79.875<180.914 318.668>
VStem: 47.5 79.875<132.941 270.936> 372.625 79.875<132.941 270.936>
LayerCount: 2
Fore
SplineSet
249.438 403.875 m 4
 361.19 403.875 452.5 313.717 452.5 201.938 c 4
 452.5 90.1582 361.199 0 249.438 0 c 4
 138.783 0 47.5 90.1582 47.5 201.938 c 4
 47.5 313.717 138.783 403.875 249.438 403.875 c 4
249.438 324 m 4
 182.667 324 127.375 269.842 127.375 201.938 c 4
 127.375 134.042 182.667 79.875 249.438 79.875 c 4
 317.307 79.875 372.625 134.042 372.625 201.938 c 4
 372.625 269.842 317.298 324 249.438 324 c 4
EndSplineSet
Validated: 1
EndChar

StartChar: colon
Encoding: 58 58 78
Width: 500
VWidth: 0
Flags: W
HStem: 0 79.875<180.914 318.671> 324 79.875<180.914 318.668>
VStem: 47.5 79.875<132.941 270.936> 372.625 79.875<132.941 270.936>
LayerCount: 2
Fore
SplineSet
249.438 403.875 m 4
 361.19 403.875 452.5 313.717 452.5 201.938 c 4
 452.5 90.1582 361.199 0 249.438 0 c 4
 138.783 0 47.5 90.1582 47.5 201.938 c 4
 47.5 313.717 138.783 403.875 249.438 403.875 c 4
249.438 324 m 4
 182.667 324 127.375 269.842 127.375 201.938 c 4
 127.375 134.042 182.667 79.875 249.438 79.875 c 4
 317.307 79.875 372.625 134.042 372.625 201.938 c 4
 372.625 269.842 317.298 324 249.438 324 c 4
EndSplineSet
Validated: 1
EndChar

StartChar: semicolon
Encoding: 59 59 79
Width: 500
VWidth: 0
Flags: W
HStem: 0 79.875<180.914 318.671> 324 79.875<180.914 318.668>
VStem: 47.5 79.875<132.941 270.936> 372.625 79.875<132.941 270.936>
LayerCount: 2
Fore
SplineSet
249.438 403.875 m 4
 361.19 403.875 452.5 313.717 452.5 201.938 c 4
 452.5 90.1582 361.199 0 249.438 0 c 4
 138.783 0 47.5 90.1582 47.5 201.938 c 4
 47.5 313.717 138.783 403.875 249.438 403.875 c 4
249.438 324 m 4
 182.667 324 127.375 269.842 127.375 201.938 c 4
 127.375 134.042 182.667 79.875 249.438 79.875 c 4
 317.307 79.875 372.625 134.042 372.625 201.938 c 4
 372.625 269.842 317.298 324 249.438 324 c 4
EndSplineSet
Validated: 1
EndChar

StartChar: less
Encoding: 60 60 80
Width: 500
VWidth: 0
Flags: W
HStem: 0 79.875<180.914 318.671> 324 79.875<180.914 318.668>
VStem: 47.5 79.875<132.941 270.936> 372.625 79.875<132.941 270.936>
LayerCount: 2
Fore
SplineSet
249.438 403.875 m 4
 361.19 403.875 452.5 313.717 452.5 201.938 c 4
 452.5 90.1582 361.199 0 249.438 0 c 4
 138.783 0 47.5 90.1582 47.5 201.938 c 4
 47.5 313.717 138.783 403.875 249.438 403.875 c 4
249.438 324 m 4
 182.667 324 127.375 269.842 127.375 201.938 c 4
 127.375 134.042 182.667 79.875 249.438 79.875 c 4
 317.307 79.875 372.625 134.042 372.625 201.938 c 4
 372.625 269.842 317.298 324 249.438 324 c 4
EndSplineSet
Validated: 1
EndChar

StartChar: equal
Encoding: 61 61 81
Width: 500
VWidth: 0
Flags: W
HStem: 0 79.875<180.914 318.671> 324 79.875<180.914 318.668>
VStem: 47.5 79.875<132.941 270.936> 372.625 79.875<132.941 270.936>
LayerCount: 2
Fore
SplineSet
249.438 403.875 m 4
 361.19 403.875 452.5 313.717 452.5 201.938 c 4
 452.5 90.1582 361.199 0 249.438 0 c 4
 138.783 0 47.5 90.1582 47.5 201.938 c 4
 47.5 313.717 138.783 403.875 249.438 403.875 c 4
249.438 324 m 4
 182.667 324 127.375 269.842 127.375 201.938 c 4
 127.375 134.042 182.667 79.875 249.438 79.875 c 4
 317.307 79.875 372.625 134.042 372.625 201.938 c 4
 372.625 269.842 317.298 324 249.438 324 c 4
EndSplineSet
Validated: 1
EndChar

StartChar: greater
Encoding: 62 62 82
Width: 500
VWidth: 0
Flags: W
HStem: 0 79.875<180.914 318.671> 324 79.875<180.914 318.668>
VStem: 47.5 79.875<132.941 270.936> 372.625 79.875<132.941 270.936>
LayerCount: 2
Fore
SplineSet
249.438 403.875 m 4
 361.19 403.875 452.5 313.717 452.5 201.938 c 4
 452.5 90.1582 361.199 0 249.438 0 c 4
 138.783 0 47.5 90.1582 47.5 201.938 c 4
 47.5 313.717 138.783 403.875 249.438 403.875 c 4
249.438 324 m 4
 182.667 324 127.375 269.842 127.375 201.938 c 4
 127.375 134.042 182.667 79.875 249.438 79.875 c 4
 317.307 79.875 372.625 134.042 372.625 201.938 c 4
 372.625 269.842 317.298 324 249.438 324 c 4
EndSplineSet
Validated: 1
EndChar

StartChar: question
Encoding: 63 63 83
Width: 500
VWidth: 0
Flags: W
HStem: 0 79.875<180.914 318.671> 324 79.875<180.914 318.668>
VStem: 47.5 79.875<132.941 270.936> 372.625 79.875<132.941 270.936>
LayerCount: 2
Fore
SplineSet
249.438 403.875 m 4
 361.19 403.875 452.5 313.717 452.5 201.938 c 4
 452.5 90.1582 361.199 0 249.438 0 c 4
 138.783 0 47.5 90.1582 47.5 201.938 c 4
 47.5 313.717 138.783 403.875 249.438 403.875 c 4
249.438 324 m 4
 182.667 324 127.375 269.842 127.375 201.938 c 4
 127.375 134.042 182.667 79.875 249.438 79.875 c 4
 317.307 79.875 372.625 134.042 372.625 201.938 c 4
 372.625 269.842 317.298 324 249.438 324 c 4
EndSplineSet
Validated: 1
EndChar

StartChar: at
Encoding: 64 64 84
Width: 500
VWidth: 0
Flags: W
HStem: 0 79.875<180.914 318.671> 324 79.875<180.914 318.668>
VStem: 47.5 79.875<132.941 270.936> 372.625 79.875<132.941 270.936>
LayerCount: 2
Fore
SplineSet
249.438 403.875 m 4
 361.19 403.875 452.5 313.717 452.5 201.938 c 4
 452.5 90.1582 361.199 0 249.438 0 c 4
 138.783 0 47.5 90.1582 47.5 201.938 c 4
 47.5 313.717 138.783 403.875 249.438 403.875 c 4
249.438 324 m 4
 182.667 324 127.375 269.842 127.375 201.938 c 4
 127.375 134.042 182.667 79.875 249.438 79.875 c 4
 317.307 79.875 372.625 134.042 372.625 201.938 c 4
 372.625 269.842 317.298 324 249.438 324 c 4
EndSplineSet
Validated: 1
EndChar

StartChar: braceleft
Encoding: 123 123 85
Width: 500
VWidth: 0
Flags: W
HStem: 0 79.875<180.914 318.671> 324 79.875<180.914 318.668>
VStem: 47.5 79.875<132.941 270.936> 372.625 79.875<132.941 270.936>
LayerCount: 2
Fore
SplineSet
249.438 403.875 m 4
 361.19 403.875 452.5 313.717 452.5 201.938 c 4
 452.5 90.1582 361.199 0 249.438 0 c 4
 138.783 0 47.5 90.1582 47.5 201.938 c 4
 47.5 313.717 138.783 403.875 249.438 403.875 c 4
249.438 324 m 4
 182.667 324 127.375 269.842 127.375 201.938 c 4
 127.375 134.042 182.667 79.875 249.438 79.875 c 4
 317.307 79.875 372.625 134.042 372.625 201.938 c 4
 372.625 269.842 317.298 324 249.438 324 c 4
EndSplineSet
Validated: 1
EndChar

StartChar: bar
Encoding: 124 124 86
Width: 500
VWidth: 0
Flags: W
HStem: 0 79.875<180.914 318.671> 324 79.875<180.914 318.668>
VStem: 47.5 79.875<132.941 270.936> 372.625 79.875<132.941 270.936>
LayerCount: 2
Fore
SplineSet
249.438 403.875 m 4
 361.19 403.875 452.5 313.717 452.5 201.938 c 4
 452.5 90.1582 361.199 0 249.438 0 c 4
 138.783 0 47.5 90.1582 47.5 201.938 c 4
 47.5 313.717 138.783 403.875 249.438 403.875 c 4
249.438 324 m 4
 182.667 324 127.375 269.842 127.375 201.938 c 4
 127.375 134.042 182.667 79.875 249.438 79.875 c 4
 317.307 79.875 372.625 134.042 372.625 201.938 c 4
 372.625 269.842 317.298 324 249.438 324 c 4
EndSplineSet
Validated: 1
EndChar

StartChar: braceright
Encoding: 125 125 87
Width: 500
VWidth: 0
Flags: W
HStem: 0 79.875<180.914 318.671> 324 79.875<180.914 318.668>
VStem: 47.5 79.875<132.941 270.936> 372.625 79.875<132.941 270.936>
LayerCount: 2
Fore
SplineSet
249.438 403.875 m 4
 361.19 403.875 452.5 313.717 452.5 201.938 c 4
 452.5 90.1582 361.199 0 249.438 0 c 4
 138.783 0 47.5 90.1582 47.5 201.938 c 4
 47.5 313.717 138.783 403.875 249.438 403.875 c 4
249.438 324 m 4
 182.667 324 127.375 269.842 127.375 201.938 c 4
 127.375 134.042 182.667 79.875 249.438 79.875 c 4
 317.307 79.875 372.625 134.042 372.625 201.938 c 4
 372.625 269.842 317.298 324 249.438 324 c 4
EndSplineSet
Validated: 1
EndChar

StartChar: asciitilde
Encoding: 126 126 88
Width: 500
VWidth: 0
Flags: W
HStem: 0 79.875<180.914 318.671> 324 79.875<180.914 318.668>
VStem: 47.5 79.875<132.941 270.936> 372.625 79.875<132.941 270.936>
LayerCount: 2
Fore
SplineSet
249.438 403.875 m 4
 361.19 403.875 452.5 313.717 452.5 201.938 c 4
 452.5 90.1582 361.199 0 249.438 0 c 4
 138.783 0 47.5 90.1582 47.5 201.938 c 4
 47.5 313.717 138.783 403.875 249.438 403.875 c 4
249.438 324 m 4
 182.667 324 127.375 269.842 127.375 201.938 c 4
 127.375 134.042 182.667 79.875 249.438 79.875 c 4
 317.307 79.875 372.625 134.042 372.625 201.938 c 4
 372.625 269.842 317.298 324 249.438 324 c 4
EndSplineSet
Validated: 1
EndChar

StartChar: uni007F
Encoding: 127 127 89
Width: 500
VWidth: 0
Flags: W
HStem: 0 79.875<180.914 318.671> 324 79.875<180.914 318.668>
VStem: 47.5 79.875<132.941 270.936> 372.625 79.875<132.941 270.936>
LayerCount: 2
Fore
SplineSet
249.438 403.875 m 4
 361.19 403.875 452.5 313.717 452.5 201.938 c 4
 452.5 90.1582 361.199 0 249.438 0 c 4
 138.783 0 47.5 90.1582 47.5 201.938 c 4
 47.5 313.717 138.783 403.875 249.438 403.875 c 4
249.438 324 m 4
 182.667 324 127.375 269.842 127.375 201.938 c 4
 127.375 134.042 182.667 79.875 249.438 79.875 c 4
 317.307 79.875 372.625 134.042 372.625 201.938 c 4
 372.625 269.842 317.298 324 249.438 324 c 4
EndSplineSet
Validated: 1
EndChar

StartChar: uni0080
Encoding: 128 128 90
Width: 500
VWidth: 0
Flags: W
HStem: 0 79.875<180.914 318.671> 324 79.875<180.914 318.668>
VStem: 47.5 79.875<132.941 270.936> 372.625 79.875<132.941 270.936>
LayerCount: 2
Fore
SplineSet
249.438 403.875 m 4
 361.19 403.875 452.5 313.717 452.5 201.938 c 4
 452.5 90.1582 361.199 0 249.438 0 c 4
 138.783 0 47.5 90.1582 47.5 201.938 c 4
 47.5 313.717 138.783 403.875 249.438 403.875 c 4
249.438 324 m 4
 182.667 324 127.375 269.842 127.375 201.938 c 4
 127.375 134.042 182.667 79.875 249.438 79.875 c 4
 317.307 79.875 372.625 134.042 372.625 201.938 c 4
 372.625 269.842 317.298 324 249.438 324 c 4
EndSplineSet
Validated: 1
EndChar

StartChar: uni0081
Encoding: 129 129 91
Width: 500
VWidth: 0
Flags: W
HStem: 0 79.875<180.914 318.671> 324 79.875<180.914 318.668>
VStem: 47.5 79.875<132.941 270.936> 372.625 79.875<132.941 270.936>
LayerCount: 2
Fore
SplineSet
249.438 403.875 m 4
 361.19 403.875 452.5 313.717 452.5 201.938 c 4
 452.5 90.1582 361.199 0 249.438 0 c 4
 138.783 0 47.5 90.1582 47.5 201.938 c 4
 47.5 313.717 138.783 403.875 249.438 403.875 c 4
249.438 324 m 4
 182.667 324 127.375 269.842 127.375 201.938 c 4
 127.375 134.042 182.667 79.875 249.438 79.875 c 4
 317.307 79.875 372.625 134.042 372.625 201.938 c 4
 372.625 269.842 317.298 324 249.438 324 c 4
EndSplineSet
Validated: 1
EndChar

StartChar: uni0082
Encoding: 130 130 92
Width: 500
VWidth: 0
Flags: W
HStem: 0 79.875<180.914 318.671> 324 79.875<180.914 318.668>
VStem: 47.5 79.875<132.941 270.936> 372.625 79.875<132.941 270.936>
LayerCount: 2
Fore
SplineSet
249.438 403.875 m 4
 361.19 403.875 452.5 313.717 452.5 201.938 c 4
 452.5 90.1582 361.199 0 249.438 0 c 4
 138.783 0 47.5 90.1582 47.5 201.938 c 4
 47.5 313.717 138.783 403.875 249.438 403.875 c 4
249.438 324 m 4
 182.667 324 127.375 269.842 127.375 201.938 c 4
 127.375 134.042 182.667 79.875 249.438 79.875 c 4
 317.307 79.875 372.625 134.042 372.625 201.938 c 4
 372.625 269.842 317.298 324 249.438 324 c 4
EndSplineSet
Validated: 1
EndChar

StartChar: uni0083
Encoding: 131 131 93
Width: 500
VWidth: 0
Flags: W
HStem: 0 79.875<180.914 318.671> 324 79.875<180.914 318.668>
VStem: 47.5 79.875<132.941 270.936> 372.625 79.875<132.941 270.936>
LayerCount: 2
Fore
SplineSet
249.438 403.875 m 4
 361.19 403.875 452.5 313.717 452.5 201.938 c 4
 452.5 90.1582 361.199 0 249.438 0 c 4
 138.783 0 47.5 90.1582 47.5 201.938 c 4
 47.5 313.717 138.783 403.875 249.438 403.875 c 4
249.438 324 m 4
 182.667 324 127.375 269.842 127.375 201.938 c 4
 127.375 134.042 182.667 79.875 249.438 79.875 c 4
 317.307 79.875 372.625 134.042 372.625 201.938 c 4
 372.625 269.842 317.298 324 249.438 324 c 4
EndSplineSet
Validated: 1
EndChar

StartChar: uni0084
Encoding: 132 132 94
Width: 500
VWidth: 0
Flags: W
HStem: 0 79.875<180.914 318.671> 324 79.875<180.914 318.668>
VStem: 47.5 79.875<132.941 270.936> 372.625 79.875<132.941 270.936>
LayerCount: 2
Fore
SplineSet
249.438 403.875 m 4
 361.19 403.875 452.5 313.717 452.5 201.938 c 4
 452.5 90.1582 361.199 0 249.438 0 c 4
 138.783 0 47.5 90.1582 47.5 201.938 c 4
 47.5 313.717 138.783 403.875 249.438 403.875 c 4
249.438 324 m 4
 182.667 324 127.375 269.842 127.375 201.938 c 4
 127.375 134.042 182.667 79.875 249.438 79.875 c 4
 317.307 79.875 372.625 134.042 372.625 201.938 c 4
 372.625 269.842 317.298 324 249.438 324 c 4
EndSplineSet
Validated: 1
EndChar

StartChar: uni0085
Encoding: 133 133 95
Width: 500
VWidth: 0
Flags: W
HStem: 0 79.875<180.914 318.671> 324 79.875<180.914 318.668>
VStem: 47.5 79.875<132.941 270.936> 372.625 79.875<132.941 270.936>
LayerCount: 2
Fore
SplineSet
249.438 403.875 m 4
 361.19 403.875 452.5 313.717 452.5 201.938 c 4
 452.5 90.1582 361.199 0 249.438 0 c 4
 138.783 0 47.5 90.1582 47.5 201.938 c 4
 47.5 313.717 138.783 403.875 249.438 403.875 c 4
249.438 324 m 4
 182.667 324 127.375 269.842 127.375 201.938 c 4
 127.375 134.042 182.667 79.875 249.438 79.875 c 4
 317.307 79.875 372.625 134.042 372.625 201.938 c 4
 372.625 269.842 317.298 324 249.438 324 c 4
EndSplineSet
Validated: 1
EndChar

StartChar: uni0086
Encoding: 134 134 96
Width: 500
VWidth: 0
Flags: W
HStem: 0 79.875<180.914 318.671> 324 79.875<180.914 318.668>
VStem: 47.5 79.875<132.941 270.936> 372.625 79.875<132.941 270.936>
LayerCount: 2
Fore
SplineSet
249.438 403.875 m 4
 361.19 403.875 452.5 313.717 452.5 201.938 c 4
 452.5 90.1582 361.199 0 249.438 0 c 4
 138.783 0 47.5 90.1582 47.5 201.938 c 4
 47.5 313.717 138.783 403.875 249.438 403.875 c 4
249.438 324 m 4
 182.667 324 127.375 269.842 127.375 201.938 c 4
 127.375 134.042 182.667 79.875 249.438 79.875 c 4
 317.307 79.875 372.625 134.042 372.625 201.938 c 4
 372.625 269.842 317.298 324 249.438 324 c 4
EndSplineSet
Validated: 1
EndChar

StartChar: uni0087
Encoding: 135 135 97
Width: 500
VWidth: 0
Flags: W
HStem: 0 79.875<180.914 318.671> 324 79.875<180.914 318.668>
VStem: 47.5 79.875<132.941 270.936> 372.625 79.875<132.941 270.936>
LayerCount: 2
Fore
SplineSet
249.438 403.875 m 4
 361.19 403.875 452.5 313.717 452.5 201.938 c 4
 452.5 90.1582 361.199 0 249.438 0 c 4
 138.783 0 47.5 90.1582 47.5 201.938 c 4
 47.5 313.717 138.783 403.875 249.438 403.875 c 4
249.438 324 m 4
 182.667 324 127.375 269.842 127.375 201.938 c 4
 127.375 134.042 182.667 79.875 249.438 79.875 c 4
 317.307 79.875 372.625 134.042 372.625 201.938 c 4
 372.625 269.842 317.298 324 249.438 324 c 4
EndSplineSet
Validated: 1
EndChar

StartChar: uni0088
Encoding: 136 136 98
Width: 500
VWidth: 0
Flags: W
HStem: 0 79.875<180.914 318.671> 324 79.875<180.914 318.668>
VStem: 47.5 79.875<132.941 270.936> 372.625 79.875<132.941 270.936>
LayerCount: 2
Fore
SplineSet
249.438 403.875 m 4
 361.19 403.875 452.5 313.717 452.5 201.938 c 4
 452.5 90.1582 361.199 0 249.438 0 c 4
 138.783 0 47.5 90.1582 47.5 201.938 c 4
 47.5 313.717 138.783 403.875 249.438 403.875 c 4
249.438 324 m 4
 182.667 324 127.375 269.842 127.375 201.938 c 4
 127.375 134.042 182.667 79.875 249.438 79.875 c 4
 317.307 79.875 372.625 134.042 372.625 201.938 c 4
 372.625 269.842 317.298 324 249.438 324 c 4
EndSplineSet
Validated: 1
EndChar

StartChar: uni0089
Encoding: 137 137 99
Width: 500
VWidth: 0
Flags: W
HStem: 0 79.875<180.914 318.671> 324 79.875<180.914 318.668>
VStem: 47.5 79.875<132.941 270.936> 372.625 79.875<132.941 270.936>
LayerCount: 2
Fore
SplineSet
249.438 403.875 m 4
 361.19 403.875 452.5 313.717 452.5 201.938 c 4
 452.5 90.1582 361.199 0 249.438 0 c 4
 138.783 0 47.5 90.1582 47.5 201.938 c 4
 47.5 313.717 138.783 403.875 249.438 403.875 c 4
249.438 324 m 4
 182.667 324 127.375 269.842 127.375 201.938 c 4
 127.375 134.042 182.667 79.875 249.438 79.875 c 4
 317.307 79.875 372.625 134.042 372.625 201.938 c 4
 372.625 269.842 317.298 324 249.438 324 c 4
EndSplineSet
Validated: 1
EndChar

StartChar: uni008A
Encoding: 138 138 100
Width: 500
VWidth: 0
Flags: W
HStem: 0 79.875<180.914 318.671> 324 79.875<180.914 318.668>
VStem: 47.5 79.875<132.941 270.936> 372.625 79.875<132.941 270.936>
LayerCount: 2
Fore
SplineSet
249.438 403.875 m 4
 361.19 403.875 452.5 313.717 452.5 201.938 c 4
 452.5 90.1582 361.199 0 249.438 0 c 4
 138.783 0 47.5 90.1582 47.5 201.938 c 4
 47.5 313.717 138.783 403.875 249.438 403.875 c 4
249.438 324 m 4
 182.667 324 127.375 269.842 127.375 201.938 c 4
 127.375 134.042 182.667 79.875 249.438 79.875 c 4
 317.307 79.875 372.625 134.042 372.625 201.938 c 4
 372.625 269.842 317.298 324 249.438 324 c 4
EndSplineSet
Validated: 1
EndChar

StartChar: uni008B
Encoding: 139 139 101
Width: 500
VWidth: 0
Flags: W
HStem: 0 79.875<180.914 318.671> 324 79.875<180.914 318.668>
VStem: 47.5 79.875<132.941 270.936> 372.625 79.875<132.941 270.936>
LayerCount: 2
Fore
SplineSet
249.438 403.875 m 4
 361.19 403.875 452.5 313.717 452.5 201.938 c 4
 452.5 90.1582 361.199 0 249.438 0 c 4
 138.783 0 47.5 90.1582 47.5 201.938 c 4
 47.5 313.717 138.783 403.875 249.438 403.875 c 4
249.438 324 m 4
 182.667 324 127.375 269.842 127.375 201.938 c 4
 127.375 134.042 182.667 79.875 249.438 79.875 c 4
 317.307 79.875 372.625 134.042 372.625 201.938 c 4
 372.625 269.842 317.298 324 249.438 324 c 4
EndSplineSet
Validated: 1
EndChar

StartChar: uni008C
Encoding: 140 140 102
Width: 500
VWidth: 0
Flags: W
HStem: 0 79.875<180.914 318.671> 324 79.875<180.914 318.668>
VStem: 47.5 79.875<132.941 270.936> 372.625 79.875<132.941 270.936>
LayerCount: 2
Fore
SplineSet
249.438 403.875 m 4
 361.19 403.875 452.5 313.717 452.5 201.938 c 4
 452.5 90.1582 361.199 0 249.438 0 c 4
 138.783 0 47.5 90.1582 47.5 201.938 c 4
 47.5 313.717 138.783 403.875 249.438 403.875 c 4
249.438 324 m 4
 182.667 324 127.375 269.842 127.375 201.938 c 4
 127.375 134.042 182.667 79.875 249.438 79.875 c 4
 317.307 79.875 372.625 134.042 372.625 201.938 c 4
 372.625 269.842 317.298 324 249.438 324 c 4
EndSplineSet
Validated: 1
EndChar

StartChar: uni008D
Encoding: 141 141 103
Width: 500
VWidth: 0
Flags: W
HStem: 0 79.875<180.914 318.671> 324 79.875<180.914 318.668>
VStem: 47.5 79.875<132.941 270.936> 372.625 79.875<132.941 270.936>
LayerCount: 2
Fore
SplineSet
249.438 403.875 m 4
 361.19 403.875 452.5 313.717 452.5 201.938 c 4
 452.5 90.1582 361.199 0 249.438 0 c 4
 138.783 0 47.5 90.1582 47.5 201.938 c 4
 47.5 313.717 138.783 403.875 249.438 403.875 c 4
249.438 324 m 4
 182.667 324 127.375 269.842 127.375 201.938 c 4
 127.375 134.042 182.667 79.875 249.438 79.875 c 4
 317.307 79.875 372.625 134.042 372.625 201.938 c 4
 372.625 269.842 317.298 324 249.438 324 c 4
EndSplineSet
Validated: 1
EndChar

StartChar: uni008E
Encoding: 142 142 104
Width: 500
VWidth: 0
Flags: W
HStem: 0 79.875<180.914 318.671> 324 79.875<180.914 318.668>
VStem: 47.5 79.875<132.941 270.936> 372.625 79.875<132.941 270.936>
LayerCount: 2
Fore
SplineSet
249.438 403.875 m 4
 361.19 403.875 452.5 313.717 452.5 201.938 c 4
 452.5 90.1582 361.199 0 249.438 0 c 4
 138.783 0 47.5 90.1582 47.5 201.938 c 4
 47.5 313.717 138.783 403.875 249.438 403.875 c 4
249.438 324 m 4
 182.667 324 127.375 269.842 127.375 201.938 c 4
 127.375 134.042 182.667 79.875 249.438 79.875 c 4
 317.307 79.875 372.625 134.042 372.625 201.938 c 4
 372.625 269.842 317.298 324 249.438 324 c 4
EndSplineSet
Validated: 1
EndChar

StartChar: uni008F
Encoding: 143 143 105
Width: 500
VWidth: 0
Flags: W
HStem: 0 79.875<180.914 318.671> 324 79.875<180.914 318.668>
VStem: 47.5 79.875<132.941 270.936> 372.625 79.875<132.941 270.936>
LayerCount: 2
Fore
SplineSet
249.438 403.875 m 4
 361.19 403.875 452.5 313.717 452.5 201.938 c 4
 452.5 90.1582 361.199 0 249.438 0 c 4
 138.783 0 47.5 90.1582 47.5 201.938 c 4
 47.5 313.717 138.783 403.875 249.438 403.875 c 4
249.438 324 m 4
 182.667 324 127.375 269.842 127.375 201.938 c 4
 127.375 134.042 182.667 79.875 249.438 79.875 c 4
 317.307 79.875 372.625 134.042 372.625 201.938 c 4
 372.625 269.842 317.298 324 249.438 324 c 4
EndSplineSet
Validated: 1
EndChar

StartChar: uni0090
Encoding: 144 144 106
Width: 500
VWidth: 0
Flags: W
HStem: 0 79.875<180.914 318.671> 324 79.875<180.914 318.668>
VStem: 47.5 79.875<132.941 270.936> 372.625 79.875<132.941 270.936>
LayerCount: 2
Fore
SplineSet
249.438 403.875 m 4
 361.19 403.875 452.5 313.717 452.5 201.938 c 4
 452.5 90.1582 361.199 0 249.438 0 c 4
 138.783 0 47.5 90.1582 47.5 201.938 c 4
 47.5 313.717 138.783 403.875 249.438 403.875 c 4
249.438 324 m 4
 182.667 324 127.375 269.842 127.375 201.938 c 4
 127.375 134.042 182.667 79.875 249.438 79.875 c 4
 317.307 79.875 372.625 134.042 372.625 201.938 c 4
 372.625 269.842 317.298 324 249.438 324 c 4
EndSplineSet
Validated: 1
EndChar

StartChar: uni0091
Encoding: 145 145 107
Width: 500
VWidth: 0
Flags: W
HStem: 0 79.875<180.914 318.671> 324 79.875<180.914 318.668>
VStem: 47.5 79.875<132.941 270.936> 372.625 79.875<132.941 270.936>
LayerCount: 2
Fore
SplineSet
249.438 403.875 m 4
 361.19 403.875 452.5 313.717 452.5 201.938 c 4
 452.5 90.1582 361.199 0 249.438 0 c 4
 138.783 0 47.5 90.1582 47.5 201.938 c 4
 47.5 313.717 138.783 403.875 249.438 403.875 c 4
249.438 324 m 4
 182.667 324 127.375 269.842 127.375 201.938 c 4
 127.375 134.042 182.667 79.875 249.438 79.875 c 4
 317.307 79.875 372.625 134.042 372.625 201.938 c 4
 372.625 269.842 317.298 324 249.438 324 c 4
EndSplineSet
Validated: 1
EndChar

StartChar: uni0092
Encoding: 146 146 108
Width: 500
VWidth: 0
Flags: W
HStem: 0 79.875<180.914 318.671> 324 79.875<180.914 318.668>
VStem: 47.5 79.875<132.941 270.936> 372.625 79.875<132.941 270.936>
LayerCount: 2
Fore
SplineSet
249.438 403.875 m 4
 361.19 403.875 452.5 313.717 452.5 201.938 c 4
 452.5 90.1582 361.199 0 249.438 0 c 4
 138.783 0 47.5 90.1582 47.5 201.938 c 4
 47.5 313.717 138.783 403.875 249.438 403.875 c 4
249.438 324 m 4
 182.667 324 127.375 269.842 127.375 201.938 c 4
 127.375 134.042 182.667 79.875 249.438 79.875 c 4
 317.307 79.875 372.625 134.042 372.625 201.938 c 4
 372.625 269.842 317.298 324 249.438 324 c 4
EndSplineSet
Validated: 1
EndChar

StartChar: uni0093
Encoding: 147 147 109
Width: 500
VWidth: 0
Flags: W
HStem: 0 79.875<180.914 318.671> 324 79.875<180.914 318.668>
VStem: 47.5 79.875<132.941 270.936> 372.625 79.875<132.941 270.936>
LayerCount: 2
Fore
SplineSet
249.438 403.875 m 4
 361.19 403.875 452.5 313.717 452.5 201.938 c 4
 452.5 90.1582 361.199 0 249.438 0 c 4
 138.783 0 47.5 90.1582 47.5 201.938 c 4
 47.5 313.717 138.783 403.875 249.438 403.875 c 4
249.438 324 m 4
 182.667 324 127.375 269.842 127.375 201.938 c 4
 127.375 134.042 182.667 79.875 249.438 79.875 c 4
 317.307 79.875 372.625 134.042 372.625 201.938 c 4
 372.625 269.842 317.298 324 249.438 324 c 4
EndSplineSet
Validated: 1
EndChar

StartChar: uni0094
Encoding: 148 148 110
Width: 500
VWidth: 0
Flags: W
HStem: 0 79.875<180.914 318.671> 324 79.875<180.914 318.668>
VStem: 47.5 79.875<132.941 270.936> 372.625 79.875<132.941 270.936>
LayerCount: 2
Fore
SplineSet
249.438 403.875 m 4
 361.19 403.875 452.5 313.717 452.5 201.938 c 4
 452.5 90.1582 361.199 0 249.438 0 c 4
 138.783 0 47.5 90.1582 47.5 201.938 c 4
 47.5 313.717 138.783 403.875 249.438 403.875 c 4
249.438 324 m 4
 182.667 324 127.375 269.842 127.375 201.938 c 4
 127.375 134.042 182.667 79.875 249.438 79.875 c 4
 317.307 79.875 372.625 134.042 372.625 201.938 c 4
 372.625 269.842 317.298 324 249.438 324 c 4
EndSplineSet
Validated: 1
EndChar

StartChar: uni0095
Encoding: 149 149 111
Width: 500
VWidth: 0
Flags: W
HStem: 0 79.875<180.914 318.671> 324 79.875<180.914 318.668>
VStem: 47.5 79.875<132.941 270.936> 372.625 79.875<132.941 270.936>
LayerCount: 2
Fore
SplineSet
249.438 403.875 m 4
 361.19 403.875 452.5 313.717 452.5 201.938 c 4
 452.5 90.1582 361.199 0 249.438 0 c 4
 138.783 0 47.5 90.1582 47.5 201.938 c 4
 47.5 313.717 138.783 403.875 249.438 403.875 c 4
249.438 324 m 4
 182.667 324 127.375 269.842 127.375 201.938 c 4
 127.375 134.042 182.667 79.875 249.438 79.875 c 4
 317.307 79.875 372.625 134.042 372.625 201.938 c 4
 372.625 269.842 317.298 324 249.438 324 c 4
EndSplineSet
Validated: 1
EndChar

StartChar: uni0096
Encoding: 150 150 112
Width: 500
VWidth: 0
Flags: W
HStem: 0 79.875<180.914 318.671> 324 79.875<180.914 318.668>
VStem: 47.5 79.875<132.941 270.936> 372.625 79.875<132.941 270.936>
LayerCount: 2
Fore
SplineSet
249.438 403.875 m 4
 361.19 403.875 452.5 313.717 452.5 201.938 c 4
 452.5 90.1582 361.199 0 249.438 0 c 4
 138.783 0 47.5 90.1582 47.5 201.938 c 4
 47.5 313.717 138.783 403.875 249.438 403.875 c 4
249.438 324 m 4
 182.667 324 127.375 269.842 127.375 201.938 c 4
 127.375 134.042 182.667 79.875 249.438 79.875 c 4
 317.307 79.875 372.625 134.042 372.625 201.938 c 4
 372.625 269.842 317.298 324 249.438 324 c 4
EndSplineSet
Validated: 1
EndChar

StartChar: uni0097
Encoding: 151 151 113
Width: 500
VWidth: 0
Flags: W
HStem: 0 79.875<180.914 318.671> 324 79.875<180.914 318.668>
VStem: 47.5 79.875<132.941 270.936> 372.625 79.875<132.941 270.936>
LayerCount: 2
Fore
SplineSet
249.438 403.875 m 4
 361.19 403.875 452.5 313.717 452.5 201.938 c 4
 452.5 90.1582 361.199 0 249.438 0 c 4
 138.783 0 47.5 90.1582 47.5 201.938 c 4
 47.5 313.717 138.783 403.875 249.438 403.875 c 4
249.438 324 m 4
 182.667 324 127.375 269.842 127.375 201.938 c 4
 127.375 134.042 182.667 79.875 249.438 79.875 c 4
 317.307 79.875 372.625 134.042 372.625 201.938 c 4
 372.625 269.842 317.298 324 249.438 324 c 4
EndSplineSet
Validated: 1
EndChar

StartChar: uni0098
Encoding: 152 152 114
Width: 500
VWidth: 0
Flags: W
HStem: 0 79.875<180.914 318.671> 324 79.875<180.914 318.668>
VStem: 47.5 79.875<132.941 270.936> 372.625 79.875<132.941 270.936>
LayerCount: 2
Fore
SplineSet
249.438 403.875 m 4
 361.19 403.875 452.5 313.717 452.5 201.938 c 4
 452.5 90.1582 361.199 0 249.438 0 c 4
 138.783 0 47.5 90.1582 47.5 201.938 c 4
 47.5 313.717 138.783 403.875 249.438 403.875 c 4
249.438 324 m 4
 182.667 324 127.375 269.842 127.375 201.938 c 4
 127.375 134.042 182.667 79.875 249.438 79.875 c 4
 317.307 79.875 372.625 134.042 372.625 201.938 c 4
 372.625 269.842 317.298 324 249.438 324 c 4
EndSplineSet
Validated: 1
EndChar

StartChar: uni0099
Encoding: 153 153 115
Width: 500
VWidth: 0
Flags: W
HStem: 0 79.875<180.914 318.671> 324 79.875<180.914 318.668>
VStem: 47.5 79.875<132.941 270.936> 372.625 79.875<132.941 270.936>
LayerCount: 2
Fore
SplineSet
249.438 403.875 m 4
 361.19 403.875 452.5 313.717 452.5 201.938 c 4
 452.5 90.1582 361.199 0 249.438 0 c 4
 138.783 0 47.5 90.1582 47.5 201.938 c 4
 47.5 313.717 138.783 403.875 249.438 403.875 c 4
249.438 324 m 4
 182.667 324 127.375 269.842 127.375 201.938 c 4
 127.375 134.042 182.667 79.875 249.438 79.875 c 4
 317.307 79.875 372.625 134.042 372.625 201.938 c 4
 372.625 269.842 317.298 324 249.438 324 c 4
EndSplineSet
Validated: 1
EndChar

StartChar: uni009A
Encoding: 154 154 116
Width: 500
VWidth: 0
Flags: W
HStem: 0 79.875<180.914 318.671> 324 79.875<180.914 318.668>
VStem: 47.5 79.875<132.941 270.936> 372.625 79.875<132.941 270.936>
LayerCount: 2
Fore
SplineSet
249.438 403.875 m 4
 361.19 403.875 452.5 313.717 452.5 201.938 c 4
 452.5 90.1582 361.199 0 249.438 0 c 4
 138.783 0 47.5 90.1582 47.5 201.938 c 4
 47.5 313.717 138.783 403.875 249.438 403.875 c 4
249.438 324 m 4
 182.667 324 127.375 269.842 127.375 201.938 c 4
 127.375 134.042 182.667 79.875 249.438 79.875 c 4
 317.307 79.875 372.625 134.042 372.625 201.938 c 4
 372.625 269.842 317.298 324 249.438 324 c 4
EndSplineSet
Validated: 1
EndChar

StartChar: uni009B
Encoding: 155 155 117
Width: 500
VWidth: 0
Flags: W
HStem: 0 79.875<180.914 318.671> 324 79.875<180.914 318.668>
VStem: 47.5 79.875<132.941 270.936> 372.625 79.875<132.941 270.936>
LayerCount: 2
Fore
SplineSet
249.438 403.875 m 4
 361.19 403.875 452.5 313.717 452.5 201.938 c 4
 452.5 90.1582 361.199 0 249.438 0 c 4
 138.783 0 47.5 90.1582 47.5 201.938 c 4
 47.5 313.717 138.783 403.875 249.438 403.875 c 4
249.438 324 m 4
 182.667 324 127.375 269.842 127.375 201.938 c 4
 127.375 134.042 182.667 79.875 249.438 79.875 c 4
 317.307 79.875 372.625 134.042 372.625 201.938 c 4
 372.625 269.842 317.298 324 249.438 324 c 4
EndSplineSet
Validated: 1
EndChar

StartChar: uni009C
Encoding: 156 156 118
Width: 500
VWidth: 0
Flags: W
HStem: 0 79.875<180.914 318.671> 324 79.875<180.914 318.668>
VStem: 47.5 79.875<132.941 270.936> 372.625 79.875<132.941 270.936>
LayerCount: 2
Fore
SplineSet
249.438 403.875 m 4
 361.19 403.875 452.5 313.717 452.5 201.938 c 4
 452.5 90.1582 361.199 0 249.438 0 c 4
 138.783 0 47.5 90.1582 47.5 201.938 c 4
 47.5 313.717 138.783 403.875 249.438 403.875 c 4
249.438 324 m 4
 182.667 324 127.375 269.842 127.375 201.938 c 4
 127.375 134.042 182.667 79.875 249.438 79.875 c 4
 317.307 79.875 372.625 134.042 372.625 201.938 c 4
 372.625 269.842 317.298 324 249.438 324 c 4
EndSplineSet
Validated: 1
EndChar

StartChar: uni009D
Encoding: 157 157 119
Width: 500
VWidth: 0
Flags: W
HStem: 0 79.875<180.914 318.671> 324 79.875<180.914 318.668>
VStem: 47.5 79.875<132.941 270.936> 372.625 79.875<132.941 270.936>
LayerCount: 2
Fore
SplineSet
249.438 403.875 m 4
 361.19 403.875 452.5 313.717 452.5 201.938 c 4
 452.5 90.1582 361.199 0 249.438 0 c 4
 138.783 0 47.5 90.1582 47.5 201.938 c 4
 47.5 313.717 138.783 403.875 249.438 403.875 c 4
249.438 324 m 4
 182.667 324 127.375 269.842 127.375 201.938 c 4
 127.375 134.042 182.667 79.875 249.438 79.875 c 4
 317.307 79.875 372.625 134.042 372.625 201.938 c 4
 372.625 269.842 317.298 324 249.438 324 c 4
EndSplineSet
Validated: 1
EndChar

StartChar: uni009E
Encoding: 158 158 120
Width: 500
VWidth: 0
Flags: W
HStem: 0 79.875<180.914 318.671> 324 79.875<180.914 318.668>
VStem: 47.5 79.875<132.941 270.936> 372.625 79.875<132.941 270.936>
LayerCount: 2
Fore
SplineSet
249.438 403.875 m 4
 361.19 403.875 452.5 313.717 452.5 201.938 c 4
 452.5 90.1582 361.199 0 249.438 0 c 4
 138.783 0 47.5 90.1582 47.5 201.938 c 4
 47.5 313.717 138.783 403.875 249.438 403.875 c 4
249.438 324 m 4
 182.667 324 127.375 269.842 127.375 201.938 c 4
 127.375 134.042 182.667 79.875 249.438 79.875 c 4
 317.307 79.875 372.625 134.042 372.625 201.938 c 4
 372.625 269.842 317.298 324 249.438 324 c 4
EndSplineSet
Validated: 1
EndChar

StartChar: uni009F
Encoding: 159 159 121
Width: 500
VWidth: 0
Flags: W
HStem: 0 79.875<180.914 318.671> 324 79.875<180.914 318.668>
VStem: 47.5 79.875<132.941 270.936> 372.625 79.875<132.941 270.936>
LayerCount: 2
Fore
SplineSet
249.438 403.875 m 4
 361.19 403.875 452.5 313.717 452.5 201.938 c 4
 452.5 90.1582 361.199 0 249.438 0 c 4
 138.783 0 47.5 90.1582 47.5 201.938 c 4
 47.5 313.717 138.783 403.875 249.438 403.875 c 4
249.438 324 m 4
 182.667 324 127.375 269.842 127.375 201.938 c 4
 127.375 134.042 182.667 79.875 249.438 79.875 c 4
 317.307 79.875 372.625 134.042 372.625 201.938 c 4
 372.625 269.842 317.298 324 249.438 324 c 4
EndSplineSet
Validated: 1
EndChar

StartChar: uni00A0
Encoding: 160 160 122
Width: 500
VWidth: 0
Flags: W
HStem: 0 79.875<180.914 318.671> 324 79.875<180.914 318.668>
VStem: 47.5 79.875<132.941 270.936> 372.625 79.875<132.941 270.936>
LayerCount: 2
Fore
SplineSet
249.438 403.875 m 4
 361.19 403.875 452.5 313.717 452.5 201.938 c 4
 452.5 90.1582 361.199 0 249.438 0 c 4
 138.783 0 47.5 90.1582 47.5 201.938 c 4
 47.5 313.717 138.783 403.875 249.438 403.875 c 4
249.438 324 m 4
 182.667 324 127.375 269.842 127.375 201.938 c 4
 127.375 134.042 182.667 79.875 249.438 79.875 c 4
 317.307 79.875 372.625 134.042 372.625 201.938 c 4
 372.625 269.842 317.298 324 249.438 324 c 4
EndSplineSet
Validated: 1
EndChar

StartChar: exclamdown
Encoding: 161 161 123
Width: 500
VWidth: 0
Flags: W
HStem: 0 79.875<180.914 318.671> 324 79.875<180.914 318.668>
VStem: 47.5 79.875<132.941 270.936> 372.625 79.875<132.941 270.936>
LayerCount: 2
Fore
SplineSet
249.438 403.875 m 4
 361.19 403.875 452.5 313.717 452.5 201.938 c 4
 452.5 90.1582 361.199 0 249.438 0 c 4
 138.783 0 47.5 90.1582 47.5 201.938 c 4
 47.5 313.717 138.783 403.875 249.438 403.875 c 4
249.438 324 m 4
 182.667 324 127.375 269.842 127.375 201.938 c 4
 127.375 134.042 182.667 79.875 249.438 79.875 c 4
 317.307 79.875 372.625 134.042 372.625 201.938 c 4
 372.625 269.842 317.298 324 249.438 324 c 4
EndSplineSet
Validated: 1
EndChar

StartChar: cent
Encoding: 162 162 124
Width: 500
VWidth: 0
Flags: W
HStem: 0 79.875<180.914 318.671> 324 79.875<180.914 318.668>
VStem: 47.5 79.875<132.941 270.936> 372.625 79.875<132.941 270.936>
LayerCount: 2
Fore
SplineSet
249.438 403.875 m 4
 361.19 403.875 452.5 313.717 452.5 201.938 c 4
 452.5 90.1582 361.199 0 249.438 0 c 4
 138.783 0 47.5 90.1582 47.5 201.938 c 4
 47.5 313.717 138.783 403.875 249.438 403.875 c 4
249.438 324 m 4
 182.667 324 127.375 269.842 127.375 201.938 c 4
 127.375 134.042 182.667 79.875 249.438 79.875 c 4
 317.307 79.875 372.625 134.042 372.625 201.938 c 4
 372.625 269.842 317.298 324 249.438 324 c 4
EndSplineSet
Validated: 1
EndChar

StartChar: sterling
Encoding: 163 163 125
Width: 500
VWidth: 0
Flags: W
HStem: 0 79.875<180.914 318.671> 324 79.875<180.914 318.668>
VStem: 47.5 79.875<132.941 270.936> 372.625 79.875<132.941 270.936>
LayerCount: 2
Fore
SplineSet
249.438 403.875 m 4
 361.19 403.875 452.5 313.717 452.5 201.938 c 4
 452.5 90.1582 361.199 0 249.438 0 c 4
 138.783 0 47.5 90.1582 47.5 201.938 c 4
 47.5 313.717 138.783 403.875 249.438 403.875 c 4
249.438 324 m 4
 182.667 324 127.375 269.842 127.375 201.938 c 4
 127.375 134.042 182.667 79.875 249.438 79.875 c 4
 317.307 79.875 372.625 134.042 372.625 201.938 c 4
 372.625 269.842 317.298 324 249.438 324 c 4
EndSplineSet
Validated: 1
EndChar

StartChar: currency
Encoding: 164 164 126
Width: 500
VWidth: 0
Flags: W
HStem: 0 79.875<180.914 318.671> 324 79.875<180.914 318.668>
VStem: 47.5 79.875<132.941 270.936> 372.625 79.875<132.941 270.936>
LayerCount: 2
Fore
SplineSet
249.438 403.875 m 4
 361.19 403.875 452.5 313.717 452.5 201.938 c 4
 452.5 90.1582 361.199 0 249.438 0 c 4
 138.783 0 47.5 90.1582 47.5 201.938 c 4
 47.5 313.717 138.783 403.875 249.438 403.875 c 4
249.438 324 m 4
 182.667 324 127.375 269.842 127.375 201.938 c 4
 127.375 134.042 182.667 79.875 249.438 79.875 c 4
 317.307 79.875 372.625 134.042 372.625 201.938 c 4
 372.625 269.842 317.298 324 249.438 324 c 4
EndSplineSet
Validated: 1
EndChar

StartChar: yen
Encoding: 165 165 127
Width: 500
VWidth: 0
Flags: W
HStem: 0 79.875<180.914 318.671> 324 79.875<180.914 318.668>
VStem: 47.5 79.875<132.941 270.936> 372.625 79.875<132.941 270.936>
LayerCount: 2
Fore
SplineSet
249.438 403.875 m 4
 361.19 403.875 452.5 313.717 452.5 201.938 c 4
 452.5 90.1582 361.199 0 249.438 0 c 4
 138.783 0 47.5 90.1582 47.5 201.938 c 4
 47.5 313.717 138.783 403.875 249.438 403.875 c 4
249.438 324 m 4
 182.667 324 127.375 269.842 127.375 201.938 c 4
 127.375 134.042 182.667 79.875 249.438 79.875 c 4
 317.307 79.875 372.625 134.042 372.625 201.938 c 4
 372.625 269.842 317.298 324 249.438 324 c 4
EndSplineSet
Validated: 1
EndChar

StartChar: brokenbar
Encoding: 166 166 128
Width: 500
VWidth: 0
Flags: W
HStem: 0 79.875<180.914 318.671> 324 79.875<180.914 318.668>
VStem: 47.5 79.875<132.941 270.936> 372.625 79.875<132.941 270.936>
LayerCount: 2
Fore
SplineSet
249.438 403.875 m 4
 361.19 403.875 452.5 313.717 452.5 201.938 c 4
 452.5 90.1582 361.199 0 249.438 0 c 4
 138.783 0 47.5 90.1582 47.5 201.938 c 4
 47.5 313.717 138.783 403.875 249.438 403.875 c 4
249.438 324 m 4
 182.667 324 127.375 269.842 127.375 201.938 c 4
 127.375 134.042 182.667 79.875 249.438 79.875 c 4
 317.307 79.875 372.625 134.042 372.625 201.938 c 4
 372.625 269.842 317.298 324 249.438 324 c 4
EndSplineSet
Validated: 1
EndChar

StartChar: section
Encoding: 167 167 129
Width: 500
VWidth: 0
Flags: W
HStem: 0 79.875<180.914 318.671> 324 79.875<180.914 318.668>
VStem: 47.5 79.875<132.941 270.936> 372.625 79.875<132.941 270.936>
LayerCount: 2
Fore
SplineSet
249.438 403.875 m 4
 361.19 403.875 452.5 313.717 452.5 201.938 c 4
 452.5 90.1582 361.199 0 249.438 0 c 4
 138.783 0 47.5 90.1582 47.5 201.938 c 4
 47.5 313.717 138.783 403.875 249.438 403.875 c 4
249.438 324 m 4
 182.667 324 127.375 269.842 127.375 201.938 c 4
 127.375 134.042 182.667 79.875 249.438 79.875 c 4
 317.307 79.875 372.625 134.042 372.625 201.938 c 4
 372.625 269.842 317.298 324 249.438 324 c 4
EndSplineSet
Validated: 1
EndChar

StartChar: dieresis
Encoding: 168 168 130
Width: 500
VWidth: 0
Flags: W
HStem: 0 79.875<180.914 318.671> 324 79.875<180.914 318.668>
VStem: 47.5 79.875<132.941 270.936> 372.625 79.875<132.941 270.936>
LayerCount: 2
Fore
SplineSet
249.438 403.875 m 4
 361.19 403.875 452.5 313.717 452.5 201.938 c 4
 452.5 90.1582 361.199 0 249.438 0 c 4
 138.783 0 47.5 90.1582 47.5 201.938 c 4
 47.5 313.717 138.783 403.875 249.438 403.875 c 4
249.438 324 m 4
 182.667 324 127.375 269.842 127.375 201.938 c 4
 127.375 134.042 182.667 79.875 249.438 79.875 c 4
 317.307 79.875 372.625 134.042 372.625 201.938 c 4
 372.625 269.842 317.298 324 249.438 324 c 4
EndSplineSet
Validated: 1
EndChar

StartChar: copyright
Encoding: 169 169 131
Width: 1000
VWidth: 0
Flags: W
HStem: 0 85.5<594.565 655.672> 279 85.5<741.172 900.922> 398.25 85.5<542.047 655.672> 637.875 85.5<792.258 941.422>
VStem: 456.547 85.5<135.638 274.781 483.75 723.375> 655.672 85.5<85.5 279 364.5 398.25 483.75 587.755>
LayerCount: 2
Fore
SplineSet
542.047 398.25 m 1
 542.047 201.938 l 2
 542.047 139.184 593.252 87.0381 655.672 85.5 c 1
 655.672 398.25 l 1
 542.047 398.25 l 1
456.547 723.375 m 1
 459.359 723.375 l 1
 499.859 723.375 l 1
 539.234 723.375 l 1
 542.047 723.375 l 1
 542.047 720.562 l 1
 542.047 483.75 l 1
 619.109 483.75 l 1
 655.672 483.75 l 1
 655.672 521.438 l 1
 655.672 524.25 l 2
 657.184 633.779 746.393 721.881 855.922 723.375 c 2
 858.734 723.375 l 1
 938.609 723.375 l 1
 941.422 723.375 l 1
 941.422 720.562 l 1
 941.422 640.688 l 1
 941.422 637.875 l 1
 938.609 637.875 l 1
 898.109 637.875 l 1
 858.734 637.875 l 1
 855.922 637.875 l 2
 792.368 636.372 741.172 584.209 741.172 521.438 c 2
 741.172 364.5 l 1
 898.109 364.5 l 1
 900.922 364.5 l 1
 900.922 361.688 l 1
 900.922 281.812 l 1
 900.922 279 l 1
 898.109 279 l 1
 818.234 279 l 1
 741.172 279 l 1
 741.172 2.8125 l 1
 741.172 0 l 1
 738.359 0 l 1
 698.984 0 l 1
 658.484 0 l 2
 548.762 0 458.067 88.6465 456.547 199.125 c 2
 456.547 201.938 l 1
 456.547 274.781 l 1
 342.641 1.6875 l 1
 340.109 2.8125 l 1
 340.109 0 l 1
 260.234 0 l 1
 260.234 2.8125 l 1
 257.422 1.6875 l 1
 58.5781 479.812 l 1
 61.1094 480.938 l 1
 61.1094 483.75 l 1
 140.984 483.75 l 1
 140.984 480.938 l 1
 143.797 482.062 l 1
 300.172 106.312 l 1
 456.547 481.5 l 1
 456.547 720.562 l 1
 456.547 723.375 l 1
EndSplineSet
Validated: 1
EndChar

StartChar: ordfeminine
Encoding: 170 170 132
Width: 500
VWidth: 0
Flags: W
HStem: 0 79.875<180.914 318.671> 324 79.875<180.914 318.668>
VStem: 47.5 79.875<132.941 270.936> 372.625 79.875<132.941 270.936>
LayerCount: 2
Fore
SplineSet
249.438 403.875 m 4
 361.19 403.875 452.5 313.717 452.5 201.938 c 4
 452.5 90.1582 361.199 0 249.438 0 c 4
 138.783 0 47.5 90.1582 47.5 201.938 c 4
 47.5 313.717 138.783 403.875 249.438 403.875 c 4
249.438 324 m 4
 182.667 324 127.375 269.842 127.375 201.938 c 4
 127.375 134.042 182.667 79.875 249.438 79.875 c 4
 317.307 79.875 372.625 134.042 372.625 201.938 c 4
 372.625 269.842 317.298 324 249.438 324 c 4
EndSplineSet
Validated: 1
EndChar

StartChar: guillemotleft
Encoding: 171 171 133
Width: 500
VWidth: 0
Flags: W
HStem: 0 79.875<180.914 318.671> 324 79.875<180.914 318.668>
VStem: 47.5 79.875<132.941 270.936> 372.625 79.875<132.941 270.936>
LayerCount: 2
Fore
SplineSet
249.438 403.875 m 4
 361.19 403.875 452.5 313.717 452.5 201.938 c 4
 452.5 90.1582 361.199 0 249.438 0 c 4
 138.783 0 47.5 90.1582 47.5 201.938 c 4
 47.5 313.717 138.783 403.875 249.438 403.875 c 4
249.438 324 m 4
 182.667 324 127.375 269.842 127.375 201.938 c 4
 127.375 134.042 182.667 79.875 249.438 79.875 c 4
 317.307 79.875 372.625 134.042 372.625 201.938 c 4
 372.625 269.842 317.298 324 249.438 324 c 4
EndSplineSet
Validated: 1
EndChar

StartChar: logicalnot
Encoding: 172 172 134
Width: 500
VWidth: 0
Flags: W
HStem: 0 79.875<180.914 318.671> 324 79.875<180.914 318.668>
VStem: 47.5 79.875<132.941 270.936> 372.625 79.875<132.941 270.936>
LayerCount: 2
Fore
SplineSet
249.438 403.875 m 4
 361.19 403.875 452.5 313.717 452.5 201.938 c 4
 452.5 90.1582 361.199 0 249.438 0 c 4
 138.783 0 47.5 90.1582 47.5 201.938 c 4
 47.5 313.717 138.783 403.875 249.438 403.875 c 4
249.438 324 m 4
 182.667 324 127.375 269.842 127.375 201.938 c 4
 127.375 134.042 182.667 79.875 249.438 79.875 c 4
 317.307 79.875 372.625 134.042 372.625 201.938 c 4
 372.625 269.842 317.298 324 249.438 324 c 4
EndSplineSet
Validated: 1
EndChar

StartChar: uni00AD
Encoding: 173 173 135
Width: 500
VWidth: 0
Flags: W
HStem: 0 79.875<180.914 318.671> 324 79.875<180.914 318.668>
VStem: 47.5 79.875<132.941 270.936> 372.625 79.875<132.941 270.936>
LayerCount: 2
Fore
SplineSet
249.438 403.875 m 4
 361.19 403.875 452.5 313.717 452.5 201.938 c 4
 452.5 90.1582 361.199 0 249.438 0 c 4
 138.783 0 47.5 90.1582 47.5 201.938 c 4
 47.5 313.717 138.783 403.875 249.438 403.875 c 4
249.438 324 m 4
 182.667 324 127.375 269.842 127.375 201.938 c 4
 127.375 134.042 182.667 79.875 249.438 79.875 c 4
 317.307 79.875 372.625 134.042 372.625 201.938 c 4
 372.625 269.842 317.298 324 249.438 324 c 4
EndSplineSet
Validated: 1
EndChar

StartChar: registered
Encoding: 174 174 136
Width: 500
VWidth: 0
Flags: W
HStem: 0 79.875<180.914 318.671> 324 79.875<180.914 318.668>
VStem: 47.5 79.875<132.941 270.936> 372.625 79.875<132.941 270.936>
LayerCount: 2
Fore
SplineSet
249.438 403.875 m 4
 361.19 403.875 452.5 313.717 452.5 201.938 c 4
 452.5 90.1582 361.199 0 249.438 0 c 4
 138.783 0 47.5 90.1582 47.5 201.938 c 4
 47.5 313.717 138.783 403.875 249.438 403.875 c 4
249.438 324 m 4
 182.667 324 127.375 269.842 127.375 201.938 c 4
 127.375 134.042 182.667 79.875 249.438 79.875 c 4
 317.307 79.875 372.625 134.042 372.625 201.938 c 4
 372.625 269.842 317.298 324 249.438 324 c 4
EndSplineSet
Validated: 1
EndChar

StartChar: macron
Encoding: 175 175 137
Width: 500
VWidth: 0
Flags: W
HStem: 0 79.875<180.914 318.671> 324 79.875<180.914 318.668>
VStem: 47.5 79.875<132.941 270.936> 372.625 79.875<132.941 270.936>
LayerCount: 2
Fore
SplineSet
249.438 403.875 m 4
 361.19 403.875 452.5 313.717 452.5 201.938 c 4
 452.5 90.1582 361.199 0 249.438 0 c 4
 138.783 0 47.5 90.1582 47.5 201.938 c 4
 47.5 313.717 138.783 403.875 249.438 403.875 c 4
249.438 324 m 4
 182.667 324 127.375 269.842 127.375 201.938 c 4
 127.375 134.042 182.667 79.875 249.438 79.875 c 4
 317.307 79.875 372.625 134.042 372.625 201.938 c 4
 372.625 269.842 317.298 324 249.438 324 c 4
EndSplineSet
Validated: 1
EndChar

StartChar: plusminus
Encoding: 177 177 138
Width: 500
VWidth: 0
Flags: W
HStem: 0 79.875<180.914 318.671> 324 79.875<180.914 318.668>
VStem: 47.5 79.875<132.941 270.936> 372.625 79.875<132.941 270.936>
LayerCount: 2
Fore
SplineSet
249.438 403.875 m 4
 361.19 403.875 452.5 313.717 452.5 201.938 c 4
 452.5 90.1582 361.199 0 249.438 0 c 4
 138.783 0 47.5 90.1582 47.5 201.938 c 4
 47.5 313.717 138.783 403.875 249.438 403.875 c 4
249.438 324 m 4
 182.667 324 127.375 269.842 127.375 201.938 c 4
 127.375 134.042 182.667 79.875 249.438 79.875 c 4
 317.307 79.875 372.625 134.042 372.625 201.938 c 4
 372.625 269.842 317.298 324 249.438 324 c 4
EndSplineSet
Validated: 1
EndChar

StartChar: uni00B2
Encoding: 178 178 139
Width: 500
VWidth: 0
Flags: W
HStem: 0 79.875<180.914 318.671> 324 79.875<180.914 318.668>
VStem: 47.5 79.875<132.941 270.936> 372.625 79.875<132.941 270.936>
LayerCount: 2
Fore
SplineSet
249.438 403.875 m 4
 361.19 403.875 452.5 313.717 452.5 201.938 c 4
 452.5 90.1582 361.199 0 249.438 0 c 4
 138.783 0 47.5 90.1582 47.5 201.938 c 4
 47.5 313.717 138.783 403.875 249.438 403.875 c 4
249.438 324 m 4
 182.667 324 127.375 269.842 127.375 201.938 c 4
 127.375 134.042 182.667 79.875 249.438 79.875 c 4
 317.307 79.875 372.625 134.042 372.625 201.938 c 4
 372.625 269.842 317.298 324 249.438 324 c 4
EndSplineSet
Validated: 1
EndChar

StartChar: uni00B3
Encoding: 179 179 140
Width: 500
VWidth: 0
Flags: W
HStem: 0 79.875<180.914 318.671> 324 79.875<180.914 318.668>
VStem: 47.5 79.875<132.941 270.936> 372.625 79.875<132.941 270.936>
LayerCount: 2
Fore
SplineSet
249.438 403.875 m 4
 361.19 403.875 452.5 313.717 452.5 201.938 c 4
 452.5 90.1582 361.199 0 249.438 0 c 4
 138.783 0 47.5 90.1582 47.5 201.938 c 4
 47.5 313.717 138.783 403.875 249.438 403.875 c 4
249.438 324 m 4
 182.667 324 127.375 269.842 127.375 201.938 c 4
 127.375 134.042 182.667 79.875 249.438 79.875 c 4
 317.307 79.875 372.625 134.042 372.625 201.938 c 4
 372.625 269.842 317.298 324 249.438 324 c 4
EndSplineSet
Validated: 1
EndChar

StartChar: acute
Encoding: 180 180 141
Width: 500
VWidth: 0
Flags: W
HStem: 0 79.875<180.914 318.671> 324 79.875<180.914 318.668>
VStem: 47.5 79.875<132.941 270.936> 372.625 79.875<132.941 270.936>
LayerCount: 2
Fore
SplineSet
249.438 403.875 m 4
 361.19 403.875 452.5 313.717 452.5 201.938 c 4
 452.5 90.1582 361.199 0 249.438 0 c 4
 138.783 0 47.5 90.1582 47.5 201.938 c 4
 47.5 313.717 138.783 403.875 249.438 403.875 c 4
249.438 324 m 4
 182.667 324 127.375 269.842 127.375 201.938 c 4
 127.375 134.042 182.667 79.875 249.438 79.875 c 4
 317.307 79.875 372.625 134.042 372.625 201.938 c 4
 372.625 269.842 317.298 324 249.438 324 c 4
EndSplineSet
Validated: 1
EndChar

StartChar: uni00B5
Encoding: 181 181 142
Width: 500
VWidth: 0
Flags: W
HStem: 0 79.875<180.914 318.671> 324 79.875<180.914 318.668>
VStem: 47.5 79.875<132.941 270.936> 372.625 79.875<132.941 270.936>
LayerCount: 2
Fore
SplineSet
249.438 403.875 m 4
 361.19 403.875 452.5 313.717 452.5 201.938 c 4
 452.5 90.1582 361.199 0 249.438 0 c 4
 138.783 0 47.5 90.1582 47.5 201.938 c 4
 47.5 313.717 138.783 403.875 249.438 403.875 c 4
249.438 324 m 4
 182.667 324 127.375 269.842 127.375 201.938 c 4
 127.375 134.042 182.667 79.875 249.438 79.875 c 4
 317.307 79.875 372.625 134.042 372.625 201.938 c 4
 372.625 269.842 317.298 324 249.438 324 c 4
EndSplineSet
Validated: 1
EndChar

StartChar: paragraph
Encoding: 182 182 143
Width: 500
VWidth: 0
Flags: W
HStem: 0 79.875<180.914 318.671> 324 79.875<180.914 318.668>
VStem: 47.5 79.875<132.941 270.936> 372.625 79.875<132.941 270.936>
LayerCount: 2
Fore
SplineSet
249.438 403.875 m 4
 361.19 403.875 452.5 313.717 452.5 201.938 c 4
 452.5 90.1582 361.199 0 249.438 0 c 4
 138.783 0 47.5 90.1582 47.5 201.938 c 4
 47.5 313.717 138.783 403.875 249.438 403.875 c 4
249.438 324 m 4
 182.667 324 127.375 269.842 127.375 201.938 c 4
 127.375 134.042 182.667 79.875 249.438 79.875 c 4
 317.307 79.875 372.625 134.042 372.625 201.938 c 4
 372.625 269.842 317.298 324 249.438 324 c 4
EndSplineSet
Validated: 1
EndChar

StartChar: periodcentered
Encoding: 183 183 144
Width: 500
VWidth: 0
Flags: W
HStem: 0 79.875<180.914 318.671> 324 79.875<180.914 318.668>
VStem: 47.5 79.875<132.941 270.936> 372.625 79.875<132.941 270.936>
LayerCount: 2
Fore
SplineSet
249.438 403.875 m 4
 361.19 403.875 452.5 313.717 452.5 201.938 c 4
 452.5 90.1582 361.199 0 249.438 0 c 4
 138.783 0 47.5 90.1582 47.5 201.938 c 4
 47.5 313.717 138.783 403.875 249.438 403.875 c 4
249.438 324 m 4
 182.667 324 127.375 269.842 127.375 201.938 c 4
 127.375 134.042 182.667 79.875 249.438 79.875 c 4
 317.307 79.875 372.625 134.042 372.625 201.938 c 4
 372.625 269.842 317.298 324 249.438 324 c 4
EndSplineSet
Validated: 1
EndChar

StartChar: cedilla
Encoding: 184 184 145
Width: 500
VWidth: 0
Flags: W
HStem: 0 79.875<180.914 318.671> 324 79.875<180.914 318.668>
VStem: 47.5 79.875<132.941 270.936> 372.625 79.875<132.941 270.936>
LayerCount: 2
Fore
SplineSet
249.438 403.875 m 4
 361.19 403.875 452.5 313.717 452.5 201.938 c 4
 452.5 90.1582 361.199 0 249.438 0 c 4
 138.783 0 47.5 90.1582 47.5 201.938 c 4
 47.5 313.717 138.783 403.875 249.438 403.875 c 4
249.438 324 m 4
 182.667 324 127.375 269.842 127.375 201.938 c 4
 127.375 134.042 182.667 79.875 249.438 79.875 c 4
 317.307 79.875 372.625 134.042 372.625 201.938 c 4
 372.625 269.842 317.298 324 249.438 324 c 4
EndSplineSet
Validated: 1
EndChar

StartChar: uni00B9
Encoding: 185 185 146
Width: 500
VWidth: 0
Flags: W
HStem: 0 79.875<180.914 318.671> 324 79.875<180.914 318.668>
VStem: 47.5 79.875<132.941 270.936> 372.625 79.875<132.941 270.936>
LayerCount: 2
Fore
SplineSet
249.438 403.875 m 4
 361.19 403.875 452.5 313.717 452.5 201.938 c 4
 452.5 90.1582 361.199 0 249.438 0 c 4
 138.783 0 47.5 90.1582 47.5 201.938 c 4
 47.5 313.717 138.783 403.875 249.438 403.875 c 4
249.438 324 m 4
 182.667 324 127.375 269.842 127.375 201.938 c 4
 127.375 134.042 182.667 79.875 249.438 79.875 c 4
 317.307 79.875 372.625 134.042 372.625 201.938 c 4
 372.625 269.842 317.298 324 249.438 324 c 4
EndSplineSet
Validated: 1
EndChar

StartChar: ordmasculine
Encoding: 186 186 147
Width: 500
VWidth: 0
Flags: W
HStem: 0 79.875<180.914 318.671> 324 79.875<180.914 318.668>
VStem: 47.5 79.875<132.941 270.936> 372.625 79.875<132.941 270.936>
LayerCount: 2
Fore
SplineSet
249.438 403.875 m 4
 361.19 403.875 452.5 313.717 452.5 201.938 c 4
 452.5 90.1582 361.199 0 249.438 0 c 4
 138.783 0 47.5 90.1582 47.5 201.938 c 4
 47.5 313.717 138.783 403.875 249.438 403.875 c 4
249.438 324 m 4
 182.667 324 127.375 269.842 127.375 201.938 c 4
 127.375 134.042 182.667 79.875 249.438 79.875 c 4
 317.307 79.875 372.625 134.042 372.625 201.938 c 4
 372.625 269.842 317.298 324 249.438 324 c 4
EndSplineSet
Validated: 1
EndChar

StartChar: guillemotright
Encoding: 187 187 148
Width: 500
VWidth: 0
Flags: W
HStem: 0 79.875<180.914 318.671> 324 79.875<180.914 318.668>
VStem: 47.5 79.875<132.941 270.936> 372.625 79.875<132.941 270.936>
LayerCount: 2
Fore
SplineSet
249.438 403.875 m 4
 361.19 403.875 452.5 313.717 452.5 201.938 c 4
 452.5 90.1582 361.199 0 249.438 0 c 4
 138.783 0 47.5 90.1582 47.5 201.938 c 4
 47.5 313.717 138.783 403.875 249.438 403.875 c 4
249.438 324 m 4
 182.667 324 127.375 269.842 127.375 201.938 c 4
 127.375 134.042 182.667 79.875 249.438 79.875 c 4
 317.307 79.875 372.625 134.042 372.625 201.938 c 4
 372.625 269.842 317.298 324 249.438 324 c 4
EndSplineSet
Validated: 1
EndChar

StartChar: onequarter
Encoding: 188 188 149
Width: 500
VWidth: 0
Flags: W
HStem: 0 79.875<180.914 318.671> 324 79.875<180.914 318.668>
VStem: 47.5 79.875<132.941 270.936> 372.625 79.875<132.941 270.936>
LayerCount: 2
Fore
SplineSet
249.438 403.875 m 4
 361.19 403.875 452.5 313.717 452.5 201.938 c 4
 452.5 90.1582 361.199 0 249.438 0 c 4
 138.783 0 47.5 90.1582 47.5 201.938 c 4
 47.5 313.717 138.783 403.875 249.438 403.875 c 4
249.438 324 m 4
 182.667 324 127.375 269.842 127.375 201.938 c 4
 127.375 134.042 182.667 79.875 249.438 79.875 c 4
 317.307 79.875 372.625 134.042 372.625 201.938 c 4
 372.625 269.842 317.298 324 249.438 324 c 4
EndSplineSet
Validated: 1
EndChar

StartChar: onehalf
Encoding: 189 189 150
Width: 500
VWidth: 0
Flags: W
HStem: 0 79.875<180.914 318.671> 324 79.875<180.914 318.668>
VStem: 47.5 79.875<132.941 270.936> 372.625 79.875<132.941 270.936>
LayerCount: 2
Fore
SplineSet
249.438 403.875 m 4
 361.19 403.875 452.5 313.717 452.5 201.938 c 4
 452.5 90.1582 361.199 0 249.438 0 c 4
 138.783 0 47.5 90.1582 47.5 201.938 c 4
 47.5 313.717 138.783 403.875 249.438 403.875 c 4
249.438 324 m 4
 182.667 324 127.375 269.842 127.375 201.938 c 4
 127.375 134.042 182.667 79.875 249.438 79.875 c 4
 317.307 79.875 372.625 134.042 372.625 201.938 c 4
 372.625 269.842 317.298 324 249.438 324 c 4
EndSplineSet
Validated: 1
EndChar

StartChar: threequarters
Encoding: 190 190 151
Width: 500
VWidth: 0
Flags: W
HStem: 0 79.875<180.914 318.671> 324 79.875<180.914 318.668>
VStem: 47.5 79.875<132.941 270.936> 372.625 79.875<132.941 270.936>
LayerCount: 2
Fore
SplineSet
249.438 403.875 m 4
 361.19 403.875 452.5 313.717 452.5 201.938 c 4
 452.5 90.1582 361.199 0 249.438 0 c 4
 138.783 0 47.5 90.1582 47.5 201.938 c 4
 47.5 313.717 138.783 403.875 249.438 403.875 c 4
249.438 324 m 4
 182.667 324 127.375 269.842 127.375 201.938 c 4
 127.375 134.042 182.667 79.875 249.438 79.875 c 4
 317.307 79.875 372.625 134.042 372.625 201.938 c 4
 372.625 269.842 317.298 324 249.438 324 c 4
EndSplineSet
Validated: 1
EndChar

StartChar: questiondown
Encoding: 191 191 152
Width: 500
VWidth: 0
Flags: W
HStem: 0 79.875<180.914 318.671> 324 79.875<180.914 318.668>
VStem: 47.5 79.875<132.941 270.936> 372.625 79.875<132.941 270.936>
LayerCount: 2
Fore
SplineSet
249.438 403.875 m 4
 361.19 403.875 452.5 313.717 452.5 201.938 c 4
 452.5 90.1582 361.199 0 249.438 0 c 4
 138.783 0 47.5 90.1582 47.5 201.938 c 4
 47.5 313.717 138.783 403.875 249.438 403.875 c 4
249.438 324 m 4
 182.667 324 127.375 269.842 127.375 201.938 c 4
 127.375 134.042 182.667 79.875 249.438 79.875 c 4
 317.307 79.875 372.625 134.042 372.625 201.938 c 4
 372.625 269.842 317.298 324 249.438 324 c 4
EndSplineSet
Validated: 1
EndChar

StartChar: Agrave
Encoding: 192 192 153
Width: 500
VWidth: 0
Flags: W
HStem: 0 79.875<180.914 318.671> 324 79.875<180.914 318.668>
VStem: 47.5 79.875<132.941 270.936> 372.625 79.875<132.941 270.936>
LayerCount: 2
Fore
SplineSet
249.438 403.875 m 4
 361.19 403.875 452.5 313.717 452.5 201.938 c 4
 452.5 90.1582 361.199 0 249.438 0 c 4
 138.783 0 47.5 90.1582 47.5 201.938 c 4
 47.5 313.717 138.783 403.875 249.438 403.875 c 4
249.438 324 m 4
 182.667 324 127.375 269.842 127.375 201.938 c 4
 127.375 134.042 182.667 79.875 249.438 79.875 c 4
 317.307 79.875 372.625 134.042 372.625 201.938 c 4
 372.625 269.842 317.298 324 249.438 324 c 4
EndSplineSet
Validated: 1
EndChar

StartChar: Aacute
Encoding: 193 193 154
Width: 500
VWidth: 0
Flags: W
HStem: 0 79.875<180.914 318.671> 324 79.875<180.914 318.668>
VStem: 47.5 79.875<132.941 270.936> 372.625 79.875<132.941 270.936>
LayerCount: 2
Fore
SplineSet
249.438 403.875 m 4
 361.19 403.875 452.5 313.717 452.5 201.938 c 4
 452.5 90.1582 361.199 0 249.438 0 c 4
 138.783 0 47.5 90.1582 47.5 201.938 c 4
 47.5 313.717 138.783 403.875 249.438 403.875 c 4
249.438 324 m 4
 182.667 324 127.375 269.842 127.375 201.938 c 4
 127.375 134.042 182.667 79.875 249.438 79.875 c 4
 317.307 79.875 372.625 134.042 372.625 201.938 c 4
 372.625 269.842 317.298 324 249.438 324 c 4
EndSplineSet
Validated: 1
EndChar

StartChar: Acircumflex
Encoding: 194 194 155
Width: 500
VWidth: 0
Flags: W
HStem: 0 79.875<180.914 318.671> 324 79.875<180.914 318.668>
VStem: 47.5 79.875<132.941 270.936> 372.625 79.875<132.941 270.936>
LayerCount: 2
Fore
SplineSet
249.438 403.875 m 4
 361.19 403.875 452.5 313.717 452.5 201.938 c 4
 452.5 90.1582 361.199 0 249.438 0 c 4
 138.783 0 47.5 90.1582 47.5 201.938 c 4
 47.5 313.717 138.783 403.875 249.438 403.875 c 4
249.438 324 m 4
 182.667 324 127.375 269.842 127.375 201.938 c 4
 127.375 134.042 182.667 79.875 249.438 79.875 c 4
 317.307 79.875 372.625 134.042 372.625 201.938 c 4
 372.625 269.842 317.298 324 249.438 324 c 4
EndSplineSet
Validated: 1
EndChar

StartChar: Atilde
Encoding: 195 195 156
Width: 500
VWidth: 0
Flags: W
HStem: 0 79.875<180.914 318.671> 324 79.875<180.914 318.668>
VStem: 47.5 79.875<132.941 270.936> 372.625 79.875<132.941 270.936>
LayerCount: 2
Fore
SplineSet
249.438 403.875 m 4
 361.19 403.875 452.5 313.717 452.5 201.938 c 4
 452.5 90.1582 361.199 0 249.438 0 c 4
 138.783 0 47.5 90.1582 47.5 201.938 c 4
 47.5 313.717 138.783 403.875 249.438 403.875 c 4
249.438 324 m 4
 182.667 324 127.375 269.842 127.375 201.938 c 4
 127.375 134.042 182.667 79.875 249.438 79.875 c 4
 317.307 79.875 372.625 134.042 372.625 201.938 c 4
 372.625 269.842 317.298 324 249.438 324 c 4
EndSplineSet
Validated: 1
EndChar

StartChar: Adieresis
Encoding: 196 196 157
Width: 500
VWidth: 0
Flags: W
HStem: 0 79.875<180.914 318.671> 324 79.875<180.914 318.668>
VStem: 47.5 79.875<132.941 270.936> 372.625 79.875<132.941 270.936>
LayerCount: 2
Fore
SplineSet
249.438 403.875 m 4
 361.19 403.875 452.5 313.717 452.5 201.938 c 4
 452.5 90.1582 361.199 0 249.438 0 c 4
 138.783 0 47.5 90.1582 47.5 201.938 c 4
 47.5 313.717 138.783 403.875 249.438 403.875 c 4
249.438 324 m 4
 182.667 324 127.375 269.842 127.375 201.938 c 4
 127.375 134.042 182.667 79.875 249.438 79.875 c 4
 317.307 79.875 372.625 134.042 372.625 201.938 c 4
 372.625 269.842 317.298 324 249.438 324 c 4
EndSplineSet
Validated: 1
EndChar

StartChar: Aring
Encoding: 197 197 158
Width: 500
VWidth: 0
Flags: W
HStem: 0 79.875<180.914 318.671> 324 79.875<180.914 318.668>
VStem: 47.5 79.875<132.941 270.936> 372.625 79.875<132.941 270.936>
LayerCount: 2
Fore
SplineSet
249.438 403.875 m 4
 361.19 403.875 452.5 313.717 452.5 201.938 c 4
 452.5 90.1582 361.199 0 249.438 0 c 4
 138.783 0 47.5 90.1582 47.5 201.938 c 4
 47.5 313.717 138.783 403.875 249.438 403.875 c 4
249.438 324 m 4
 182.667 324 127.375 269.842 127.375 201.938 c 4
 127.375 134.042 182.667 79.875 249.438 79.875 c 4
 317.307 79.875 372.625 134.042 372.625 201.938 c 4
 372.625 269.842 317.298 324 249.438 324 c 4
EndSplineSet
Validated: 1
EndChar

StartChar: AE
Encoding: 198 198 159
Width: 500
VWidth: 0
Flags: W
HStem: 0 79.875<180.914 318.671> 324 79.875<180.914 318.668>
VStem: 47.5 79.875<132.941 270.936> 372.625 79.875<132.941 270.936>
LayerCount: 2
Fore
SplineSet
249.438 403.875 m 4
 361.19 403.875 452.5 313.717 452.5 201.938 c 4
 452.5 90.1582 361.199 0 249.438 0 c 4
 138.783 0 47.5 90.1582 47.5 201.938 c 4
 47.5 313.717 138.783 403.875 249.438 403.875 c 4
249.438 324 m 4
 182.667 324 127.375 269.842 127.375 201.938 c 4
 127.375 134.042 182.667 79.875 249.438 79.875 c 4
 317.307 79.875 372.625 134.042 372.625 201.938 c 4
 372.625 269.842 317.298 324 249.438 324 c 4
EndSplineSet
Validated: 1
EndChar

StartChar: Ccedilla
Encoding: 199 199 160
Width: 500
VWidth: 0
Flags: W
HStem: 0 79.875<180.914 318.671> 324 79.875<180.914 318.668>
VStem: 47.5 79.875<132.941 270.936> 372.625 79.875<132.941 270.936>
LayerCount: 2
Fore
SplineSet
249.438 403.875 m 4
 361.19 403.875 452.5 313.717 452.5 201.938 c 4
 452.5 90.1582 361.199 0 249.438 0 c 4
 138.783 0 47.5 90.1582 47.5 201.938 c 4
 47.5 313.717 138.783 403.875 249.438 403.875 c 4
249.438 324 m 4
 182.667 324 127.375 269.842 127.375 201.938 c 4
 127.375 134.042 182.667 79.875 249.438 79.875 c 4
 317.307 79.875 372.625 134.042 372.625 201.938 c 4
 372.625 269.842 317.298 324 249.438 324 c 4
EndSplineSet
Validated: 1
EndChar

StartChar: Egrave
Encoding: 200 200 161
Width: 500
VWidth: 0
Flags: W
HStem: 0 79.875<180.914 318.671> 324 79.875<180.914 318.668>
VStem: 47.5 79.875<132.941 270.936> 372.625 79.875<132.941 270.936>
LayerCount: 2
Fore
SplineSet
249.438 403.875 m 4
 361.19 403.875 452.5 313.717 452.5 201.938 c 4
 452.5 90.1582 361.199 0 249.438 0 c 4
 138.783 0 47.5 90.1582 47.5 201.938 c 4
 47.5 313.717 138.783 403.875 249.438 403.875 c 4
249.438 324 m 4
 182.667 324 127.375 269.842 127.375 201.938 c 4
 127.375 134.042 182.667 79.875 249.438 79.875 c 4
 317.307 79.875 372.625 134.042 372.625 201.938 c 4
 372.625 269.842 317.298 324 249.438 324 c 4
EndSplineSet
Validated: 1
EndChar

StartChar: Eacute
Encoding: 201 201 162
Width: 500
VWidth: 0
Flags: W
HStem: 0 79.875<180.914 318.671> 324 79.875<180.914 318.668>
VStem: 47.5 79.875<132.941 270.936> 372.625 79.875<132.941 270.936>
LayerCount: 2
Fore
SplineSet
249.438 403.875 m 4
 361.19 403.875 452.5 313.717 452.5 201.938 c 4
 452.5 90.1582 361.199 0 249.438 0 c 4
 138.783 0 47.5 90.1582 47.5 201.938 c 4
 47.5 313.717 138.783 403.875 249.438 403.875 c 4
249.438 324 m 4
 182.667 324 127.375 269.842 127.375 201.938 c 4
 127.375 134.042 182.667 79.875 249.438 79.875 c 4
 317.307 79.875 372.625 134.042 372.625 201.938 c 4
 372.625 269.842 317.298 324 249.438 324 c 4
EndSplineSet
Validated: 1
EndChar

StartChar: Ecircumflex
Encoding: 202 202 163
Width: 500
VWidth: 0
Flags: W
HStem: 0 79.875<180.914 318.671> 324 79.875<180.914 318.668>
VStem: 47.5 79.875<132.941 270.936> 372.625 79.875<132.941 270.936>
LayerCount: 2
Fore
SplineSet
249.438 403.875 m 4
 361.19 403.875 452.5 313.717 452.5 201.938 c 4
 452.5 90.1582 361.199 0 249.438 0 c 4
 138.783 0 47.5 90.1582 47.5 201.938 c 4
 47.5 313.717 138.783 403.875 249.438 403.875 c 4
249.438 324 m 4
 182.667 324 127.375 269.842 127.375 201.938 c 4
 127.375 134.042 182.667 79.875 249.438 79.875 c 4
 317.307 79.875 372.625 134.042 372.625 201.938 c 4
 372.625 269.842 317.298 324 249.438 324 c 4
EndSplineSet
Validated: 1
EndChar

StartChar: Edieresis
Encoding: 203 203 164
Width: 500
VWidth: 0
Flags: W
HStem: 0 79.875<180.914 318.671> 324 79.875<180.914 318.668>
VStem: 47.5 79.875<132.941 270.936> 372.625 79.875<132.941 270.936>
LayerCount: 2
Fore
SplineSet
249.438 403.875 m 4
 361.19 403.875 452.5 313.717 452.5 201.938 c 4
 452.5 90.1582 361.199 0 249.438 0 c 4
 138.783 0 47.5 90.1582 47.5 201.938 c 4
 47.5 313.717 138.783 403.875 249.438 403.875 c 4
249.438 324 m 4
 182.667 324 127.375 269.842 127.375 201.938 c 4
 127.375 134.042 182.667 79.875 249.438 79.875 c 4
 317.307 79.875 372.625 134.042 372.625 201.938 c 4
 372.625 269.842 317.298 324 249.438 324 c 4
EndSplineSet
Validated: 1
EndChar

StartChar: Igrave
Encoding: 204 204 165
Width: 500
VWidth: 0
Flags: W
HStem: 0 79.875<180.914 318.671> 324 79.875<180.914 318.668>
VStem: 47.5 79.875<132.941 270.936> 372.625 79.875<132.941 270.936>
LayerCount: 2
Fore
SplineSet
249.438 403.875 m 4
 361.19 403.875 452.5 313.717 452.5 201.938 c 4
 452.5 90.1582 361.199 0 249.438 0 c 4
 138.783 0 47.5 90.1582 47.5 201.938 c 4
 47.5 313.717 138.783 403.875 249.438 403.875 c 4
249.438 324 m 4
 182.667 324 127.375 269.842 127.375 201.938 c 4
 127.375 134.042 182.667 79.875 249.438 79.875 c 4
 317.307 79.875 372.625 134.042 372.625 201.938 c 4
 372.625 269.842 317.298 324 249.438 324 c 4
EndSplineSet
Validated: 1
EndChar

StartChar: Iacute
Encoding: 205 205 166
Width: 500
VWidth: 0
Flags: W
HStem: 0 79.875<180.914 318.671> 324 79.875<180.914 318.668>
VStem: 47.5 79.875<132.941 270.936> 372.625 79.875<132.941 270.936>
LayerCount: 2
Fore
SplineSet
249.438 403.875 m 4
 361.19 403.875 452.5 313.717 452.5 201.938 c 4
 452.5 90.1582 361.199 0 249.438 0 c 4
 138.783 0 47.5 90.1582 47.5 201.938 c 4
 47.5 313.717 138.783 403.875 249.438 403.875 c 4
249.438 324 m 4
 182.667 324 127.375 269.842 127.375 201.938 c 4
 127.375 134.042 182.667 79.875 249.438 79.875 c 4
 317.307 79.875 372.625 134.042 372.625 201.938 c 4
 372.625 269.842 317.298 324 249.438 324 c 4
EndSplineSet
Validated: 1
EndChar

StartChar: Icircumflex
Encoding: 206 206 167
Width: 500
VWidth: 0
Flags: W
HStem: 0 79.875<180.914 318.671> 324 79.875<180.914 318.668>
VStem: 47.5 79.875<132.941 270.936> 372.625 79.875<132.941 270.936>
LayerCount: 2
Fore
SplineSet
249.438 403.875 m 4
 361.19 403.875 452.5 313.717 452.5 201.938 c 4
 452.5 90.1582 361.199 0 249.438 0 c 4
 138.783 0 47.5 90.1582 47.5 201.938 c 4
 47.5 313.717 138.783 403.875 249.438 403.875 c 4
249.438 324 m 4
 182.667 324 127.375 269.842 127.375 201.938 c 4
 127.375 134.042 182.667 79.875 249.438 79.875 c 4
 317.307 79.875 372.625 134.042 372.625 201.938 c 4
 372.625 269.842 317.298 324 249.438 324 c 4
EndSplineSet
Validated: 1
EndChar

StartChar: Idieresis
Encoding: 207 207 168
Width: 500
VWidth: 0
Flags: W
HStem: 0 79.875<180.914 318.671> 324 79.875<180.914 318.668>
VStem: 47.5 79.875<132.941 270.936> 372.625 79.875<132.941 270.936>
LayerCount: 2
Fore
SplineSet
249.438 403.875 m 4
 361.19 403.875 452.5 313.717 452.5 201.938 c 4
 452.5 90.1582 361.199 0 249.438 0 c 4
 138.783 0 47.5 90.1582 47.5 201.938 c 4
 47.5 313.717 138.783 403.875 249.438 403.875 c 4
249.438 324 m 4
 182.667 324 127.375 269.842 127.375 201.938 c 4
 127.375 134.042 182.667 79.875 249.438 79.875 c 4
 317.307 79.875 372.625 134.042 372.625 201.938 c 4
 372.625 269.842 317.298 324 249.438 324 c 4
EndSplineSet
Validated: 1
EndChar

StartChar: Eth
Encoding: 208 208 169
Width: 500
VWidth: 0
Flags: W
HStem: 0 79.875<180.914 318.671> 324 79.875<180.914 318.668>
VStem: 47.5 79.875<132.941 270.936> 372.625 79.875<132.941 270.936>
LayerCount: 2
Fore
SplineSet
249.438 403.875 m 4
 361.19 403.875 452.5 313.717 452.5 201.938 c 4
 452.5 90.1582 361.199 0 249.438 0 c 4
 138.783 0 47.5 90.1582 47.5 201.938 c 4
 47.5 313.717 138.783 403.875 249.438 403.875 c 4
249.438 324 m 4
 182.667 324 127.375 269.842 127.375 201.938 c 4
 127.375 134.042 182.667 79.875 249.438 79.875 c 4
 317.307 79.875 372.625 134.042 372.625 201.938 c 4
 372.625 269.842 317.298 324 249.438 324 c 4
EndSplineSet
Validated: 1
EndChar

StartChar: Ntilde
Encoding: 209 209 170
Width: 500
VWidth: 0
Flags: W
HStem: 0 79.875<180.914 318.671> 324 79.875<180.914 318.668>
VStem: 47.5 79.875<132.941 270.936> 372.625 79.875<132.941 270.936>
LayerCount: 2
Fore
SplineSet
249.438 403.875 m 4
 361.19 403.875 452.5 313.717 452.5 201.938 c 4
 452.5 90.1582 361.199 0 249.438 0 c 4
 138.783 0 47.5 90.1582 47.5 201.938 c 4
 47.5 313.717 138.783 403.875 249.438 403.875 c 4
249.438 324 m 4
 182.667 324 127.375 269.842 127.375 201.938 c 4
 127.375 134.042 182.667 79.875 249.438 79.875 c 4
 317.307 79.875 372.625 134.042 372.625 201.938 c 4
 372.625 269.842 317.298 324 249.438 324 c 4
EndSplineSet
Validated: 1
EndChar

StartChar: Ograve
Encoding: 210 210 171
Width: 500
VWidth: 0
Flags: W
HStem: 0 79.875<180.914 318.671> 324 79.875<180.914 318.668>
VStem: 47.5 79.875<132.941 270.936> 372.625 79.875<132.941 270.936>
LayerCount: 2
Fore
SplineSet
249.438 403.875 m 4
 361.19 403.875 452.5 313.717 452.5 201.938 c 4
 452.5 90.1582 361.199 0 249.438 0 c 4
 138.783 0 47.5 90.1582 47.5 201.938 c 4
 47.5 313.717 138.783 403.875 249.438 403.875 c 4
249.438 324 m 4
 182.667 324 127.375 269.842 127.375 201.938 c 4
 127.375 134.042 182.667 79.875 249.438 79.875 c 4
 317.307 79.875 372.625 134.042 372.625 201.938 c 4
 372.625 269.842 317.298 324 249.438 324 c 4
EndSplineSet
Validated: 1
EndChar

StartChar: Oacute
Encoding: 211 211 172
Width: 500
VWidth: 0
Flags: W
HStem: 0 79.875<180.914 318.671> 324 79.875<180.914 318.668>
VStem: 47.5 79.875<132.941 270.936> 372.625 79.875<132.941 270.936>
LayerCount: 2
Fore
SplineSet
249.438 403.875 m 4
 361.19 403.875 452.5 313.717 452.5 201.938 c 4
 452.5 90.1582 361.199 0 249.438 0 c 4
 138.783 0 47.5 90.1582 47.5 201.938 c 4
 47.5 313.717 138.783 403.875 249.438 403.875 c 4
249.438 324 m 4
 182.667 324 127.375 269.842 127.375 201.938 c 4
 127.375 134.042 182.667 79.875 249.438 79.875 c 4
 317.307 79.875 372.625 134.042 372.625 201.938 c 4
 372.625 269.842 317.298 324 249.438 324 c 4
EndSplineSet
Validated: 1
EndChar

StartChar: Ocircumflex
Encoding: 212 212 173
Width: 500
VWidth: 0
Flags: W
HStem: 0 79.875<180.914 318.671> 324 79.875<180.914 318.668>
VStem: 47.5 79.875<132.941 270.936> 372.625 79.875<132.941 270.936>
LayerCount: 2
Fore
SplineSet
249.438 403.875 m 4
 361.19 403.875 452.5 313.717 452.5 201.938 c 4
 452.5 90.1582 361.199 0 249.438 0 c 4
 138.783 0 47.5 90.1582 47.5 201.938 c 4
 47.5 313.717 138.783 403.875 249.438 403.875 c 4
249.438 324 m 4
 182.667 324 127.375 269.842 127.375 201.938 c 4
 127.375 134.042 182.667 79.875 249.438 79.875 c 4
 317.307 79.875 372.625 134.042 372.625 201.938 c 4
 372.625 269.842 317.298 324 249.438 324 c 4
EndSplineSet
Validated: 1
EndChar

StartChar: Otilde
Encoding: 213 213 174
Width: 500
VWidth: 0
Flags: W
HStem: 0 79.875<180.914 318.671> 324 79.875<180.914 318.668>
VStem: 47.5 79.875<132.941 270.936> 372.625 79.875<132.941 270.936>
LayerCount: 2
Fore
SplineSet
249.438 403.875 m 4
 361.19 403.875 452.5 313.717 452.5 201.938 c 4
 452.5 90.1582 361.199 0 249.438 0 c 4
 138.783 0 47.5 90.1582 47.5 201.938 c 4
 47.5 313.717 138.783 403.875 249.438 403.875 c 4
249.438 324 m 4
 182.667 324 127.375 269.842 127.375 201.938 c 4
 127.375 134.042 182.667 79.875 249.438 79.875 c 4
 317.307 79.875 372.625 134.042 372.625 201.938 c 4
 372.625 269.842 317.298 324 249.438 324 c 4
EndSplineSet
Validated: 1
EndChar

StartChar: Odieresis
Encoding: 214 214 175
Width: 500
VWidth: 0
Flags: W
HStem: 0 79.875<180.914 318.671> 324 79.875<180.914 318.668>
VStem: 47.5 79.875<132.941 270.936> 372.625 79.875<132.941 270.936>
LayerCount: 2
Fore
SplineSet
249.438 403.875 m 4
 361.19 403.875 452.5 313.717 452.5 201.938 c 4
 452.5 90.1582 361.199 0 249.438 0 c 4
 138.783 0 47.5 90.1582 47.5 201.938 c 4
 47.5 313.717 138.783 403.875 249.438 403.875 c 4
249.438 324 m 4
 182.667 324 127.375 269.842 127.375 201.938 c 4
 127.375 134.042 182.667 79.875 249.438 79.875 c 4
 317.307 79.875 372.625 134.042 372.625 201.938 c 4
 372.625 269.842 317.298 324 249.438 324 c 4
EndSplineSet
Validated: 1
EndChar

StartChar: multiply
Encoding: 215 215 176
Width: 500
VWidth: 0
Flags: W
HStem: 0 79.875<180.914 318.671> 324 79.875<180.914 318.668>
VStem: 47.5 79.875<132.941 270.936> 372.625 79.875<132.941 270.936>
LayerCount: 2
Fore
SplineSet
249.438 403.875 m 4
 361.19 403.875 452.5 313.717 452.5 201.938 c 4
 452.5 90.1582 361.199 0 249.438 0 c 4
 138.783 0 47.5 90.1582 47.5 201.938 c 4
 47.5 313.717 138.783 403.875 249.438 403.875 c 4
249.438 324 m 4
 182.667 324 127.375 269.842 127.375 201.938 c 4
 127.375 134.042 182.667 79.875 249.438 79.875 c 4
 317.307 79.875 372.625 134.042 372.625 201.938 c 4
 372.625 269.842 317.298 324 249.438 324 c 4
EndSplineSet
Validated: 1
EndChar

StartChar: Oslash
Encoding: 216 216 177
Width: 500
VWidth: 0
Flags: W
HStem: 0 79.875<180.914 318.671> 324 79.875<180.914 318.668>
VStem: 47.5 79.875<132.941 270.936> 372.625 79.875<132.941 270.936>
LayerCount: 2
Fore
SplineSet
249.438 403.875 m 4
 361.19 403.875 452.5 313.717 452.5 201.938 c 4
 452.5 90.1582 361.199 0 249.438 0 c 4
 138.783 0 47.5 90.1582 47.5 201.938 c 4
 47.5 313.717 138.783 403.875 249.438 403.875 c 4
249.438 324 m 4
 182.667 324 127.375 269.842 127.375 201.938 c 4
 127.375 134.042 182.667 79.875 249.438 79.875 c 4
 317.307 79.875 372.625 134.042 372.625 201.938 c 4
 372.625 269.842 317.298 324 249.438 324 c 4
EndSplineSet
Validated: 1
EndChar

StartChar: Ugrave
Encoding: 217 217 178
Width: 500
VWidth: 0
Flags: W
HStem: 0 79.875<180.914 318.671> 324 79.875<180.914 318.668>
VStem: 47.5 79.875<132.941 270.936> 372.625 79.875<132.941 270.936>
LayerCount: 2
Fore
SplineSet
249.438 403.875 m 4
 361.19 403.875 452.5 313.717 452.5 201.938 c 4
 452.5 90.1582 361.199 0 249.438 0 c 4
 138.783 0 47.5 90.1582 47.5 201.938 c 4
 47.5 313.717 138.783 403.875 249.438 403.875 c 4
249.438 324 m 4
 182.667 324 127.375 269.842 127.375 201.938 c 4
 127.375 134.042 182.667 79.875 249.438 79.875 c 4
 317.307 79.875 372.625 134.042 372.625 201.938 c 4
 372.625 269.842 317.298 324 249.438 324 c 4
EndSplineSet
Validated: 1
EndChar

StartChar: Uacute
Encoding: 218 218 179
Width: 500
VWidth: 0
Flags: W
HStem: 0 79.875<180.914 318.671> 324 79.875<180.914 318.668>
VStem: 47.5 79.875<132.941 270.936> 372.625 79.875<132.941 270.936>
LayerCount: 2
Fore
SplineSet
249.438 403.875 m 4
 361.19 403.875 452.5 313.717 452.5 201.938 c 4
 452.5 90.1582 361.199 0 249.438 0 c 4
 138.783 0 47.5 90.1582 47.5 201.938 c 4
 47.5 313.717 138.783 403.875 249.438 403.875 c 4
249.438 324 m 4
 182.667 324 127.375 269.842 127.375 201.938 c 4
 127.375 134.042 182.667 79.875 249.438 79.875 c 4
 317.307 79.875 372.625 134.042 372.625 201.938 c 4
 372.625 269.842 317.298 324 249.438 324 c 4
EndSplineSet
Validated: 1
EndChar

StartChar: Ucircumflex
Encoding: 219 219 180
Width: 500
VWidth: 0
Flags: W
HStem: 0 79.875<180.914 318.671> 324 79.875<180.914 318.668>
VStem: 47.5 79.875<132.941 270.936> 372.625 79.875<132.941 270.936>
LayerCount: 2
Fore
SplineSet
249.438 403.875 m 4
 361.19 403.875 452.5 313.717 452.5 201.938 c 4
 452.5 90.1582 361.199 0 249.438 0 c 4
 138.783 0 47.5 90.1582 47.5 201.938 c 4
 47.5 313.717 138.783 403.875 249.438 403.875 c 4
249.438 324 m 4
 182.667 324 127.375 269.842 127.375 201.938 c 4
 127.375 134.042 182.667 79.875 249.438 79.875 c 4
 317.307 79.875 372.625 134.042 372.625 201.938 c 4
 372.625 269.842 317.298 324 249.438 324 c 4
EndSplineSet
Validated: 1
EndChar

StartChar: Udieresis
Encoding: 220 220 181
Width: 500
VWidth: 0
Flags: W
HStem: 0 79.875<180.914 318.671> 324 79.875<180.914 318.668>
VStem: 47.5 79.875<132.941 270.936> 372.625 79.875<132.941 270.936>
LayerCount: 2
Fore
SplineSet
249.438 403.875 m 4
 361.19 403.875 452.5 313.717 452.5 201.938 c 4
 452.5 90.1582 361.199 0 249.438 0 c 4
 138.783 0 47.5 90.1582 47.5 201.938 c 4
 47.5 313.717 138.783 403.875 249.438 403.875 c 4
249.438 324 m 4
 182.667 324 127.375 269.842 127.375 201.938 c 4
 127.375 134.042 182.667 79.875 249.438 79.875 c 4
 317.307 79.875 372.625 134.042 372.625 201.938 c 4
 372.625 269.842 317.298 324 249.438 324 c 4
EndSplineSet
Validated: 1
EndChar

StartChar: Yacute
Encoding: 221 221 182
Width: 500
VWidth: 0
Flags: W
HStem: 0 79.875<180.914 318.671> 324 79.875<180.914 318.668>
VStem: 47.5 79.875<132.941 270.936> 372.625 79.875<132.941 270.936>
LayerCount: 2
Fore
SplineSet
249.438 403.875 m 4
 361.19 403.875 452.5 313.717 452.5 201.938 c 4
 452.5 90.1582 361.199 0 249.438 0 c 4
 138.783 0 47.5 90.1582 47.5 201.938 c 4
 47.5 313.717 138.783 403.875 249.438 403.875 c 4
249.438 324 m 4
 182.667 324 127.375 269.842 127.375 201.938 c 4
 127.375 134.042 182.667 79.875 249.438 79.875 c 4
 317.307 79.875 372.625 134.042 372.625 201.938 c 4
 372.625 269.842 317.298 324 249.438 324 c 4
EndSplineSet
Validated: 1
EndChar

StartChar: Thorn
Encoding: 222 222 183
Width: 500
VWidth: 0
Flags: W
HStem: 0 79.875<180.914 318.671> 324 79.875<180.914 318.668>
VStem: 47.5 79.875<132.941 270.936> 372.625 79.875<132.941 270.936>
LayerCount: 2
Fore
SplineSet
249.438 403.875 m 4
 361.19 403.875 452.5 313.717 452.5 201.938 c 4
 452.5 90.1582 361.199 0 249.438 0 c 4
 138.783 0 47.5 90.1582 47.5 201.938 c 4
 47.5 313.717 138.783 403.875 249.438 403.875 c 4
249.438 324 m 4
 182.667 324 127.375 269.842 127.375 201.938 c 4
 127.375 134.042 182.667 79.875 249.438 79.875 c 4
 317.307 79.875 372.625 134.042 372.625 201.938 c 4
 372.625 269.842 317.298 324 249.438 324 c 4
EndSplineSet
Validated: 1
EndChar

StartChar: germandbls
Encoding: 223 223 184
Width: 500
VWidth: 0
Flags: W
HStem: 0 79.875<180.914 318.671> 324 79.875<180.914 318.668>
VStem: 47.5 79.875<132.941 270.936> 372.625 79.875<132.941 270.936>
LayerCount: 2
Fore
SplineSet
249.438 403.875 m 4
 361.19 403.875 452.5 313.717 452.5 201.938 c 4
 452.5 90.1582 361.199 0 249.438 0 c 4
 138.783 0 47.5 90.1582 47.5 201.938 c 4
 47.5 313.717 138.783 403.875 249.438 403.875 c 4
249.438 324 m 4
 182.667 324 127.375 269.842 127.375 201.938 c 4
 127.375 134.042 182.667 79.875 249.438 79.875 c 4
 317.307 79.875 372.625 134.042 372.625 201.938 c 4
 372.625 269.842 317.298 324 249.438 324 c 4
EndSplineSet
Validated: 1
EndChar

StartChar: agrave
Encoding: 224 224 185
Width: 1000
VWidth: 0
Flags: W
HStem: 0 85.5<434.468 568.182> 399.375 84.375<433.698 568.02> 518.625 85.5<298.062 701.938>
VStem: 298.062 85.5<135.479 348.85> 617.562 84.376<0 37.9688 134.8 349.832 446.344 483.75>
LayerCount: 2
Fore
SplineSet
500 399.375 m 4
 437.246 399.375 385.092 348.152 383.562 284.625 c 6
 383.562 281.812 l 5
 383.562 201.938 l 6
 383.562 138.243 436.306 85.5 500 85.5 c 4
 564.846 85.5 617.562 138.243 617.562 201.938 c 6
 617.562 281.812 l 6
 617.562 346.658 564.846 399.375 500 399.375 c 4
489.594 483.75 m 4
 493.013 483.75 496.546 483.75 500 483.75 c 4
 543.884 483.75 584.445 470.039 617.562 446.344 c 5
 617.562 480.938 l 5
 617.562 483.75 l 5
 620.375 483.75 l 5
 699.125 483.75 l 5
 701.938 483.75 l 5
 701.938 480.938 l 5
 701.938 2.8125 l 5
 701.938 0 l 5
 699.125 0 l 5
 659.75 0 l 5
 620.375 0 l 5
 617.562 0 l 5
 617.562 2.8125 l 5
 617.562 37.9688 l 5
 584.445 14.2031 543.893 0 500 0 c 4
 390.26 0 299.583 89.7188 298.062 199.125 c 6
 298.062 201.938 l 5
 298.062 281.812 l 6
 298.062 390.103 383.65 478.345 489.594 483.75 c 4
298.062 604.125 m 5
 300.875 604.125 l 5
 699.125 604.125 l 5
 701.938 604.125 l 5
 701.938 601.312 l 5
 701.938 521.438 l 5
 701.938 518.625 l 5
 699.125 518.625 l 5
 500 518.625 l 5
 300.875 518.625 l 5
 298.062 518.625 l 5
 298.062 521.438 l 5
 298.062 601.312 l 5
 298.062 604.125 l 5
EndSplineSet
EndChar

StartChar: aacute
Encoding: 225 225 186
Width: 1000
VWidth: 0
Flags: W
HStem: 0 85.5<434.468 568.182> 399.375 84.375<433.698 568.02> 518.625 85.5<298.062 701.938>
VStem: 298.062 85.5<135.479 348.85> 617.562 84.376<0 37.9688 134.8 349.832 446.344 483.75>
LayerCount: 2
Fore
SplineSet
500 399.375 m 4
 437.246 399.375 385.092 348.152 383.562 284.625 c 6
 383.562 281.812 l 5
 383.562 201.938 l 6
 383.562 138.243 436.306 85.5 500 85.5 c 4
 564.846 85.5 617.562 138.243 617.562 201.938 c 6
 617.562 281.812 l 6
 617.562 346.658 564.846 399.375 500 399.375 c 4
489.594 483.75 m 4
 493.013 483.75 496.546 483.75 500 483.75 c 4
 543.884 483.75 584.445 470.039 617.562 446.344 c 5
 617.562 480.938 l 5
 617.562 483.75 l 5
 620.375 483.75 l 5
 699.125 483.75 l 5
 701.938 483.75 l 5
 701.938 480.938 l 5
 701.938 2.8125 l 5
 701.938 0 l 5
 699.125 0 l 5
 659.75 0 l 5
 620.375 0 l 5
 617.562 0 l 5
 617.562 2.8125 l 5
 617.562 37.9688 l 5
 584.445 14.2031 543.893 0 500 0 c 4
 390.26 0 299.583 89.7188 298.062 199.125 c 6
 298.062 201.938 l 5
 298.062 281.812 l 6
 298.062 390.103 383.65 478.345 489.594 483.75 c 4
298.062 604.125 m 5
 300.875 604.125 l 5
 699.125 604.125 l 5
 701.938 604.125 l 5
 701.938 601.312 l 5
 701.938 521.438 l 5
 701.938 518.625 l 5
 699.125 518.625 l 5
 500 518.625 l 5
 300.875 518.625 l 5
 298.062 518.625 l 5
 298.062 521.438 l 5
 298.062 601.312 l 5
 298.062 604.125 l 5
EndSplineSet
Validated: 1
EndChar

StartChar: acircumflex
Encoding: 226 226 187
Width: 500
VWidth: 0
Flags: W
HStem: 0 85.5<184.468 318.182> 399.375 84.375<183.698 318.02> 518.625 85.5<48.0625 451.938>
VStem: 48.0625 85.4995<135.479 348.85> 367.562 84.376<0 37.9688 134.8 349.832 446.344 483.75>
LayerCount: 2
Fore
SplineSet
250 399.375 m 4
 187.246 399.375 135.092 348.152 133.562 284.625 c 6
 133.562 281.812 l 5
 133.562 201.938 l 6
 133.562 138.243 186.306 85.5 250 85.5 c 4
 314.846 85.5 367.562 138.243 367.562 201.938 c 6
 367.562 281.812 l 6
 367.562 346.658 314.846 399.375 250 399.375 c 4
239.594 483.75 m 4
 243.013 483.75 246.546 483.75 250 483.75 c 4
 293.884 483.75 334.445 470.039 367.562 446.344 c 5
 367.562 480.938 l 5
 367.562 483.75 l 5
 370.375 483.75 l 5
 449.125 483.75 l 5
 451.938 483.75 l 5
 451.938 480.938 l 5
 451.938 2.8125 l 5
 451.938 0 l 5
 449.125 0 l 5
 409.75 0 l 5
 370.375 0 l 5
 367.562 0 l 5
 367.562 2.8125 l 5
 367.562 37.9688 l 5
 334.445 14.2031 293.893 0 250 0 c 4
 140.26 0 49.583 89.7188 48.0625 199.125 c 6
 48.0625 201.938 l 5
 48.0625 281.812 l 6
 48.0625 390.103 133.65 478.345 239.594 483.75 c 4
48.0625 604.125 m 5
 50.875 604.125 l 5
 449.125 604.125 l 5
 451.938 604.125 l 5
 451.938 601.312 l 5
 451.938 521.438 l 5
 451.938 518.625 l 5
 449.125 518.625 l 5
 250 518.625 l 5
 50.875 518.625 l 5
 48.0625 518.625 l 5
 48.0625 521.438 l 5
 48.0625 601.312 l 5
 48.0625 604.125 l 5
EndSplineSet
Validated: 1
EndChar

StartChar: atilde
Encoding: 227 227 188
Width: 500
VWidth: 0
Flags: W
HStem: 0 85.5<184.468 318.182> 399.375 84.375<183.698 318.02> 518.625 85.5<48.0625 451.938>
VStem: 48.0625 85.4995<135.479 348.85> 367.562 84.376<0 37.9688 134.8 349.832 446.344 483.75>
LayerCount: 2
Fore
SplineSet
250 399.375 m 4
 187.246 399.375 135.092 348.152 133.562 284.625 c 6
 133.562 281.812 l 5
 133.562 201.938 l 6
 133.562 138.243 186.306 85.5 250 85.5 c 4
 314.846 85.5 367.562 138.243 367.562 201.938 c 6
 367.562 281.812 l 6
 367.562 346.658 314.846 399.375 250 399.375 c 4
239.594 483.75 m 4
 243.013 483.75 246.546 483.75 250 483.75 c 4
 293.884 483.75 334.445 470.039 367.562 446.344 c 5
 367.562 480.938 l 5
 367.562 483.75 l 5
 370.375 483.75 l 5
 449.125 483.75 l 5
 451.938 483.75 l 5
 451.938 480.938 l 5
 451.938 2.8125 l 5
 451.938 0 l 5
 449.125 0 l 5
 409.75 0 l 5
 370.375 0 l 5
 367.562 0 l 5
 367.562 2.8125 l 5
 367.562 37.9688 l 5
 334.445 14.2031 293.893 0 250 0 c 4
 140.26 0 49.583 89.7188 48.0625 199.125 c 6
 48.0625 201.938 l 5
 48.0625 281.812 l 6
 48.0625 390.103 133.65 478.345 239.594 483.75 c 4
48.0625 604.125 m 5
 50.875 604.125 l 5
 449.125 604.125 l 5
 451.938 604.125 l 5
 451.938 601.312 l 5
 451.938 521.438 l 5
 451.938 518.625 l 5
 449.125 518.625 l 5
 250 518.625 l 5
 50.875 518.625 l 5
 48.0625 518.625 l 5
 48.0625 521.438 l 5
 48.0625 601.312 l 5
 48.0625 604.125 l 5
EndSplineSet
Validated: 1
EndChar

StartChar: adieresis
Encoding: 228 228 189
Width: 500
VWidth: 0
Flags: W
HStem: 0 85.5<184.468 318.182> 399.375 84.375<183.698 318.02> 518.625 85.5<48.0625 451.938>
VStem: 48.0625 85.4995<135.479 348.85> 367.562 84.376<0 37.9688 134.8 349.832 446.344 483.75>
LayerCount: 2
Fore
SplineSet
250 399.375 m 4
 187.246 399.375 135.092 348.152 133.562 284.625 c 6
 133.562 281.812 l 5
 133.562 201.938 l 6
 133.562 138.243 186.306 85.5 250 85.5 c 4
 314.846 85.5 367.562 138.243 367.562 201.938 c 6
 367.562 281.812 l 6
 367.562 346.658 314.846 399.375 250 399.375 c 4
239.594 483.75 m 4
 243.013 483.75 246.546 483.75 250 483.75 c 4
 293.884 483.75 334.445 470.039 367.562 446.344 c 5
 367.562 480.938 l 5
 367.562 483.75 l 5
 370.375 483.75 l 5
 449.125 483.75 l 5
 451.938 483.75 l 5
 451.938 480.938 l 5
 451.938 2.8125 l 5
 451.938 0 l 5
 449.125 0 l 5
 409.75 0 l 5
 370.375 0 l 5
 367.562 0 l 5
 367.562 2.8125 l 5
 367.562 37.9688 l 5
 334.445 14.2031 293.893 0 250 0 c 4
 140.26 0 49.583 89.7188 48.0625 199.125 c 6
 48.0625 201.938 l 5
 48.0625 281.812 l 6
 48.0625 390.103 133.65 478.345 239.594 483.75 c 4
48.0625 604.125 m 5
 50.875 604.125 l 5
 449.125 604.125 l 5
 451.938 604.125 l 5
 451.938 601.312 l 5
 451.938 521.438 l 5
 451.938 518.625 l 5
 449.125 518.625 l 5
 250 518.625 l 5
 50.875 518.625 l 5
 48.0625 518.625 l 5
 48.0625 521.438 l 5
 48.0625 601.312 l 5
 48.0625 604.125 l 5
EndSplineSet
Validated: 1
EndChar

StartChar: aring
Encoding: 229 229 190
Width: 500
VWidth: 0
Flags: W
HStem: 0 85.5<184.468 318.182> 399.375 84.375<183.698 318.02> 518.625 85.5<48.0625 451.938>
VStem: 48.0625 85.4995<135.479 348.85> 367.562 84.376<0 37.9688 134.8 349.832 446.344 483.75>
LayerCount: 2
Fore
SplineSet
250 399.375 m 4
 187.246 399.375 135.092 348.152 133.562 284.625 c 6
 133.562 281.812 l 5
 133.562 201.938 l 6
 133.562 138.243 186.306 85.5 250 85.5 c 4
 314.846 85.5 367.562 138.243 367.562 201.938 c 6
 367.562 281.812 l 6
 367.562 346.658 314.846 399.375 250 399.375 c 4
239.594 483.75 m 4
 243.013 483.75 246.546 483.75 250 483.75 c 4
 293.884 483.75 334.445 470.039 367.562 446.344 c 5
 367.562 480.938 l 5
 367.562 483.75 l 5
 370.375 483.75 l 5
 449.125 483.75 l 5
 451.938 483.75 l 5
 451.938 480.938 l 5
 451.938 2.8125 l 5
 451.938 0 l 5
 449.125 0 l 5
 409.75 0 l 5
 370.375 0 l 5
 367.562 0 l 5
 367.562 2.8125 l 5
 367.562 37.9688 l 5
 334.445 14.2031 293.893 0 250 0 c 4
 140.26 0 49.583 89.7188 48.0625 199.125 c 6
 48.0625 201.938 l 5
 48.0625 281.812 l 6
 48.0625 390.103 133.65 478.345 239.594 483.75 c 4
48.0625 604.125 m 5
 50.875 604.125 l 5
 449.125 604.125 l 5
 451.938 604.125 l 5
 451.938 601.312 l 5
 451.938 521.438 l 5
 451.938 518.625 l 5
 449.125 518.625 l 5
 250 518.625 l 5
 50.875 518.625 l 5
 48.0625 518.625 l 5
 48.0625 521.438 l 5
 48.0625 601.312 l 5
 48.0625 604.125 l 5
EndSplineSet
Validated: 1
EndChar

StartChar: ae
Encoding: 230 230 191
Width: 825
VWidth: 0
Flags: W
HStem: 0 85.5<186.758 319.979 504.844 774.188> 199.125 85.5<454.688 688.688> 398.25 85.5<186.75 320.404 504.199 637.218>
VStem: 50.8125 85.4995<135.075 348.675> 369.188 85.5<0 36.8438 135.751 199.125 284.625 348.49 446.906 483.75> 688.688 85.5<284.625 346.677>
CounterMasks: 1 e0
LayerCount: 2
Fore
SplineSet
571.125 398.25 m 4
 508.318 398.25 456.182 348.144 454.688 284.625 c 5
 688.688 284.625 l 5
 687.185 348.144 635.065 398.25 571.125 398.25 c 4
252.75 398.25 m 4
 187.869 398.25 136.312 346.693 136.312 281.812 c 6
 136.312 201.938 l 6
 136.312 138.208 187.904 85.5 252.75 85.5 c 4
 316.638 85.5 367.693 136.661 369.188 199.125 c 6
 369.188 201.938 l 5
 369.188 281.812 l 6
 369.188 346.693 317.631 398.25 252.75 398.25 c 4
252.75 483.75 m 4
 296.186 483.75 336.325 470.092 369.188 446.906 c 5
 369.188 480.938 l 5
 369.188 483.75 l 5
 372 483.75 l 5
 451.875 483.75 l 5
 454.688 483.75 l 5
 454.688 480.938 l 5
 454.688 446.625 l 5
 487.673 469.986 527.944 483.75 571.125 483.75 c 4
 682.887 483.75 774.188 393.592 774.188 281.812 c 6
 774.188 201.938 l 5
 774.188 199.125 l 5
 771.375 199.125 l 5
 571.125 199.125 l 5
 454.688 199.125 l 5
 456.252 136.723 508.397 85.5 571.125 85.5 c 6
 771.375 85.5 l 5
 774.188 85.5 l 5
 774.188 82.6875 l 5
 774.188 2.8125 l 5
 774.188 0 l 5
 771.375 0 l 5
 671.25 0 l 5
 571.125 0 l 6
 527.944 0 487.673 13.6934 454.688 37.125 c 5
 454.688 2.8125 l 5
 454.688 0 l 5
 451.875 0 l 5
 412.5 0 l 5
 372 0 l 5
 369.188 0 l 5
 369.188 2.8125 l 5
 369.188 36.8438 l 5
 336.325 13.5967 296.186 0 252.75 0 c 4
 141.929 0 52.3242 88.6729 50.8125 199.125 c 6
 50.8125 201.938 l 5
 50.8125 281.812 l 5
 50.8125 284.625 l 6
 52.3242 395.077 141.929 483.75 252.75 483.75 c 4
EndSplineSet
Validated: 1
EndChar

StartChar: ccedilla
Encoding: 231 231 192
Width: 1000
VWidth: 0
Flags: W
HStem: -199.625 85.5<337.438 405.229> 398.875 84.375<433.2 564.858>
VStem: 298.062 85.5<134.853 346.3> 457.812 85.5<-62.5524 8.72498> 619.25 79.875<141.072 204.25 278.5 344.656>
LayerCount: 2
Fore
SplineSet
489.594 483.25 m 4
 493.039 483.25 496.511 483.25 500 483.25 c 4
 611.762 483.25 701.938 393.074 701.938 281.312 c 5
 699.125 281.312 l 5
 699.125 278.5 l 5
 619.25 278.5 l 5
 619.25 281.312 l 5
 616.438 281.312 l 5
 616.438 346.193 564.846 398.875 500 398.875 c 4
 436.112 398.875 385.074 347.688 383.562 284.125 c 6
 383.562 281.312 l 5
 383.562 201.438 l 6
 383.562 137.708 435.154 85 500 85 c 4
 564.846 85 616.438 137.708 616.438 201.438 c 5
 619.25 201.438 l 5
 619.25 204.25 l 5
 699.125 204.25 l 5
 699.125 201.438 l 5
 701.938 201.438 l 5
 701.938 105.505 634.156 24.2061 543.312 4.28125 c 5
 543.312 2.3125 l 6
 543.312 -109.467 452.012 -199.625 340.25 -199.625 c 6
 337.438 -199.625 l 5
 337.438 -196.812 l 5
 337.438 -116.938 l 5
 337.438 -114.125 l 5
 340.25 -114.125 l 6
 405.096 -114.125 457.812 -61.3906 457.812 2.3125 c 6
 457.812 4 l 5
 367.355 23.4062 299.372 103.615 298.062 198.625 c 6
 298.062 201.438 l 5
 298.062 281.312 l 5
 298.062 284.125 l 6
 299.521 391.097 383.615 477.889 489.594 483.25 c 4
EndSplineSet
Validated: 1
EndChar

StartChar: egrave
Encoding: 232 232 193
Width: 500
VWidth: 0
Flags: W
HStem: 0 85.5<184.079 452.5> 199.125 85.5<133 367> 399.375 84.375<183.389 314.992> 518.625 85.5<47.5 452.5>
VStem: 47.5 85.5<136.555 199.125 284.625 348.85> 367 85.5<284.625 346.677>
LayerCount: 2
Fore
SplineSet
250.562 399.375 m 4
 186.675 399.375 134.538 348.152 133 284.625 c 5
 367 284.625 l 5
 365.471 348.152 313.316 399.375 250.562 399.375 c 4
240.156 483.75 m 4
 243.61 483.75 247.073 483.75 250.562 483.75 c 4
 361.217 483.75 452.5 393.592 452.5 281.812 c 6
 452.5 201.938 l 5
 452.5 199.125 l 5
 449.688 199.125 l 5
 250.562 199.125 l 5
 133 199.125 l 5
 134.521 137.646 185.181 87.0117 247.75 85.5 c 4
 248.708 85.4824 249.604 85.5 250.562 85.5 c 6
 449.688 85.5 l 5
 452.5 85.5 l 5
 452.5 82.6875 l 5
 452.5 2.8125 l 5
 452.5 0 l 5
 449.688 0 l 5
 349.562 0 l 5
 250.562 0 l 6
 249.622 0 248.69 -0.00878906 247.75 0 c 4
 138.203 1.50293 49.0117 90.6504 47.5 199.125 c 6
 47.5 201.938 l 5
 47.5 281.812 l 6
 47.5 390.103 133.185 478.345 240.156 483.75 c 4
47.5 604.125 m 5
 50.3125 604.125 l 5
 449.688 604.125 l 5
 452.5 604.125 l 5
 452.5 601.312 l 5
 452.5 521.438 l 5
 452.5 518.625 l 5
 449.688 518.625 l 5
 250.562 518.625 l 5
 50.3125 518.625 l 5
 47.5 518.625 l 5
 47.5 521.438 l 5
 47.5 601.312 l 5
 47.5 604.125 l 5
EndSplineSet
Validated: 1
EndChar

StartChar: eacute
Encoding: 233 233 194
Width: 500
VWidth: 0
Flags: W
HStem: 0 85.5<184.079 452.5> 199.125 85.5<133 367> 399.375 84.375<183.389 314.992> 518.625 85.5<47.5 452.5>
VStem: 47.5 85.5<136.555 199.125 284.625 348.85> 367 85.5<284.625 346.677>
LayerCount: 2
Fore
SplineSet
250.562 399.375 m 4
 186.675 399.375 134.538 348.152 133 284.625 c 5
 367 284.625 l 5
 365.471 348.152 313.316 399.375 250.562 399.375 c 4
240.156 483.75 m 4
 243.61 483.75 247.073 483.75 250.562 483.75 c 4
 361.217 483.75 452.5 393.592 452.5 281.812 c 6
 452.5 201.938 l 5
 452.5 199.125 l 5
 449.688 199.125 l 5
 250.562 199.125 l 5
 133 199.125 l 5
 134.521 137.646 185.181 87.0117 247.75 85.5 c 4
 248.708 85.4824 249.604 85.5 250.562 85.5 c 6
 449.688 85.5 l 5
 452.5 85.5 l 5
 452.5 82.6875 l 5
 452.5 2.8125 l 5
 452.5 0 l 5
 449.688 0 l 5
 349.562 0 l 5
 250.562 0 l 6
 249.622 0 248.69 -0.00878906 247.75 0 c 4
 138.203 1.50293 49.0117 90.6504 47.5 199.125 c 6
 47.5 201.938 l 5
 47.5 281.812 l 6
 47.5 390.103 133.185 478.345 240.156 483.75 c 4
47.5 604.125 m 5
 50.3125 604.125 l 5
 449.688 604.125 l 5
 452.5 604.125 l 5
 452.5 601.312 l 5
 452.5 521.438 l 5
 452.5 518.625 l 5
 449.688 518.625 l 5
 250.562 518.625 l 5
 50.3125 518.625 l 5
 47.5 518.625 l 5
 47.5 521.438 l 5
 47.5 601.312 l 5
 47.5 604.125 l 5
EndSplineSet
Validated: 1
EndChar

StartChar: ecircumflex
Encoding: 234 234 195
Width: 500
VWidth: 0
Flags: W
HStem: 0 85.5<184.079 452.5> 199.125 85.5<133 367> 399.375 84.375<183.389 314.992> 518.625 85.5<47.5 452.5>
VStem: 47.5 85.5<136.555 199.125 284.625 348.85> 367 85.5<284.625 346.677>
LayerCount: 2
Fore
SplineSet
250.562 399.375 m 4
 186.675 399.375 134.538 348.152 133 284.625 c 5
 367 284.625 l 5
 365.471 348.152 313.316 399.375 250.562 399.375 c 4
240.156 483.75 m 4
 243.61 483.75 247.073 483.75 250.562 483.75 c 4
 361.217 483.75 452.5 393.592 452.5 281.812 c 6
 452.5 201.938 l 5
 452.5 199.125 l 5
 449.688 199.125 l 5
 250.562 199.125 l 5
 133 199.125 l 5
 134.521 137.646 185.181 87.0117 247.75 85.5 c 4
 248.708 85.4824 249.604 85.5 250.562 85.5 c 6
 449.688 85.5 l 5
 452.5 85.5 l 5
 452.5 82.6875 l 5
 452.5 2.8125 l 5
 452.5 0 l 5
 449.688 0 l 5
 349.562 0 l 5
 250.562 0 l 6
 249.622 0 248.69 -0.00878906 247.75 0 c 4
 138.203 1.50293 49.0117 90.6504 47.5 199.125 c 6
 47.5 201.938 l 5
 47.5 281.812 l 6
 47.5 390.103 133.185 478.345 240.156 483.75 c 4
47.5 604.125 m 5
 50.3125 604.125 l 5
 449.688 604.125 l 5
 452.5 604.125 l 5
 452.5 601.312 l 5
 452.5 521.438 l 5
 452.5 518.625 l 5
 449.688 518.625 l 5
 250.562 518.625 l 5
 50.3125 518.625 l 5
 47.5 518.625 l 5
 47.5 521.438 l 5
 47.5 601.312 l 5
 47.5 604.125 l 5
EndSplineSet
Validated: 1
EndChar

StartChar: edieresis
Encoding: 235 235 196
Width: 500
VWidth: 0
Flags: W
HStem: 0 85.5<184.079 452.5> 199.125 85.5<133 367> 399.375 84.375<183.389 314.992> 518.625 85.5<47.5 452.5>
VStem: 47.5 85.5<136.555 199.125 284.625 348.85> 367 85.5<284.625 346.677>
LayerCount: 2
Fore
SplineSet
250.562 399.375 m 4
 186.675 399.375 134.538 348.152 133 284.625 c 5
 367 284.625 l 5
 365.471 348.152 313.316 399.375 250.562 399.375 c 4
240.156 483.75 m 4
 243.61 483.75 247.073 483.75 250.562 483.75 c 4
 361.217 483.75 452.5 393.592 452.5 281.812 c 6
 452.5 201.938 l 5
 452.5 199.125 l 5
 449.688 199.125 l 5
 250.562 199.125 l 5
 133 199.125 l 5
 134.521 137.646 185.181 87.0117 247.75 85.5 c 4
 248.708 85.4824 249.604 85.5 250.562 85.5 c 6
 449.688 85.5 l 5
 452.5 85.5 l 5
 452.5 82.6875 l 5
 452.5 2.8125 l 5
 452.5 0 l 5
 449.688 0 l 5
 349.562 0 l 5
 250.562 0 l 6
 249.622 0 248.69 -0.00878906 247.75 0 c 4
 138.203 1.50293 49.0117 90.6504 47.5 199.125 c 6
 47.5 201.938 l 5
 47.5 281.812 l 6
 47.5 390.103 133.185 478.345 240.156 483.75 c 4
47.5 604.125 m 5
 50.3125 604.125 l 5
 449.688 604.125 l 5
 452.5 604.125 l 5
 452.5 601.312 l 5
 452.5 521.438 l 5
 452.5 518.625 l 5
 449.688 518.625 l 5
 250.562 518.625 l 5
 50.3125 518.625 l 5
 47.5 518.625 l 5
 47.5 521.438 l 5
 47.5 601.312 l 5
 47.5 604.125 l 5
EndSplineSet
Validated: 1
EndChar

StartChar: igrave
Encoding: 236 236 197
Width: 500
VWidth: 0
Flags: W
HStem: 0 79.875<180.914 318.671> 324 79.875<180.914 318.668>
VStem: 47.5 79.875<132.941 270.936> 372.625 79.875<132.941 270.936>
LayerCount: 2
Fore
SplineSet
249.438 403.875 m 4
 361.19 403.875 452.5 313.717 452.5 201.938 c 4
 452.5 90.1582 361.199 0 249.438 0 c 4
 138.783 0 47.5 90.1582 47.5 201.938 c 4
 47.5 313.717 138.783 403.875 249.438 403.875 c 4
249.438 324 m 4
 182.667 324 127.375 269.842 127.375 201.938 c 4
 127.375 134.042 182.667 79.875 249.438 79.875 c 4
 317.307 79.875 372.625 134.042 372.625 201.938 c 4
 372.625 269.842 317.298 324 249.438 324 c 4
EndSplineSet
Validated: 1
EndChar

StartChar: iacute
Encoding: 237 237 198
Width: 500
VWidth: 0
Flags: W
HStem: 0 79.875<180.914 318.671> 324 79.875<180.914 318.668>
VStem: 47.5 79.875<132.941 270.936> 372.625 79.875<132.941 270.936>
LayerCount: 2
Fore
SplineSet
249.438 403.875 m 4
 361.19 403.875 452.5 313.717 452.5 201.938 c 4
 452.5 90.1582 361.199 0 249.438 0 c 4
 138.783 0 47.5 90.1582 47.5 201.938 c 4
 47.5 313.717 138.783 403.875 249.438 403.875 c 4
249.438 324 m 4
 182.667 324 127.375 269.842 127.375 201.938 c 4
 127.375 134.042 182.667 79.875 249.438 79.875 c 4
 317.307 79.875 372.625 134.042 372.625 201.938 c 4
 372.625 269.842 317.298 324 249.438 324 c 4
EndSplineSet
Validated: 1
EndChar

StartChar: icircumflex
Encoding: 238 238 199
Width: 500
VWidth: 0
Flags: W
HStem: 0 79.875<180.914 318.671> 324 79.875<180.914 318.668>
VStem: 47.5 79.875<132.941 270.936> 372.625 79.875<132.941 270.936>
LayerCount: 2
Fore
SplineSet
249.438 403.875 m 4
 361.19 403.875 452.5 313.717 452.5 201.938 c 4
 452.5 90.1582 361.199 0 249.438 0 c 4
 138.783 0 47.5 90.1582 47.5 201.938 c 4
 47.5 313.717 138.783 403.875 249.438 403.875 c 4
249.438 324 m 4
 182.667 324 127.375 269.842 127.375 201.938 c 4
 127.375 134.042 182.667 79.875 249.438 79.875 c 4
 317.307 79.875 372.625 134.042 372.625 201.938 c 4
 372.625 269.842 317.298 324 249.438 324 c 4
EndSplineSet
Validated: 1
EndChar

StartChar: idieresis
Encoding: 239 239 200
Width: 500
VWidth: 0
Flags: W
HStem: 0 79.875<180.914 318.671> 324 79.875<180.914 318.668>
VStem: 47.5 79.875<132.941 270.936> 372.625 79.875<132.941 270.936>
LayerCount: 2
Fore
SplineSet
249.438 403.875 m 4
 361.19 403.875 452.5 313.717 452.5 201.938 c 4
 452.5 90.1582 361.199 0 249.438 0 c 4
 138.783 0 47.5 90.1582 47.5 201.938 c 4
 47.5 313.717 138.783 403.875 249.438 403.875 c 4
249.438 324 m 4
 182.667 324 127.375 269.842 127.375 201.938 c 4
 127.375 134.042 182.667 79.875 249.438 79.875 c 4
 317.307 79.875 372.625 134.042 372.625 201.938 c 4
 372.625 269.842 317.298 324 249.438 324 c 4
EndSplineSet
Validated: 1
EndChar

StartChar: eth
Encoding: 240 240 201
Width: 500
VWidth: 0
Flags: W
HStem: 0 79.875<180.914 318.671> 324 79.875<180.914 318.668>
VStem: 47.5 79.875<132.941 270.936> 372.625 79.875<132.941 270.936>
LayerCount: 2
Fore
SplineSet
249.438 403.875 m 4
 361.19 403.875 452.5 313.717 452.5 201.938 c 4
 452.5 90.1582 361.199 0 249.438 0 c 4
 138.783 0 47.5 90.1582 47.5 201.938 c 4
 47.5 313.717 138.783 403.875 249.438 403.875 c 4
249.438 324 m 4
 182.667 324 127.375 269.842 127.375 201.938 c 4
 127.375 134.042 182.667 79.875 249.438 79.875 c 4
 317.307 79.875 372.625 134.042 372.625 201.938 c 4
 372.625 269.842 317.298 324 249.438 324 c 4
EndSplineSet
Validated: 1
EndChar

StartChar: ntilde
Encoding: 241 241 202
Width: 500
VWidth: 0
Flags: W
HStem: 0 79.875<180.914 318.671> 324 79.875<180.914 318.668>
VStem: 47.5 79.875<132.941 270.936> 372.625 79.875<132.941 270.936>
LayerCount: 2
Fore
SplineSet
249.438 403.875 m 4
 361.19 403.875 452.5 313.717 452.5 201.938 c 4
 452.5 90.1582 361.199 0 249.438 0 c 4
 138.783 0 47.5 90.1582 47.5 201.938 c 4
 47.5 313.717 138.783 403.875 249.438 403.875 c 4
249.438 324 m 4
 182.667 324 127.375 269.842 127.375 201.938 c 4
 127.375 134.042 182.667 79.875 249.438 79.875 c 4
 317.307 79.875 372.625 134.042 372.625 201.938 c 4
 372.625 269.842 317.298 324 249.438 324 c 4
EndSplineSet
Validated: 1
EndChar

StartChar: ograve
Encoding: 242 242 203
Width: 500
VWidth: 0
Flags: W
HStem: 0 85.5<183.814 315.745> 399.375 84.375<182.826 314.858> 518.625 85.5<48.0625 451.938>
VStem: 48.0625 84.3755<135.486 348.85> 366.438 85.5<135.486 346.67>
LayerCount: 2
Fore
SplineSet
48.0625 604.125 m 5
 50.875 604.125 l 5
 449.125 604.125 l 5
 451.938 604.125 l 5
 451.938 601.312 l 5
 451.938 521.438 l 5
 451.938 518.625 l 5
 449.125 518.625 l 5
 250 518.625 l 5
 50.875 518.625 l 5
 48.0625 518.625 l 5
 48.0625 521.438 l 5
 48.0625 601.312 l 5
 48.0625 604.125 l 5
239.594 483.75 m 4
 243.039 483.75 246.511 483.75 250 483.75 c 4
 361.762 483.75 451.938 393.574 451.938 281.812 c 6
 451.938 201.938 l 6
 451.938 201.006 451.946 200.057 451.938 199.125 c 4
 450.435 89.7363 360.839 0 250 0 c 4
 139.161 0 49.5742 89.7363 48.0625 199.125 c 6
 48.0625 201.938 l 5
 48.0625 281.812 l 6
 48.0625 390.085 132.684 478.345 239.594 483.75 c 4
250 399.375 m 4
 186.112 399.375 133.976 348.152 132.438 284.625 c 6
 132.438 281.812 l 5
 132.438 201.938 l 6
 132.438 138.243 185.154 85.5 250 85.5 c 4
 313.694 85.5 366.438 138.243 366.438 201.938 c 6
 366.438 281.812 l 6
 366.438 346.658 313.694 399.375 250 399.375 c 4
EndSplineSet
Validated: 1
EndChar

StartChar: oacute
Encoding: 243 243 204
Width: 500
VWidth: 0
Flags: W
HStem: 0 85.5<183.814 315.745> 399.375 84.375<182.826 314.858> 518.625 85.5<48.0625 451.938>
VStem: 48.0625 84.3755<135.486 348.85> 366.438 85.5<135.486 346.67>
LayerCount: 2
Fore
SplineSet
48.0625 604.125 m 5
 50.875 604.125 l 5
 449.125 604.125 l 5
 451.938 604.125 l 5
 451.938 601.312 l 5
 451.938 521.438 l 5
 451.938 518.625 l 5
 449.125 518.625 l 5
 250 518.625 l 5
 50.875 518.625 l 5
 48.0625 518.625 l 5
 48.0625 521.438 l 5
 48.0625 601.312 l 5
 48.0625 604.125 l 5
239.594 483.75 m 4
 243.039 483.75 246.511 483.75 250 483.75 c 4
 361.762 483.75 451.938 393.574 451.938 281.812 c 6
 451.938 201.938 l 6
 451.938 201.006 451.946 200.057 451.938 199.125 c 4
 450.435 89.7363 360.839 0 250 0 c 4
 139.161 0 49.5742 89.7363 48.0625 199.125 c 6
 48.0625 201.938 l 5
 48.0625 281.812 l 6
 48.0625 390.085 132.684 478.345 239.594 483.75 c 4
250 399.375 m 4
 186.112 399.375 133.976 348.152 132.438 284.625 c 6
 132.438 281.812 l 5
 132.438 201.938 l 6
 132.438 138.243 185.154 85.5 250 85.5 c 4
 313.694 85.5 366.438 138.243 366.438 201.938 c 6
 366.438 281.812 l 6
 366.438 346.658 313.694 399.375 250 399.375 c 4
EndSplineSet
Validated: 1
EndChar

StartChar: ocircumflex
Encoding: 244 244 205
Width: 500
VWidth: 0
Flags: W
HStem: 0 85.5<183.814 315.745> 399.375 84.375<182.826 314.858> 518.625 85.5<48.0625 451.938>
VStem: 48.0625 84.3755<135.486 348.85> 366.438 85.5<135.486 346.67>
LayerCount: 2
Fore
SplineSet
48.0625 604.125 m 5
 50.875 604.125 l 5
 449.125 604.125 l 5
 451.938 604.125 l 5
 451.938 601.312 l 5
 451.938 521.438 l 5
 451.938 518.625 l 5
 449.125 518.625 l 5
 250 518.625 l 5
 50.875 518.625 l 5
 48.0625 518.625 l 5
 48.0625 521.438 l 5
 48.0625 601.312 l 5
 48.0625 604.125 l 5
239.594 483.75 m 4
 243.039 483.75 246.511 483.75 250 483.75 c 4
 361.762 483.75 451.938 393.574 451.938 281.812 c 6
 451.938 201.938 l 6
 451.938 201.006 451.946 200.057 451.938 199.125 c 4
 450.435 89.7363 360.839 0 250 0 c 4
 139.161 0 49.5742 89.7363 48.0625 199.125 c 6
 48.0625 201.938 l 5
 48.0625 281.812 l 6
 48.0625 390.085 132.684 478.345 239.594 483.75 c 4
250 399.375 m 4
 186.112 399.375 133.976 348.152 132.438 284.625 c 6
 132.438 281.812 l 5
 132.438 201.938 l 6
 132.438 138.243 185.154 85.5 250 85.5 c 4
 313.694 85.5 366.438 138.243 366.438 201.938 c 6
 366.438 281.812 l 6
 366.438 346.658 313.694 399.375 250 399.375 c 4
EndSplineSet
Validated: 1
EndChar

StartChar: otilde
Encoding: 245 245 206
Width: 500
VWidth: 0
Flags: W
HStem: 0 85.5<183.814 315.745> 399.375 84.375<182.826 314.858> 518.625 85.5<48.0625 451.938>
VStem: 48.0625 84.3755<135.486 348.85> 366.438 85.5<135.486 346.67>
LayerCount: 2
Fore
SplineSet
48.0625 604.125 m 5
 50.875 604.125 l 5
 449.125 604.125 l 5
 451.938 604.125 l 5
 451.938 601.312 l 5
 451.938 521.438 l 5
 451.938 518.625 l 5
 449.125 518.625 l 5
 250 518.625 l 5
 50.875 518.625 l 5
 48.0625 518.625 l 5
 48.0625 521.438 l 5
 48.0625 601.312 l 5
 48.0625 604.125 l 5
239.594 483.75 m 4
 243.039 483.75 246.511 483.75 250 483.75 c 4
 361.762 483.75 451.938 393.574 451.938 281.812 c 6
 451.938 201.938 l 6
 451.938 201.006 451.946 200.057 451.938 199.125 c 4
 450.435 89.7363 360.839 0 250 0 c 4
 139.161 0 49.5742 89.7363 48.0625 199.125 c 6
 48.0625 201.938 l 5
 48.0625 281.812 l 6
 48.0625 390.085 132.684 478.345 239.594 483.75 c 4
250 399.375 m 4
 186.112 399.375 133.976 348.152 132.438 284.625 c 6
 132.438 281.812 l 5
 132.438 201.938 l 6
 132.438 138.243 185.154 85.5 250 85.5 c 4
 313.694 85.5 366.438 138.243 366.438 201.938 c 6
 366.438 281.812 l 6
 366.438 346.658 313.694 399.375 250 399.375 c 4
EndSplineSet
Validated: 1
EndChar

StartChar: odieresis
Encoding: 246 246 207
Width: 500
VWidth: 0
Flags: W
HStem: 0 85.5<183.814 315.745> 399.375 84.375<182.826 314.858> 518.625 85.5<48.0625 451.938>
VStem: 48.0625 84.3755<135.486 348.85> 366.438 85.5<135.486 346.67>
LayerCount: 2
Fore
SplineSet
48.0625 604.125 m 5
 50.875 604.125 l 5
 449.125 604.125 l 5
 451.938 604.125 l 5
 451.938 601.312 l 5
 451.938 521.438 l 5
 451.938 518.625 l 5
 449.125 518.625 l 5
 250 518.625 l 5
 50.875 518.625 l 5
 48.0625 518.625 l 5
 48.0625 521.438 l 5
 48.0625 601.312 l 5
 48.0625 604.125 l 5
239.594 483.75 m 4
 243.039 483.75 246.511 483.75 250 483.75 c 4
 361.762 483.75 451.938 393.574 451.938 281.812 c 6
 451.938 201.938 l 6
 451.938 201.006 451.946 200.057 451.938 199.125 c 4
 450.435 89.7363 360.839 0 250 0 c 4
 139.161 0 49.5742 89.7363 48.0625 199.125 c 6
 48.0625 201.938 l 5
 48.0625 281.812 l 6
 48.0625 390.085 132.684 478.345 239.594 483.75 c 4
250 399.375 m 4
 186.112 399.375 133.976 348.152 132.438 284.625 c 6
 132.438 281.812 l 5
 132.438 201.938 l 6
 132.438 138.243 185.154 85.5 250 85.5 c 4
 313.694 85.5 366.438 138.243 366.438 201.938 c 6
 366.438 281.812 l 6
 366.438 346.658 313.694 399.375 250 399.375 c 4
EndSplineSet
Validated: 1
EndChar

StartChar: divide
Encoding: 247 247 208
Width: 500
VWidth: 0
Flags: W
HStem: 0 79.875<180.914 318.671> 324 79.875<180.914 318.668>
VStem: 47.5 79.875<132.941 270.936> 372.625 79.875<132.941 270.936>
LayerCount: 2
Fore
SplineSet
249.438 403.875 m 4
 361.19 403.875 452.5 313.717 452.5 201.938 c 4
 452.5 90.1582 361.199 0 249.438 0 c 4
 138.783 0 47.5 90.1582 47.5 201.938 c 4
 47.5 313.717 138.783 403.875 249.438 403.875 c 4
249.438 324 m 4
 182.667 324 127.375 269.842 127.375 201.938 c 4
 127.375 134.042 182.667 79.875 249.438 79.875 c 4
 317.307 79.875 372.625 134.042 372.625 201.938 c 4
 372.625 269.842 317.298 324 249.438 324 c 4
EndSplineSet
Validated: 1
EndChar

StartChar: oslash
Encoding: 248 248 209
Width: 500
VWidth: 0
Flags: W
HStem: 0 79.875<180.914 318.671> 324 79.875<180.914 318.668>
VStem: 47.5 79.875<132.941 270.936> 372.625 79.875<132.941 270.936>
LayerCount: 2
Fore
SplineSet
249.438 403.875 m 4
 361.19 403.875 452.5 313.717 452.5 201.938 c 4
 452.5 90.1582 361.199 0 249.438 0 c 4
 138.783 0 47.5 90.1582 47.5 201.938 c 4
 47.5 313.717 138.783 403.875 249.438 403.875 c 4
249.438 324 m 4
 182.667 324 127.375 269.842 127.375 201.938 c 4
 127.375 134.042 182.667 79.875 249.438 79.875 c 4
 317.307 79.875 372.625 134.042 372.625 201.938 c 4
 372.625 269.842 317.298 324 249.438 324 c 4
EndSplineSet
Validated: 1
EndChar

StartChar: ugrave
Encoding: 249 249 210
Width: 500
VWidth: 0
Flags: W
HStem: 0 85.5<184.005 315.996> 463.75 20G<48.0625 133.562 366.438 451.938> 518.625 85.5<48.0625 451.938>
VStem: 48.0625 85.4995<135.486 483.75> 366.438 85.5<135.486 483.75>
LayerCount: 2
Fore
SplineSet
48.0625 604.125 m 5
 50.875 604.125 l 5
 449.125 604.125 l 5
 451.938 604.125 l 5
 451.938 601.312 l 5
 451.938 521.438 l 5
 451.938 518.625 l 5
 449.125 518.625 l 5
 250 518.625 l 5
 50.875 518.625 l 5
 48.0625 518.625 l 5
 48.0625 521.438 l 5
 48.0625 601.312 l 5
 48.0625 604.125 l 5
48.0625 483.75 m 5
 50.875 483.75 l 5
 130.75 483.75 l 5
 133.562 483.75 l 5
 133.562 480.938 l 5
 133.562 201.938 l 6
 133.562 138.208 185.154 85.5 250 85.5 c 4
 314.846 85.5 366.438 138.208 366.438 201.938 c 6
 366.438 480.938 l 5
 366.438 483.75 l 5
 369.25 483.75 l 5
 449.125 483.75 l 5
 451.938 483.75 l 5
 451.938 480.938 l 5
 451.938 201.938 l 6
 451.938 201.006 451.946 200.057 451.938 199.125 c 4
 450.435 89.7363 360.839 0 250 0 c 4
 139.161 0 49.5742 89.7363 48.0625 199.125 c 6
 48.0625 201.938 l 5
 48.0625 480.938 l 5
 48.0625 483.75 l 5
EndSplineSet
Validated: 1
EndChar

StartChar: uacute
Encoding: 250 250 211
Width: 500
VWidth: 0
Flags: W
HStem: 0 85.5<184.005 315.996> 463.75 20G<48.0625 133.562 366.438 451.938> 518.625 85.5<48.0625 451.938>
VStem: 48.0625 85.4995<135.486 483.75> 366.438 85.5<135.486 483.75>
LayerCount: 2
Fore
SplineSet
48.0625 604.125 m 5
 50.875 604.125 l 5
 449.125 604.125 l 5
 451.938 604.125 l 5
 451.938 601.312 l 5
 451.938 521.438 l 5
 451.938 518.625 l 5
 449.125 518.625 l 5
 250 518.625 l 5
 50.875 518.625 l 5
 48.0625 518.625 l 5
 48.0625 521.438 l 5
 48.0625 601.312 l 5
 48.0625 604.125 l 5
48.0625 483.75 m 5
 50.875 483.75 l 5
 130.75 483.75 l 5
 133.562 483.75 l 5
 133.562 480.938 l 5
 133.562 201.938 l 6
 133.562 138.208 185.154 85.5 250 85.5 c 4
 314.846 85.5 366.438 138.208 366.438 201.938 c 6
 366.438 480.938 l 5
 366.438 483.75 l 5
 369.25 483.75 l 5
 449.125 483.75 l 5
 451.938 483.75 l 5
 451.938 480.938 l 5
 451.938 201.938 l 6
 451.938 201.006 451.946 200.057 451.938 199.125 c 4
 450.435 89.7363 360.839 0 250 0 c 4
 139.161 0 49.5742 89.7363 48.0625 199.125 c 6
 48.0625 201.938 l 5
 48.0625 480.938 l 5
 48.0625 483.75 l 5
EndSplineSet
Validated: 1
EndChar

StartChar: ucircumflex
Encoding: 251 251 212
Width: 500
VWidth: 0
Flags: W
HStem: 0 85.5<184.005 315.996> 463.75 20G<48.0625 133.562 366.438 451.938> 518.625 85.5<48.0625 451.938>
VStem: 48.0625 85.4995<135.486 483.75> 366.438 85.5<135.486 483.75>
LayerCount: 2
Fore
SplineSet
48.0625 604.125 m 5
 50.875 604.125 l 5
 449.125 604.125 l 5
 451.938 604.125 l 5
 451.938 601.312 l 5
 451.938 521.438 l 5
 451.938 518.625 l 5
 449.125 518.625 l 5
 250 518.625 l 5
 50.875 518.625 l 5
 48.0625 518.625 l 5
 48.0625 521.438 l 5
 48.0625 601.312 l 5
 48.0625 604.125 l 5
48.0625 483.75 m 5
 50.875 483.75 l 5
 130.75 483.75 l 5
 133.562 483.75 l 5
 133.562 480.938 l 5
 133.562 201.938 l 6
 133.562 138.208 185.154 85.5 250 85.5 c 4
 314.846 85.5 366.438 138.208 366.438 201.938 c 6
 366.438 480.938 l 5
 366.438 483.75 l 5
 369.25 483.75 l 5
 449.125 483.75 l 5
 451.938 483.75 l 5
 451.938 480.938 l 5
 451.938 201.938 l 6
 451.938 201.006 451.946 200.057 451.938 199.125 c 4
 450.435 89.7363 360.839 0 250 0 c 4
 139.161 0 49.5742 89.7363 48.0625 199.125 c 6
 48.0625 201.938 l 5
 48.0625 480.938 l 5
 48.0625 483.75 l 5
EndSplineSet
Validated: 1
EndChar

StartChar: udieresis
Encoding: 252 252 213
Width: 500
VWidth: 0
Flags: W
HStem: 0 85.5<184.005 315.996> 463.75 20G<48.0625 133.562 366.438 451.938> 518.625 85.5<48.0625 451.938>
VStem: 48.0625 85.4995<135.486 483.75> 366.438 85.5<135.486 483.75>
LayerCount: 2
Fore
SplineSet
48.0625 604.125 m 5
 50.875 604.125 l 5
 449.125 604.125 l 5
 451.938 604.125 l 5
 451.938 601.312 l 5
 451.938 521.438 l 5
 451.938 518.625 l 5
 449.125 518.625 l 5
 250 518.625 l 5
 50.875 518.625 l 5
 48.0625 518.625 l 5
 48.0625 521.438 l 5
 48.0625 601.312 l 5
 48.0625 604.125 l 5
48.0625 483.75 m 5
 50.875 483.75 l 5
 130.75 483.75 l 5
 133.562 483.75 l 5
 133.562 480.938 l 5
 133.562 201.938 l 6
 133.562 138.208 185.154 85.5 250 85.5 c 4
 314.846 85.5 366.438 138.208 366.438 201.938 c 6
 366.438 480.938 l 5
 366.438 483.75 l 5
 369.25 483.75 l 5
 449.125 483.75 l 5
 451.938 483.75 l 5
 451.938 480.938 l 5
 451.938 201.938 l 6
 451.938 201.006 451.946 200.057 451.938 199.125 c 4
 450.435 89.7363 360.839 0 250 0 c 4
 139.161 0 49.5742 89.7363 48.0625 199.125 c 6
 48.0625 201.938 l 5
 48.0625 480.938 l 5
 48.0625 483.75 l 5
EndSplineSet
Validated: 1
EndChar

StartChar: yacute
Encoding: 253 253 214
Width: 500
VWidth: 0
Flags: W
HStem: 0 79.875<180.914 318.671> 324 79.875<180.914 318.668>
VStem: 47.5 79.875<132.941 270.936> 372.625 79.875<132.941 270.936>
LayerCount: 2
Fore
SplineSet
249.438 403.875 m 4
 361.19 403.875 452.5 313.717 452.5 201.938 c 4
 452.5 90.1582 361.199 0 249.438 0 c 4
 138.783 0 47.5 90.1582 47.5 201.938 c 4
 47.5 313.717 138.783 403.875 249.438 403.875 c 4
249.438 324 m 4
 182.667 324 127.375 269.842 127.375 201.938 c 4
 127.375 134.042 182.667 79.875 249.438 79.875 c 4
 317.307 79.875 372.625 134.042 372.625 201.938 c 4
 372.625 269.842 317.298 324 249.438 324 c 4
EndSplineSet
Validated: 1
EndChar

StartChar: thorn
Encoding: 254 254 215
Width: 500
VWidth: 0
Flags: W
HStem: 0 79.875<180.914 318.671> 324 79.875<180.914 318.668>
VStem: 47.5 79.875<132.941 270.936> 372.625 79.875<132.941 270.936>
LayerCount: 2
Fore
SplineSet
249.438 403.875 m 4
 361.19 403.875 452.5 313.717 452.5 201.938 c 4
 452.5 90.1582 361.199 0 249.438 0 c 4
 138.783 0 47.5 90.1582 47.5 201.938 c 4
 47.5 313.717 138.783 403.875 249.438 403.875 c 4
249.438 324 m 4
 182.667 324 127.375 269.842 127.375 201.938 c 4
 127.375 134.042 182.667 79.875 249.438 79.875 c 4
 317.307 79.875 372.625 134.042 372.625 201.938 c 4
 372.625 269.842 317.298 324 249.438 324 c 4
EndSplineSet
Validated: 1
EndChar

StartChar: ydieresis
Encoding: 255 255 216
Width: 500
VWidth: 0
Flags: W
HStem: 0 79.875<180.914 318.671> 324 79.875<180.914 318.668>
VStem: 47.5 79.875<132.941 270.936> 372.625 79.875<132.941 270.936>
LayerCount: 2
Fore
SplineSet
249.438 403.875 m 4
 361.19 403.875 452.5 313.717 452.5 201.938 c 4
 452.5 90.1582 361.199 0 249.438 0 c 4
 138.783 0 47.5 90.1582 47.5 201.938 c 4
 47.5 313.717 138.783 403.875 249.438 403.875 c 4
249.438 324 m 4
 182.667 324 127.375 269.842 127.375 201.938 c 4
 127.375 134.042 182.667 79.875 249.438 79.875 c 4
 317.307 79.875 372.625 134.042 372.625 201.938 c 4
 372.625 269.842 317.298 324 249.438 324 c 4
EndSplineSet
Validated: 1
EndChar

StartChar: bracketleft
Encoding: 91 91 217
Width: 500
VWidth: 0
Flags: W
HStem: 0 79.875<180.914 318.671> 324 79.875<180.914 318.668>
VStem: 47.5 79.875<132.941 270.936> 372.625 79.875<132.941 270.936>
LayerCount: 2
Fore
SplineSet
249.438 403.875 m 4
 361.19 403.875 452.5 313.717 452.5 201.938 c 4
 452.5 90.1582 361.199 0 249.438 0 c 4
 138.783 0 47.5 90.1582 47.5 201.938 c 4
 47.5 313.717 138.783 403.875 249.438 403.875 c 4
249.438 324 m 4
 182.667 324 127.375 269.842 127.375 201.938 c 4
 127.375 134.042 182.667 79.875 249.438 79.875 c 4
 317.307 79.875 372.625 134.042 372.625 201.938 c 4
 372.625 269.842 317.298 324 249.438 324 c 4
EndSplineSet
Validated: 1
EndChar

StartChar: backslash
Encoding: 92 92 218
Width: 500
VWidth: 0
Flags: W
HStem: 0 79.875<180.914 318.671> 324 79.875<180.914 318.668>
VStem: 47.5 79.875<132.941 270.936> 372.625 79.875<132.941 270.936>
LayerCount: 2
Fore
SplineSet
249.438 403.875 m 4
 361.19 403.875 452.5 313.717 452.5 201.938 c 4
 452.5 90.1582 361.199 0 249.438 0 c 4
 138.783 0 47.5 90.1582 47.5 201.938 c 4
 47.5 313.717 138.783 403.875 249.438 403.875 c 4
249.438 324 m 4
 182.667 324 127.375 269.842 127.375 201.938 c 4
 127.375 134.042 182.667 79.875 249.438 79.875 c 4
 317.307 79.875 372.625 134.042 372.625 201.938 c 4
 372.625 269.842 317.298 324 249.438 324 c 4
EndSplineSet
Validated: 1
EndChar

StartChar: bracketright
Encoding: 93 93 219
Width: 500
VWidth: 0
Flags: W
HStem: 0 79.875<180.914 318.671> 324 79.875<180.914 318.668>
VStem: 47.5 79.875<132.941 270.936> 372.625 79.875<132.941 270.936>
LayerCount: 2
Fore
SplineSet
249.438 403.875 m 4
 361.19 403.875 452.5 313.717 452.5 201.938 c 4
 452.5 90.1582 361.199 0 249.438 0 c 4
 138.783 0 47.5 90.1582 47.5 201.938 c 4
 47.5 313.717 138.783 403.875 249.438 403.875 c 4
249.438 324 m 4
 182.667 324 127.375 269.842 127.375 201.938 c 4
 127.375 134.042 182.667 79.875 249.438 79.875 c 4
 317.307 79.875 372.625 134.042 372.625 201.938 c 4
 372.625 269.842 317.298 324 249.438 324 c 4
EndSplineSet
Validated: 1
EndChar

StartChar: asciicircum
Encoding: 94 94 220
Width: 500
VWidth: 0
Flags: W
HStem: 0 79.875<180.914 318.671> 324 79.875<180.914 318.668>
VStem: 47.5 79.875<132.941 270.936> 372.625 79.875<132.941 270.936>
LayerCount: 2
Fore
SplineSet
249.438 403.875 m 4
 361.19 403.875 452.5 313.717 452.5 201.938 c 4
 452.5 90.1582 361.199 0 249.438 0 c 4
 138.783 0 47.5 90.1582 47.5 201.938 c 4
 47.5 313.717 138.783 403.875 249.438 403.875 c 4
249.438 324 m 4
 182.667 324 127.375 269.842 127.375 201.938 c 4
 127.375 134.042 182.667 79.875 249.438 79.875 c 4
 317.307 79.875 372.625 134.042 372.625 201.938 c 4
 372.625 269.842 317.298 324 249.438 324 c 4
EndSplineSet
Validated: 1
EndChar

StartChar: underscore
Encoding: 95 95 221
Width: 500
VWidth: 0
Flags: W
HStem: 0 79.875<180.914 318.671> 324 79.875<180.914 318.668>
VStem: 47.5 79.875<132.941 270.936> 372.625 79.875<132.941 270.936>
LayerCount: 2
Fore
SplineSet
249.438 403.875 m 4
 361.19 403.875 452.5 313.717 452.5 201.938 c 4
 452.5 90.1582 361.199 0 249.438 0 c 4
 138.783 0 47.5 90.1582 47.5 201.938 c 4
 47.5 313.717 138.783 403.875 249.438 403.875 c 4
249.438 324 m 4
 182.667 324 127.375 269.842 127.375 201.938 c 4
 127.375 134.042 182.667 79.875 249.438 79.875 c 4
 317.307 79.875 372.625 134.042 372.625 201.938 c 4
 372.625 269.842 317.298 324 249.438 324 c 4
EndSplineSet
Validated: 1
EndChar

StartChar: grave
Encoding: 96 96 222
Width: 500
VWidth: 0
Flags: W
HStem: 0 79.875<180.914 318.671> 324 79.875<180.914 318.668>
VStem: 47.5 79.875<132.941 270.936> 372.625 79.875<132.941 270.936>
LayerCount: 2
Fore
SplineSet
249.438 403.875 m 4
 361.19 403.875 452.5 313.717 452.5 201.938 c 4
 452.5 90.1582 361.199 0 249.438 0 c 4
 138.783 0 47.5 90.1582 47.5 201.938 c 4
 47.5 313.717 138.783 403.875 249.438 403.875 c 4
249.438 324 m 4
 182.667 324 127.375 269.842 127.375 201.938 c 4
 127.375 134.042 182.667 79.875 249.438 79.875 c 4
 317.307 79.875 372.625 134.042 372.625 201.938 c 4
 372.625 269.842 317.298 324 249.438 324 c 4
EndSplineSet
Validated: 1
EndChar

StartChar: Amacron
Encoding: 256 256 224
Width: 500
VWidth: 0
Flags: W
HStem: 0 79.875<180.914 318.671> 324 79.875<180.914 318.668>
VStem: 47.5 79.875<132.941 270.936> 372.625 79.875<132.941 270.936>
LayerCount: 2
Fore
SplineSet
249.438 403.875 m 4
 361.19 403.875 452.5 313.717 452.5 201.938 c 4
 452.5 90.1582 361.199 0 249.438 0 c 4
 138.783 0 47.5 90.1582 47.5 201.938 c 4
 47.5 313.717 138.783 403.875 249.438 403.875 c 4
249.438 324 m 4
 182.667 324 127.375 269.842 127.375 201.938 c 4
 127.375 134.042 182.667 79.875 249.438 79.875 c 4
 317.307 79.875 372.625 134.042 372.625 201.938 c 4
 372.625 269.842 317.298 324 249.438 324 c 4
EndSplineSet
Validated: 1
EndChar

StartChar: amacron
Encoding: 257 257 225
Width: 500
VWidth: 0
Flags: W
HStem: 0 79.875<180.914 318.671> 324 79.875<180.914 318.668>
VStem: 47.5 79.875<132.941 270.936> 372.625 79.875<132.941 270.936>
LayerCount: 2
Fore
SplineSet
249.438 403.875 m 4
 361.19 403.875 452.5 313.717 452.5 201.938 c 4
 452.5 90.1582 361.199 0 249.438 0 c 4
 138.783 0 47.5 90.1582 47.5 201.938 c 4
 47.5 313.717 138.783 403.875 249.438 403.875 c 4
249.438 324 m 4
 182.667 324 127.375 269.842 127.375 201.938 c 4
 127.375 134.042 182.667 79.875 249.438 79.875 c 4
 317.307 79.875 372.625 134.042 372.625 201.938 c 4
 372.625 269.842 317.298 324 249.438 324 c 4
EndSplineSet
Validated: 1
EndChar

StartChar: Abreve
Encoding: 258 258 226
Width: 500
VWidth: 0
Flags: W
HStem: 0 79.875<180.914 318.671> 324 79.875<180.914 318.668>
VStem: 47.5 79.875<132.941 270.936> 372.625 79.875<132.941 270.936>
LayerCount: 2
Fore
SplineSet
249.438 403.875 m 4
 361.19 403.875 452.5 313.717 452.5 201.938 c 4
 452.5 90.1582 361.199 0 249.438 0 c 4
 138.783 0 47.5 90.1582 47.5 201.938 c 4
 47.5 313.717 138.783 403.875 249.438 403.875 c 4
249.438 324 m 4
 182.667 324 127.375 269.842 127.375 201.938 c 4
 127.375 134.042 182.667 79.875 249.438 79.875 c 4
 317.307 79.875 372.625 134.042 372.625 201.938 c 4
 372.625 269.842 317.298 324 249.438 324 c 4
EndSplineSet
Validated: 1
EndChar

StartChar: abreve
Encoding: 259 259 227
Width: 500
VWidth: 0
Flags: W
HStem: 0 79.875<180.914 318.671> 324 79.875<180.914 318.668>
VStem: 47.5 79.875<132.941 270.936> 372.625 79.875<132.941 270.936>
LayerCount: 2
Fore
SplineSet
249.438 403.875 m 4
 361.19 403.875 452.5 313.717 452.5 201.938 c 4
 452.5 90.1582 361.199 0 249.438 0 c 4
 138.783 0 47.5 90.1582 47.5 201.938 c 4
 47.5 313.717 138.783 403.875 249.438 403.875 c 4
249.438 324 m 4
 182.667 324 127.375 269.842 127.375 201.938 c 4
 127.375 134.042 182.667 79.875 249.438 79.875 c 4
 317.307 79.875 372.625 134.042 372.625 201.938 c 4
 372.625 269.842 317.298 324 249.438 324 c 4
EndSplineSet
Validated: 1
EndChar

StartChar: Aogonek
Encoding: 260 260 228
Width: 500
VWidth: 0
Flags: W
HStem: 0 79.875<180.914 318.671> 324 79.875<180.914 318.668>
VStem: 47.5 79.875<132.941 270.936> 372.625 79.875<132.941 270.936>
LayerCount: 2
Fore
SplineSet
249.438 403.875 m 4
 361.19 403.875 452.5 313.717 452.5 201.938 c 4
 452.5 90.1582 361.199 0 249.438 0 c 4
 138.783 0 47.5 90.1582 47.5 201.938 c 4
 47.5 313.717 138.783 403.875 249.438 403.875 c 4
249.438 324 m 4
 182.667 324 127.375 269.842 127.375 201.938 c 4
 127.375 134.042 182.667 79.875 249.438 79.875 c 4
 317.307 79.875 372.625 134.042 372.625 201.938 c 4
 372.625 269.842 317.298 324 249.438 324 c 4
EndSplineSet
Validated: 1
EndChar

StartChar: aogonek
Encoding: 261 261 229
Width: 500
VWidth: 0
Flags: W
HStem: 0 79.875<180.914 318.671> 324 79.875<180.914 318.668>
VStem: 47.5 79.875<132.941 270.936> 372.625 79.875<132.941 270.936>
LayerCount: 2
Fore
SplineSet
249.438 403.875 m 4
 361.19 403.875 452.5 313.717 452.5 201.938 c 4
 452.5 90.1582 361.199 0 249.438 0 c 4
 138.783 0 47.5 90.1582 47.5 201.938 c 4
 47.5 313.717 138.783 403.875 249.438 403.875 c 4
249.438 324 m 4
 182.667 324 127.375 269.842 127.375 201.938 c 4
 127.375 134.042 182.667 79.875 249.438 79.875 c 4
 317.307 79.875 372.625 134.042 372.625 201.938 c 4
 372.625 269.842 317.298 324 249.438 324 c 4
EndSplineSet
Validated: 1
EndChar

StartChar: Cacute
Encoding: 262 262 230
Width: 500
VWidth: 0
Flags: W
HStem: 0 79.875<180.914 318.671> 324 79.875<180.914 318.668>
VStem: 47.5 79.875<132.941 270.936> 372.625 79.875<132.941 270.936>
LayerCount: 2
Fore
SplineSet
249.438 403.875 m 4
 361.19 403.875 452.5 313.717 452.5 201.938 c 4
 452.5 90.1582 361.199 0 249.438 0 c 4
 138.783 0 47.5 90.1582 47.5 201.938 c 4
 47.5 313.717 138.783 403.875 249.438 403.875 c 4
249.438 324 m 4
 182.667 324 127.375 269.842 127.375 201.938 c 4
 127.375 134.042 182.667 79.875 249.438 79.875 c 4
 317.307 79.875 372.625 134.042 372.625 201.938 c 4
 372.625 269.842 317.298 324 249.438 324 c 4
EndSplineSet
Validated: 1
EndChar

StartChar: cacute
Encoding: 263 263 231
Width: 500
VWidth: 0
Flags: W
HStem: 0 79.875<180.914 318.671> 324 79.875<180.914 318.668>
VStem: 47.5 79.875<132.941 270.936> 372.625 79.875<132.941 270.936>
LayerCount: 2
Fore
SplineSet
249.438 403.875 m 4
 361.19 403.875 452.5 313.717 452.5 201.938 c 4
 452.5 90.1582 361.199 0 249.438 0 c 4
 138.783 0 47.5 90.1582 47.5 201.938 c 4
 47.5 313.717 138.783 403.875 249.438 403.875 c 4
249.438 324 m 4
 182.667 324 127.375 269.842 127.375 201.938 c 4
 127.375 134.042 182.667 79.875 249.438 79.875 c 4
 317.307 79.875 372.625 134.042 372.625 201.938 c 4
 372.625 269.842 317.298 324 249.438 324 c 4
EndSplineSet
Validated: 1
EndChar

StartChar: Ccircumflex
Encoding: 264 264 232
Width: 500
VWidth: 0
Flags: W
HStem: 0 79.875<180.914 318.671> 324 79.875<180.914 318.668>
VStem: 47.5 79.875<132.941 270.936> 372.625 79.875<132.941 270.936>
LayerCount: 2
Fore
SplineSet
249.438 403.875 m 4
 361.19 403.875 452.5 313.717 452.5 201.938 c 4
 452.5 90.1582 361.199 0 249.438 0 c 4
 138.783 0 47.5 90.1582 47.5 201.938 c 4
 47.5 313.717 138.783 403.875 249.438 403.875 c 4
249.438 324 m 4
 182.667 324 127.375 269.842 127.375 201.938 c 4
 127.375 134.042 182.667 79.875 249.438 79.875 c 4
 317.307 79.875 372.625 134.042 372.625 201.938 c 4
 372.625 269.842 317.298 324 249.438 324 c 4
EndSplineSet
Validated: 1
EndChar

StartChar: ccircumflex
Encoding: 265 265 233
Width: 500
VWidth: 0
Flags: W
HStem: 0 79.875<180.914 318.671> 324 79.875<180.914 318.668>
VStem: 47.5 79.875<132.941 270.936> 372.625 79.875<132.941 270.936>
LayerCount: 2
Fore
SplineSet
249.438 403.875 m 4
 361.19 403.875 452.5 313.717 452.5 201.938 c 4
 452.5 90.1582 361.199 0 249.438 0 c 4
 138.783 0 47.5 90.1582 47.5 201.938 c 4
 47.5 313.717 138.783 403.875 249.438 403.875 c 4
249.438 324 m 4
 182.667 324 127.375 269.842 127.375 201.938 c 4
 127.375 134.042 182.667 79.875 249.438 79.875 c 4
 317.307 79.875 372.625 134.042 372.625 201.938 c 4
 372.625 269.842 317.298 324 249.438 324 c 4
EndSplineSet
Validated: 1
EndChar

StartChar: Cdotaccent
Encoding: 266 266 234
Width: 500
VWidth: 0
Flags: W
HStem: 0 79.875<180.914 318.671> 324 79.875<180.914 318.668>
VStem: 47.5 79.875<132.941 270.936> 372.625 79.875<132.941 270.936>
LayerCount: 2
Fore
SplineSet
249.438 403.875 m 4
 361.19 403.875 452.5 313.717 452.5 201.938 c 4
 452.5 90.1582 361.199 0 249.438 0 c 4
 138.783 0 47.5 90.1582 47.5 201.938 c 4
 47.5 313.717 138.783 403.875 249.438 403.875 c 4
249.438 324 m 4
 182.667 324 127.375 269.842 127.375 201.938 c 4
 127.375 134.042 182.667 79.875 249.438 79.875 c 4
 317.307 79.875 372.625 134.042 372.625 201.938 c 4
 372.625 269.842 317.298 324 249.438 324 c 4
EndSplineSet
Validated: 1
EndChar

StartChar: cdotaccent
Encoding: 267 267 235
Width: 500
VWidth: 0
Flags: W
HStem: 0 79.875<180.914 318.671> 324 79.875<180.914 318.668>
VStem: 47.5 79.875<132.941 270.936> 372.625 79.875<132.941 270.936>
LayerCount: 2
Fore
SplineSet
249.438 403.875 m 4
 361.19 403.875 452.5 313.717 452.5 201.938 c 4
 452.5 90.1582 361.199 0 249.438 0 c 4
 138.783 0 47.5 90.1582 47.5 201.938 c 4
 47.5 313.717 138.783 403.875 249.438 403.875 c 4
249.438 324 m 4
 182.667 324 127.375 269.842 127.375 201.938 c 4
 127.375 134.042 182.667 79.875 249.438 79.875 c 4
 317.307 79.875 372.625 134.042 372.625 201.938 c 4
 372.625 269.842 317.298 324 249.438 324 c 4
EndSplineSet
Validated: 1
EndChar

StartChar: Ccaron
Encoding: 268 268 236
Width: 500
VWidth: 0
Flags: W
HStem: 0 79.875<180.914 318.671> 324 79.875<180.914 318.668>
VStem: 47.5 79.875<132.941 270.936> 372.625 79.875<132.941 270.936>
LayerCount: 2
Fore
SplineSet
249.438 403.875 m 4
 361.19 403.875 452.5 313.717 452.5 201.938 c 4
 452.5 90.1582 361.199 0 249.438 0 c 4
 138.783 0 47.5 90.1582 47.5 201.938 c 4
 47.5 313.717 138.783 403.875 249.438 403.875 c 4
249.438 324 m 4
 182.667 324 127.375 269.842 127.375 201.938 c 4
 127.375 134.042 182.667 79.875 249.438 79.875 c 4
 317.307 79.875 372.625 134.042 372.625 201.938 c 4
 372.625 269.842 317.298 324 249.438 324 c 4
EndSplineSet
Validated: 1
EndChar

StartChar: ccaron
Encoding: 269 269 237
Width: 500
VWidth: 0
Flags: W
HStem: 0 79.875<180.914 318.671> 324 79.875<180.914 318.668>
VStem: 47.5 79.875<132.941 270.936> 372.625 79.875<132.941 270.936>
LayerCount: 2
Fore
SplineSet
249.438 403.875 m 4
 361.19 403.875 452.5 313.717 452.5 201.938 c 4
 452.5 90.1582 361.199 0 249.438 0 c 4
 138.783 0 47.5 90.1582 47.5 201.938 c 4
 47.5 313.717 138.783 403.875 249.438 403.875 c 4
249.438 324 m 4
 182.667 324 127.375 269.842 127.375 201.938 c 4
 127.375 134.042 182.667 79.875 249.438 79.875 c 4
 317.307 79.875 372.625 134.042 372.625 201.938 c 4
 372.625 269.842 317.298 324 249.438 324 c 4
EndSplineSet
Validated: 1
EndChar

StartChar: Dcaron
Encoding: 270 270 238
Width: 500
VWidth: 0
Flags: W
HStem: 0 79.875<180.914 318.671> 324 79.875<180.914 318.668>
VStem: 47.5 79.875<132.941 270.936> 372.625 79.875<132.941 270.936>
LayerCount: 2
Fore
SplineSet
249.438 403.875 m 4
 361.19 403.875 452.5 313.717 452.5 201.938 c 4
 452.5 90.1582 361.199 0 249.438 0 c 4
 138.783 0 47.5 90.1582 47.5 201.938 c 4
 47.5 313.717 138.783 403.875 249.438 403.875 c 4
249.438 324 m 4
 182.667 324 127.375 269.842 127.375 201.938 c 4
 127.375 134.042 182.667 79.875 249.438 79.875 c 4
 317.307 79.875 372.625 134.042 372.625 201.938 c 4
 372.625 269.842 317.298 324 249.438 324 c 4
EndSplineSet
Validated: 1
EndChar

StartChar: dcaron
Encoding: 271 271 239
Width: 500
VWidth: 0
Flags: W
HStem: 0 79.875<180.914 318.671> 324 79.875<180.914 318.668>
VStem: 47.5 79.875<132.941 270.936> 372.625 79.875<132.941 270.936>
LayerCount: 2
Fore
SplineSet
249.438 403.875 m 4
 361.19 403.875 452.5 313.717 452.5 201.938 c 4
 452.5 90.1582 361.199 0 249.438 0 c 4
 138.783 0 47.5 90.1582 47.5 201.938 c 4
 47.5 313.717 138.783 403.875 249.438 403.875 c 4
249.438 324 m 4
 182.667 324 127.375 269.842 127.375 201.938 c 4
 127.375 134.042 182.667 79.875 249.438 79.875 c 4
 317.307 79.875 372.625 134.042 372.625 201.938 c 4
 372.625 269.842 317.298 324 249.438 324 c 4
EndSplineSet
Validated: 1
EndChar

StartChar: Dcroat
Encoding: 272 272 240
Width: 500
VWidth: 0
Flags: W
HStem: 0 79.875<180.914 318.671> 324 79.875<180.914 318.668>
VStem: 47.5 79.875<132.941 270.936> 372.625 79.875<132.941 270.936>
LayerCount: 2
Fore
SplineSet
249.438 403.875 m 4
 361.19 403.875 452.5 313.717 452.5 201.938 c 4
 452.5 90.1582 361.199 0 249.438 0 c 4
 138.783 0 47.5 90.1582 47.5 201.938 c 4
 47.5 313.717 138.783 403.875 249.438 403.875 c 4
249.438 324 m 4
 182.667 324 127.375 269.842 127.375 201.938 c 4
 127.375 134.042 182.667 79.875 249.438 79.875 c 4
 317.307 79.875 372.625 134.042 372.625 201.938 c 4
 372.625 269.842 317.298 324 249.438 324 c 4
EndSplineSet
Validated: 1
EndChar

StartChar: dcroat
Encoding: 273 273 241
Width: 500
VWidth: 0
Flags: W
HStem: 0 79.875<180.914 318.671> 324 79.875<180.914 318.668>
VStem: 47.5 79.875<132.941 270.936> 372.625 79.875<132.941 270.936>
LayerCount: 2
Fore
SplineSet
249.438 403.875 m 4
 361.19 403.875 452.5 313.717 452.5 201.938 c 4
 452.5 90.1582 361.199 0 249.438 0 c 4
 138.783 0 47.5 90.1582 47.5 201.938 c 4
 47.5 313.717 138.783 403.875 249.438 403.875 c 4
249.438 324 m 4
 182.667 324 127.375 269.842 127.375 201.938 c 4
 127.375 134.042 182.667 79.875 249.438 79.875 c 4
 317.307 79.875 372.625 134.042 372.625 201.938 c 4
 372.625 269.842 317.298 324 249.438 324 c 4
EndSplineSet
Validated: 1
EndChar

StartChar: Emacron
Encoding: 274 274 242
Width: 500
VWidth: 0
Flags: W
HStem: 0 79.875<180.914 318.671> 324 79.875<180.914 318.668>
VStem: 47.5 79.875<132.941 270.936> 372.625 79.875<132.941 270.936>
LayerCount: 2
Fore
SplineSet
249.438 403.875 m 4
 361.19 403.875 452.5 313.717 452.5 201.938 c 4
 452.5 90.1582 361.199 0 249.438 0 c 4
 138.783 0 47.5 90.1582 47.5 201.938 c 4
 47.5 313.717 138.783 403.875 249.438 403.875 c 4
249.438 324 m 4
 182.667 324 127.375 269.842 127.375 201.938 c 4
 127.375 134.042 182.667 79.875 249.438 79.875 c 4
 317.307 79.875 372.625 134.042 372.625 201.938 c 4
 372.625 269.842 317.298 324 249.438 324 c 4
EndSplineSet
Validated: 1
EndChar

StartChar: emacron
Encoding: 275 275 243
Width: 500
VWidth: 0
Flags: W
HStem: 0 79.875<180.914 318.671> 324 79.875<180.914 318.668>
VStem: 47.5 79.875<132.941 270.936> 372.625 79.875<132.941 270.936>
LayerCount: 2
Fore
SplineSet
249.438 403.875 m 4
 361.19 403.875 452.5 313.717 452.5 201.938 c 4
 452.5 90.1582 361.199 0 249.438 0 c 4
 138.783 0 47.5 90.1582 47.5 201.938 c 4
 47.5 313.717 138.783 403.875 249.438 403.875 c 4
249.438 324 m 4
 182.667 324 127.375 269.842 127.375 201.938 c 4
 127.375 134.042 182.667 79.875 249.438 79.875 c 4
 317.307 79.875 372.625 134.042 372.625 201.938 c 4
 372.625 269.842 317.298 324 249.438 324 c 4
EndSplineSet
Validated: 1
EndChar

StartChar: Ebreve
Encoding: 276 276 244
Width: 500
VWidth: 0
Flags: W
HStem: 0 79.875<180.914 318.671> 324 79.875<180.914 318.668>
VStem: 47.5 79.875<132.941 270.936> 372.625 79.875<132.941 270.936>
LayerCount: 2
Fore
SplineSet
249.438 403.875 m 4
 361.19 403.875 452.5 313.717 452.5 201.938 c 4
 452.5 90.1582 361.199 0 249.438 0 c 4
 138.783 0 47.5 90.1582 47.5 201.938 c 4
 47.5 313.717 138.783 403.875 249.438 403.875 c 4
249.438 324 m 4
 182.667 324 127.375 269.842 127.375 201.938 c 4
 127.375 134.042 182.667 79.875 249.438 79.875 c 4
 317.307 79.875 372.625 134.042 372.625 201.938 c 4
 372.625 269.842 317.298 324 249.438 324 c 4
EndSplineSet
Validated: 1
EndChar

StartChar: ebreve
Encoding: 277 277 245
Width: 500
VWidth: 0
Flags: W
HStem: 0 79.875<180.914 318.671> 324 79.875<180.914 318.668>
VStem: 47.5 79.875<132.941 270.936> 372.625 79.875<132.941 270.936>
LayerCount: 2
Fore
SplineSet
249.438 403.875 m 4
 361.19 403.875 452.5 313.717 452.5 201.938 c 4
 452.5 90.1582 361.199 0 249.438 0 c 4
 138.783 0 47.5 90.1582 47.5 201.938 c 4
 47.5 313.717 138.783 403.875 249.438 403.875 c 4
249.438 324 m 4
 182.667 324 127.375 269.842 127.375 201.938 c 4
 127.375 134.042 182.667 79.875 249.438 79.875 c 4
 317.307 79.875 372.625 134.042 372.625 201.938 c 4
 372.625 269.842 317.298 324 249.438 324 c 4
EndSplineSet
Validated: 1
EndChar

StartChar: Edotaccent
Encoding: 278 278 246
Width: 500
VWidth: 0
Flags: W
HStem: 0 79.875<180.914 318.671> 324 79.875<180.914 318.668>
VStem: 47.5 79.875<132.941 270.936> 372.625 79.875<132.941 270.936>
LayerCount: 2
Fore
SplineSet
249.438 403.875 m 4
 361.19 403.875 452.5 313.717 452.5 201.938 c 4
 452.5 90.1582 361.199 0 249.438 0 c 4
 138.783 0 47.5 90.1582 47.5 201.938 c 4
 47.5 313.717 138.783 403.875 249.438 403.875 c 4
249.438 324 m 4
 182.667 324 127.375 269.842 127.375 201.938 c 4
 127.375 134.042 182.667 79.875 249.438 79.875 c 4
 317.307 79.875 372.625 134.042 372.625 201.938 c 4
 372.625 269.842 317.298 324 249.438 324 c 4
EndSplineSet
Validated: 1
EndChar

